<?xml version="1.0" standalone="no"?>
<!DOCTYPE svg PUBLIC "-//W3C//DTD SVG 20010904//EN"
 "http://www.w3.org/TR/2001/REC-SVG-20010904/DTD/svg10.dtd">
<svg version="1.0" xmlns="http://www.w3.org/2000/svg"
 width="125.000000pt" height="125.000000pt" viewBox="0 0 125.000000 125.000000"
 preserveAspectRatio="xMidYMid meet">
<metadata>
Created by potrace 1.11, written by Peter Selinger 2001-2013
</metadata>
<g transform="translate(0.000000,125.000000) scale(0.100000,-0.100000)"
fill="#000000" stroke="none">
<path d="M252 1110 c-33 -20 -62 -71 -62 -109 0 -19 7 -20 75 -20 l75 0 0 75
0 74 -27 0 c-16 0 -43 -9 -61 -20z"/>
<path d="M473 1111 c0 -11 5 -19 11 -18 5 1 16 -11 25 -26 15 -26 15 -29 -2
-41 -16 -13 -16 -14 -1 -20 9 -3 23 -1 31 6 13 10 18 9 32 -8 15 -19 17 -19
34 -2 9 10 13 18 8 18 -6 0 -13 -5 -17 -12 -5 -7 -11 -5 -21 8 -11 15 -17 17
-33 6 -27 -17 -32 -15 -18 7 10 16 7 26 -16 60 -33 47 -35 48 -33 22z"/>
<path d="M504 1118 c4 -19 23 -20 30 -2 5 14 4 15 -8 5 -10 -8 -16 -9 -19 -1
-3 6 -4 5 -3 -2z"/>
<path d="M585 1116 c10 -7 20 -23 22 -35 3 -25 -3 -27 -23 -6 -11 11 -12 15
-3 15 7 0 4 6 -6 14 -17 12 -21 12 -32 -3 -15 -20 -16 -31 -3 -31 6 0 9 5 8
11 -2 6 3 14 11 17 8 2 11 0 8 -5 -4 -6 3 -19 14 -29 19 -17 20 -17 42 5 19
19 20 21 3 15 -13 -5 -17 -4 -13 3 8 13 -18 43 -36 43 -6 0 -2 -6 8 -14z"/>
<path d="M624 1118 c4 -19 23 -20 30 -2 5 14 4 15 -8 5 -10 -8 -16 -9 -19 -1
-3 6 -4 5 -3 -2z"/>
<path d="M691 1127 c2 -1 14 -11 27 -21 12 -11 22 -16 22 -13 0 10 -31 37 -42
37 -6 0 -9 -1 -7 -3z"/>
<path d="M744 1118 c4 -19 23 -20 30 -2 5 14 4 15 -8 5 -10 -8 -16 -9 -19 -1
-3 6 -4 5 -3 -2z"/>
<path d="M895 1057 l0 -72 73 -3 72 -3 1 28 c4 87 -28 123 -109 123 l-37 0 0
-73z"/>
<path d="M440 1110 c-13 -8 -12 -10 3 -10 9 0 17 5 17 10 0 12 -1 12 -20 0z"/>
<path d="M662 1099 c-15 -23 -15 -29 -2 -29 6 0 9 5 8 11 -2 6 4 14 12 17 8 2
12 1 7 -3 -4 -5 0 -16 9 -26 15 -16 13 -17 -24 -13 -27 2 -44 -1 -52 -11 -9
-11 -9 -15 -1 -15 6 0 11 5 11 10 0 6 5 10 10 10 15 0 12 -14 -9 -36 -18 -20
-18 -21 10 -21 25 0 26 2 11 13 -16 12 -16 13 0 19 10 4 15 11 12 16 -3 5 2 9
11 9 9 0 13 -5 9 -11 -8 -13 33 7 58 28 15 13 16 11 12 -26 -2 -24 1 -41 7
-41 6 0 7 5 3 12 -5 8 -1 9 12 5 18 -7 18 -6 2 7 -10 7 -18 19 -18 27 0 11 2
11 10 -1 5 -8 10 -10 10 -4 0 5 -6 18 -13 28 -12 17 -15 17 -29 2 -20 -20 -32
-21 -25 -2 3 8 -4 21 -17 29 -20 14 -23 13 -34 -4z"/>
<path d="M786 1105 c-7 -19 3 -45 17 -45 7 0 7 4 -1 12 -14 14 -16 32 -2 23 6
-3 7 1 4 9 -8 20 -10 20 -18 1z"/>
<path d="M460 1070 c0 -5 5 -9 11 -7 6 1 14 -4 16 -11 3 -7 1 -12 -4 -10 -11
3 -53 -25 -53 -36 0 -4 7 -3 15 4 8 6 19 9 24 5 7 -3 8 0 5 10 -4 9 -3 15 2
14 28 -5 34 1 22 21 -13 21 -38 27 -38 10z"/>
<path d="M434 1051 c0 -11 4 -17 8 -15 4 3 8 12 8 20 0 8 -4 14 -8 14 -4 0 -8
-9 -8 -19z"/>
<path d="M540 1050 c0 -5 7 -7 15 -4 8 4 17 -1 21 -10 3 -9 10 -13 16 -10 10
7 -20 33 -39 34 -7 0 -13 -4 -13 -10z"/>
<path d="M790 1040 c0 -5 5 -10 11 -10 5 0 7 5 4 10 -3 6 -8 10 -11 10 -2 0
-4 -4 -4 -10z"/>
<path d="M711 1026 c-14 -8 -32 -12 -40 -9 -9 2 -7 -1 4 -8 11 -7 31 -14 45
-15 14 -1 17 0 8 3 -22 6 -24 23 -3 23 8 0 15 5 15 10 0 12 1 12 -29 -4z"/>
<path d="M790 1000 c-9 -6 -10 -10 -3 -10 6 0 15 5 18 10 8 12 4 12 -15 0z"/>
<path d="M455 990 c3 -5 8 -10 11 -10 2 0 4 5 4 10 0 6 -5 10 -11 10 -5 0 -7
-4 -4 -10z"/>
<path d="M196 893 c-3 -4 -6 -37 -6 -75 l0 -68 193 0 192 0 -1 72 0 73 -186 2
c-102 1 -189 -1 -192 -4z"/>
<path d="M660 730 c0 -189 -5 -179 80 -174 25 2 51 3 58 3 9 1 12 42 12 169
l0 169 -75 0 -75 1 0 -168z"/>
<path d="M910 870 c6 -11 5 -21 -3 -29 -9 -10 -8 -11 5 -6 20 8 21 52 1 52 -8
0 -9 -6 -3 -17z"/>
<path d="M950 880 c-8 -5 -12 -11 -10 -14 3 -2 14 2 24 10 22 15 10 19 -14 4z"/>
<path d="M1001 873 c7 -12 15 -20 18 -17 3 2 -3 12 -13 22 -17 16 -18 16 -5
-5z"/>
<path d="M1026 877 c3 -10 9 -15 12 -12 3 3 0 11 -7 18 -10 9 -11 8 -5 -6z"/>
<path d="M980 863 c17 -8 11 -26 -6 -19 -9 3 -26 -2 -39 -12 l-22 -18 29 -34
c17 -21 26 -27 22 -15 -7 19 -7 19 13 3 11 -10 23 -18 28 -18 4 0 -2 9 -15 20
-12 11 -27 17 -31 14 -5 -3 -9 -1 -9 5 0 15 18 23 25 11 3 -5 11 -10 18 -10 6
0 2 6 -9 14 -13 10 -23 11 -32 4 -19 -17 -26 -1 -8 18 16 15 18 15 35 0 10 -9
23 -16 30 -16 7 0 9 -4 6 -10 -3 -5 -2 -10 3 -10 6 0 12 7 16 15 3 8 2 14 -2
14 -28 -5 -42 3 -39 22 1 12 -4 23 -11 25 -7 1 -8 0 -2 -3z"/>
<path d="M1020 840 c-9 -6 -10 -10 -3 -10 6 0 15 5 18 10 8 12 4 12 -15 0z"/>
<path d="M900 791 c0 -6 5 -11 10 -11 6 0 9 -5 8 -11 -2 -6 3 -13 10 -14 7 -2
8 -1 2 2 -5 2 -8 8 -5 13 3 4 -2 13 -10 20 -10 9 -15 9 -15 1z"/>
<path d="M1010 770 c18 -12 30 -13 30 -2 0 4 -10 9 -22 9 -18 2 -20 0 -8 -7z"/>
<path d="M190 586 l0 -74 75 1 75 1 0 73 0 73 -75 0 -75 0 0 -74z"/>
<path d="M450 651 c0 -10 19 -25 25 -20 1 2 -3 10 -11 17 -8 7 -14 8 -14 3z"/>
<path d="M520 655 c0 -6 5 -16 12 -23 20 -20 19 -48 -2 -67 -21 -19 -27 -45
-9 -45 5 0 7 4 4 10 -3 5 4 20 17 33 24 24 28 40 16 53 -12 12 -9 26 4 18 7
-4 8 -3 4 5 -4 6 -12 8 -18 5 -6 -4 -14 0 -19 7 -5 8 -9 9 -9 4z"/>
<path d="M895 493 l1 -168 30 -3 c43 -4 81 13 101 46 15 24 18 50 16 148 0 65
-1 125 -2 132 -1 8 -23 12 -74 12 l-73 0 1 -167z"/>
<path d="M495 640 c-3 -5 -1 -10 4 -10 6 0 11 5 11 10 0 6 -2 10 -4 10 -3 0
-8 -4 -11 -10z"/>
<path d="M448 615 c13 -9 26 -14 29 -11 4 3 17 -1 30 -9 13 -9 23 -11 23 -5 0
5 -6 10 -12 10 -10 0 -9 3 1 9 9 6 3 9 -20 8 -19 0 -43 4 -54 8 -17 6 -16 4 3
-10z"/>
<path d="M442 586 c7 -8 17 -12 22 -9 4 3 2 9 -5 14 -22 13 -31 11 -17 -5z"/>
<path d="M491 573 c12 -15 12 -16 -3 -10 -10 3 -18 2 -18 -2 0 -16 28 -20 34
-5 8 21 8 21 -10 28 -15 6 -15 4 -3 -11z"/>
<path d="M552 558 c-17 -17 -15 -35 6 -43 14 -5 15 -4 5 6 -14 14 -18 33 -5
25 5 -3 9 1 9 9 0 18 0 18 -15 3z"/>
<path d="M440 550 c-13 -8 -12 -10 3 -10 9 0 17 5 17 10 0 12 -1 12 -20 0z"/>
<path d="M460 530 c-8 -5 -17 -7 -20 -5 -4 2 -7 -2 -7 -10 0 -11 4 -12 13 -4
7 6 17 8 22 6 4 -3 14 -2 21 2 10 7 10 9 -2 14 -7 3 -20 1 -27 -3z"/>
<path d="M500 503 c17 -8 11 -22 -10 -20 -11 1 -20 5 -20 9 0 4 -5 8 -10 8 -6
0 -3 -11 6 -25 10 -16 12 -25 5 -25 -6 0 -14 7 -17 15 -4 8 -9 15 -13 15 -4 0
-8 -7 -8 -15 0 -8 3 -13 5 -10 3 3 11 0 19 -7 7 -6 16 -8 20 -5 10 10 43 -13
43 -29 0 -9 -15 -31 -34 -50 -18 -18 -31 -35 -29 -38 7 -7 62 54 69 76 3 10 0
25 -6 33 -8 10 -9 15 -2 15 6 0 14 -4 17 -10 3 -5 14 -10 23 -9 12 0 11 3 -5
9 -13 5 -21 15 -19 22 1 7 1 10 -1 6 -9 -16 -23 -7 -20 13 1 12 -4 23 -11 25
-7 1 -8 0 -2 -3z m6 -50 c-7 -7 -26 7 -26 19 0 6 6 6 15 -2 9 -7 13 -15 11
-17z"/>
<path d="M530 499 c0 -5 5 -7 10 -4 6 3 10 8 10 11 0 2 -4 4 -10 4 -5 0 -10
-5 -10 -11z"/>
<path d="M559 498 c-5 -9 -5 -48 -1 -43 6 6 11 45 5 45 -2 0 -4 -1 -4 -2z"/>
<path d="M660 395 l0 -75 75 0 75 0 0 75 0 75 -75 0 -75 0 0 -75z"/>
<path d="M442 426 c7 -8 17 -12 22 -9 4 3 2 9 -5 14 -22 13 -31 11 -17 -5z"/>
<path d="M190 260 c0 -129 3 -170 13 -171 17 -1 87 -1 115 0 22 1 22 2 22 171
l0 170 -75 0 -75 0 0 -170z"/>
<path d="M487 413 c5 -12 3 -14 -7 -8 -10 6 -12 4 -7 -8 4 -12 -2 -21 -21 -31
-15 -9 -23 -15 -19 -16 17 0 45 20 60 44 14 20 14 25 2 30 -10 3 -12 0 -8 -11z"/>
<path d="M540 410 c0 -6 7 -10 15 -10 8 0 15 2 15 4 0 2 -7 6 -15 10 -8 3 -15
1 -15 -4z"/>
<path d="M440 390 c-13 -8 -12 -10 3 -10 9 0 17 5 17 10 0 12 -1 12 -20 0z"/>
<path d="M526 375 c-3 -8 -1 -15 3 -15 5 0 11 7 15 15 3 8 1 15 -3 15 -5 0
-11 -7 -15 -15z"/>
<path d="M555 370 c-3 -5 -1 -10 4 -10 6 0 11 5 11 10 0 6 -2 10 -4 10 -3 0
-8 -4 -11 -10z"/>
<path d="M489 333 c-13 -17 -13 -17 6 -3 11 8 22 16 24 17 2 2 0 3 -6 3 -6 0
-17 -8 -24 -17z"/>
<path d="M535 340 c3 -5 8 -10 11 -10 2 0 4 5 4 10 0 6 -5 10 -11 10 -5 0 -7
-4 -4 -10z"/>
<path d="M427 225 c-2 -5 -3 -37 -3 -70 1 -60 1 -60 32 -63 47 -5 114 61 114
110 l0 35 -70 -1 c-38 0 -71 -5 -73 -11z"/>
</g>
</svg>
