<?xml version="1.0" standalone="no"?>
<!DOCTYPE svg PUBLIC "-//W3C//DTD SVG 20010904//EN"
 "http://www.w3.org/TR/2001/REC-SVG-20010904/DTD/svg10.dtd">
<svg version="1.0" xmlns="http://www.w3.org/2000/svg"
 width="140.000000pt" height="140.000000pt" viewBox="0 0 140.000000 140.000000"
 preserveAspectRatio="xMidYMid meet">
<metadata>
Created by potrace 1.11, written by Peter Selinger 2001-2013
</metadata>
<g transform="translate(0.000000,140.000000) scale(0.100000,-0.100000)"
fill="#000000" stroke="none">
<path d="M0 700 l0 -700 700 0 700 0 0 700 0 700 -700 0 -700 0 0 -700z m420
440 l0 -70 -69 0 c-39 0 -72 4 -75 8 -3 5 -1 25 5 45 13 47 61 87 105 87 l34
0 0 -70z m650 60 c21 -11 40 -60 40 -101 l0 -29 -75 0 -75 0 0 70 0 70 46 0
c25 0 54 -4 64 -10z m-420 -285 l0 -75 -187 2 -188 3 -3 59 c-2 32 -1 65 2 72
4 11 44 14 191 14 l185 0 0 -75z m225 -95 l0 -165 -70 0 -70 0 -3 155 c-1 85
0 160 3 168 3 9 23 12 72 10 l68 -3 0 -165z m-455 -135 l0 -76 -72 3 -73 3 -3
59 c-4 85 -4 86 78 86 l70 0 0 -75z m685 -67 c0 -136 0 -138 -27 -164 -20 -21
-37 -27 -70 -28 l-43 -1 -3 168 -2 168 72 -3 73 -3 0 -137z m-227 -120 l-3
-73 -70 0 -70 0 -3 73 -3 72 76 0 76 0 -3 -72z m-458 -133 l0 -165 -75 0 -75
0 0 158 c0 87 3 162 7 165 3 4 37 7 75 7 l68 0 0 -165z m230 -45 c0 -56 -66
-120 -122 -120 -28 0 -28 0 -28 70 l0 70 75 0 c69 0 75 -2 75 -20z"/>
</g>
</svg>
