<?xml version="1.0" encoding="utf-8"?>
<!-- Generator: Adobe Illustrator 24.1.0, SVG Export Plug-In . SVG Version: 6.00 Build 0)  -->
<!DOCTYPE svg PUBLIC "-//W3C//DTD SVG 1.1//EN" "http://www.w3.org/Graphics/SVG/1.1/DTD/svg11.dtd" [
	<!ENTITY ns_extend "http://ns.adobe.com/Extensibility/1.0/">
	<!ENTITY ns_ai "http://ns.adobe.com/AdobeIllustrator/10.0/">
	<!ENTITY ns_graphs "http://ns.adobe.com/Graphs/1.0/">
	<!ENTITY ns_vars "http://ns.adobe.com/Variables/1.0/">
	<!ENTITY ns_imrep "http://ns.adobe.com/ImageReplacement/1.0/">
	<!ENTITY ns_sfw "http://ns.adobe.com/SaveForWeb/1.0/">
	<!ENTITY ns_custom "http://ns.adobe.com/GenericCustomNamespace/1.0/">
	<!ENTITY ns_adobe_xpath "http://ns.adobe.com/XPath/1.0/">
]>
<svg version="1.1" id="Layer_1" xmlns:x="&ns_extend;" xmlns:i="&ns_ai;" xmlns:graph="&ns_graphs;"
	 xmlns="http://www.w3.org/2000/svg" xmlns:xlink="http://www.w3.org/1999/xlink" x="0px" y="0px" viewBox="0 0 500 427"
	 style="enable-background:new 0 0 500 427;" xml:space="preserve">
<style type="text/css">
	.st0{fill-rule:evenodd;clip-rule:evenodd;fill:#1D58A5;}
	.st1{fill-rule:evenodd;clip-rule:evenodd;fill:#FFFFFF;}
</style>
<metadata>
	<sfw  xmlns="&ns_sfw;">
		<slices></slices>
		<sliceSourceBounds  bottomLeftOrigin="true" height="401.3" width="483" x="7.4" y="9.6"></sliceSourceBounds>
	</sfw>
</metadata>
<g>
	<path id="Accent" class="st0" d="M330.6,161.3c-4.2,8.1-8.5,16-13,24c-2.3,4.2-9.9,21.7-11.9,22.3c-2.1,0.7-15-6.9-18.7-8.3
		c-6.6-2.6-12.8-5.1-19.7-6.8c-7.7-1.8-15.4-3.2-23.4-2.5c-3.5,0.3-9.3,1.1-5.8-3.8c2.5-3.6,5-6.9,8.4-9.5c2.5-1.9,6.2-5.3,9.1-6.6
		c3.1-1.3,7.6-1,10.9-0.9c3.6,0.1,20.6,5.4,21.5-0.1c1.7,1.6,2.7,1,4.7,1.7c2.2,0.9,3.6,2.6,5.9,3.6c1.4,0.7,4.1,3.3,5.7,3.3
		c2.1,0,2.7-1.7,4.2-3c3.4-2.9,8-4.8,11.7-7.4C323.7,165.1,326.8,162.8,330.6,161.3z M293.3,97.2c-0.3,3.7,0.7,7.1,0.7,11
		c0,1.7-0.1,3.3,0.4,4.9c0.5,1.4,0.1,4,0.4,5.5c-4.2-1.3-12.1-3.2-16.5-1.5c-4.1,1.7-4.7,9.4-4.8,13.1c-0.1,2.6,1,6.5,0.2,8.9
		c-0.4,1.1-0.4,1.5-0.4,1.6l0,0c-0.1,0-0.4,0-1.6,0.8s-2.6,1.3-3.7,2.2c-2.1,1.7-2.4,3.6-3.5,6c-1,2.4-3.7,4.5-6.6,4.4
		c2.4-4.3,5.7-8.4,3.8-13.5c-1.4-3.8,1.1-8.4,3.1-12c0.7-1.2,7.9-10.5,4.7-11.1c-2.1-0.4-6.9,9.4-7.8,11.1c-2.6-1.7-3.7-3.9-1.7-6.5
		c1.5-2,3.4-3.7,4.9-5.8c2.4-3.4,4.7-7.4,7.6-10.4C277.3,100.8,286.1,97.2,293.3,97.2z M273.3,140.8L273.3,140.8L273.3,140.8z
		 M360.5,91.4c3.2,3.1,7.2,5.6,10.3,8.8c2.7,2.8,6.3,7.5,7.6,11.3c-6.6,1.3-17.5,5.2-20.2,12.1c-10.3-9.4-14.2,7.8-16.3,15
		c-6-2.6-4.8-11.2-4.7-16.3c0.1-4,2.5-8.7-3.3-9.1c-4.3-0.2-8.6,1.5-12.5,3.2c-4.9,2.1-10,5.2-14,8.7l-4.1-3.2
		c6.7-3.8,10.3-11,14.2-17.7c1.3-2.1,2.9-4.5,3.9-6.8c0.6-1.6,1.1-4.8,1.8-6.2c1.1-2.2,11.8-2.8,14.6-3.4
		C345.4,86.5,354.4,85.6,360.5,91.4z"/>
	<g id="Ink" transform="translate(67.995213, 33.042686)">
		<path id="ink-layer" class="st1" d="M290.8,107.5c2.8-0.1,5.5,0.5,8.3,0.2c-2.4-2.1-4.8-4.2-7.2-6.3
			C290.8,103.3,290.7,105.4,290.8,107.5L290.8,107.5z M225.2,64.5c-7.2,0-15.9,3.6-20.9,8.9c-2.6,2.8-4.8,6.5-7,9.6
			c-1.5,2.1-3,4.1-4.8,6c-2.6,2.7-1.9,3.3,1.1,5.3c0.9-1.8,5.9-11.2,8-10.8c3.2,0.6-3,10.6-3.6,11.9c-2,3.7-5.2,8.8-3.8,12.7
			c1.9,5.1-0.9,8-3.3,12.4c2.5,0.1,2.8-0.9,3.6-3.1c1.1-2.8,2.3-5.1,4.7-7c1.8-1.5,4.8-2.1,5.7-3.9c1.1-2.2,0.4-6.6,0.5-9
			c0.1-3.7,0.1-12.5,4.2-14.2c4.3-1.7,12-0.1,16.3,1.2c-0.5-3.3-2.2-5.4-2.2-9.1C223.8,71.6,224.9,68.2,225.2,64.5L225.2,64.5z
			 M170.2,125.5c3.7-1.2,7.3-2.4,11.1-3.2c4-0.8,4.3-1.8,6.6-5.3c1.7-2.6,3.8-4.7,3.3-7.9c-0.3-2.1-1.4-3.1-1.1-5.4
			c0.2-1.4,0.9-3,1.4-4.4c0.6-1.7,1.8-3.6-1-3.7c-1.6,0-1.7,0.8-2.7,2.2c-2,2.6-4.2,4.9-6.3,7.4c-3.6,4.3-7.5,8.9-11.6,12.9
			c-4.5,4.4-8.3,9.7-11.2,15.3c-0.5,1-3.8,7.1-2.4,8.3c1.3,1.1,8.4-1.5,9.6-1.8c5.6-1.3,11.9-1.8,17.2-4.1c2.7-1.2,8.6-2.6,10.7-4.5
			c2-1.7,1.9-5.9,0.7-8.3C191.3,125.1,168.1,132.6,170.2,125.5L170.2,125.5z M239.8,91.3c3.7-3.4,8.2-6.1,12.8-8.1
			c4.1-1.8,9.3-3.8,13.8-3.5c5.7,0.4,3.3,5,3.3,8.9c0,5.2-2.3,12.7,3.9,15.4c2-7.2,6.3-24.3,16.6-14.8c2.6-6.9,12-9.3,18.5-10.6
			c-1.2-3.5-4.8-6.7-7.3-9.3c-3.1-3.3-5.6-7.1-8.8-10.4c-6.2-6.4-17.5-4.3-25.3-2.7c-2.6,0.5-10.2,1.2-11.5,3.1
			c-0.8,1.2-0.4,4.2-0.9,5.6c-0.8,2-2.2,3.9-3.3,5.8c-4.1,6.9-8.2,13.8-15.2,17.7L239.8,91.3z M262.6,128.2
			c-3.7,1.4-6.4,3.8-9.7,5.8c-4,2.4-8.6,4.7-12.2,7.7c-1.3,1.1-2,3-3.8,3.1c-1.6,0.1-3.9-1.7-5.3-2.3c-2.3-1.1-4.5-2.7-6.9-3.6
			c-1.9-0.8-2.8-0.6-4.4-2.1c-0.9,5.6-17.9,0.4-21.5,0.3c-3.3-0.1-7.8,0.3-10.9,1.6c-2.9,1.3-5.2,4-7.7,5.9
			c-3.4,2.6-6.7,5.2-9.2,8.8c-3.5,4.9,1.8,3.5,5.2,3.2c7.9-0.7,15.7,1.2,23.3,3c6.8,1.6,13.6,3.6,20.2,6.2c3.7,1.5,7.6,2.9,11,4.8
			c1.8,1,4.8,3.5,6.9,2.8c1.9-0.7,3.8-6.2,5-8.4c2.3-4.3,4.6-8.5,7-12.7C254.1,144.3,258.5,136.4,262.6,128.2L262.6,128.2z
			 M217.2,234.1c2.3-1.3,6-1,8.5-1.5c2.8-0.6,5.7-1.6,8.4-2.7c2.7-1.1,5.3-2.2,7.8-3.5c1.1-0.6,2.7-1.2,3.7-2.1
			c0.9-0.7,1.2-1.9,2-2.6c2.1-1.6,2.7-0.6,2.9-3.7c0.3-3.4-1.6-5.3-4-7.8c-2.1-2.3-4.9-4.2-7.5-5.8c-1.2-0.7-2.4-1.5-3.6-2.2
			c-1.8-1-4.2-2.7-5.2-0.5c2,0.5,2.4,3,0.6,3.9c-1,0.5-2.5-0.2-3.6,0.3c-1.7,0.8-3.4,3.1-4.8,4.3c-4.8,4-9.4,5.6-15.7,5.9
			c-13.1,0.7-26.9-0.8-39.7-2.8c-3.3-0.5-6.6,0-10-0.1c-3.3-0.1-6.6-0.8-9.8-1.4c-6.2-1.1-12.6-1.9-18.7-3.5
			c-7.3-1.9-14.7-4.3-21.6-7.5c-6.6-3-14.1-8-21.5-8.4c3.2,3.1,7.9,4.3,11.7,6.3c3.1,1.7,8,2.7,9.9,5.5c1.3,1.8,1.9,5.1,2.9,7.2
			c1.1,2.3,2.1,4.7,3,7c1,2.4,2,4.7,2.8,7.2c0.5,1.5,0.7,4.7,1.9,5.7c1.9,1.7,8.2,2.4,10.7,2.9c4.7,1,10.1,0.9,15,1
			c2,0,4,0.3,5.9,0.3c2.7,0.1,2.4-0.4,2.4-2.7c0-1.4,0-3.9,1.9-2.8c1.3,0.8,0.4,4.3,0.2,5.5c10.7,1.1,21.8,1.6,32.4,1.2
			C196.9,236.6,206.9,235.3,217.2,234.1L217.2,234.1z M265.4,209.6c1.9-13.5,4.2-27.3,6.7-40.6c2.6-13.5,5.7-26.8,9.2-40.3
			c-2.3-0.6-4.6-1.1-7-1.7c-0.1,2.8-1,5.3-1.5,8.1c-0.6,3.9-1.6,7.7-2.3,11.5c-1.2,7.4-3.5,14.6-5.5,21.8c-2,7.3-2.7,14.9-4.6,22.2
			c-1.5,6.1-2.3,12.7-3.2,19c-2.1,15.1-5.1,30.3-7.3,45.4c-2.1,14.2-2.3,28.7-2.2,43c0.1,8.7,1.4,17.5,1.3,26.2
			c0,2.2,0.2,4.3,0.3,6.5c0.1,1.5-0.7,5.8,0,7c0.4,0.8,2.3,1.6,3,2.7c1.1,1.8,1.3,3.9,3,5.2c1.4-5.6,0.7-12.9,0.4-18.6
			c-0.3-5.5,0.3-11.1,0.4-16.6c0.2-10.9,0.8-21.6,1.4-32.5c0.6-11.9,2.3-24.2,4-36C263.2,231.3,264.2,220.3,265.4,209.6L265.4,209.6
			z M215,40.1c-0.7-0.1-1.5-0.1-2.2-0.2c0.1,1.6-0.2,4.1,0.9,4.9c0.8,0.6,2.5,0.4,3.6,0.6c3.3,0.7,7.2,1.2,10.5,0
			c1.3-0.5,0.5-1.2,2.2-0.9c2.1,0.4,1.4,0.7,2,2c0.5,1,0.7,2.8,1.3,4c0.7,1.7,2.2,4.6,1.6,6.5c-0.6,1.9-2.9,2.4-3.8,4.5
			c-0.7,1.6-0.5,3.8-0.9,5.6c-0.5,2.3-1.1,4.6-1.4,6.9c-0.3,2.9-0.2,6.4,3.4,6.9c3.4,0.4,5.8-0.7,8.1-3.1
			c4.3-4.7,9.3-11.3,11.8-17.3c0.3-0.7,1-1.8,0.9-2.6c-0.2-1.5-0.3,0-0.8-1c-0.4-1-1.1-1.9-1.5-2.9c-1.5-3.9-2.5-7.9-3.1-12
			c-0.3-1.9-0.4-3.7-0.3-5.6c0-0.6,0.4-2.6,0.2-3s-1.5-0.6-1.8-1.1c-0.7-0.8-1.9-3.1-2.7-3.7c-1-0.8-3.1-0.2-3.5-1.7
			c-0.6-2.4,14.1-6.3,7.2-9.5c-5.2-2.4-13.1,9.7-14.9,0.2c-0.3-1.6,0.3-3.9-0.4-5.4c-0.8-1.7-3-2.3-4.5-3.1c-1.9-1-3.9-2.1-5.8-3.2
			c-1.3-0.8-3.1-2.8-4.5-3c0.5,2.8-0.5,5.6-0.5,8.4c3-0.8,5-0.8,8,0.6c1.4,0.7,6.7,4.5,4,6.4c-2.2-1.3-4.5-2.4-6.9-3.1
			c-1-0.3-2.1-0.7-3.1-0.7c-2.3,0-2,0.2-2.9,2c-0.8,1.7-0.7,6.1-2.5,7.2c-1.9,1.1-0.4-0.4-2.1-0.1c-0.9,0.2-2,0.9-2.8,1.3
			c1.2,1.3,3.6,2.4,4.3,3.9c1.1,2.1,0.7,6.3,0.9,8.6c1.5-0.5,3.1-0.6,4.6-1c1.4-0.4,3.4-2,3.5,0.4C221.1,39.4,216.9,40.1,215,40.1
			L215,40.1z M234.4,109.7c0.1-2.3,0.2-4.6,0.5-6.8c0.2-1.5,1.6-6,0.8-7.3c-0.9-1.5-3.9-1.6-5.3-1.9c-2.8-0.7-5.4-1.2-8.2-1.7
			c-2.6-0.4-5-0.5-7.6-0.6c-2.8-0.1-3.5-0.9-4.2,2.2c-0.5,2.5-1.2,5-1.2,7.5c-0.1,2.4,0.6,4.4-1.7,6c5.1,0,11.8-4.6,16.5-0.5
			c6.7,5.8-5,7.5-8,8.8c2.6,1.2,6.3,2.2,7.5,5c1.3,3.2-0.6,4.5-3.6,4.8c0.3,1.2,1.4,2,1.7,3.5c0.5,2.2-1.1,1.4,0.9,3.1
			c2.6,2.2,7.8,3.7,11,5.1c0.7,0.3,1.5,0.6,2.2,0.9c1.2,1,2,0.8,2.6-0.6c1.6-1,3-3.3,4.5-4.6c3.2-2.9,6.7-5.5,10.5-7.7
			c-1.6-0.6-3.4,0.8-4.9,0.1c-1.2-0.6-0.8-1.6-1.5-2.4c0.3-1,0-1.4-0.9-1.1c-0.5,0-0.9,0-1.3-0.2c-0.8-0.9-1.1-1.3-1.2-2.7
			c-0.1-1.5,0.8-2.1,1.2-3.3c1.1-0.8,1.1-1.5-0.1-2.2c-0.5-0.8-0.7-1.6-0.8-2.6c-0.2-3.4,2.9-4.8,5.3-6.6c-4.2-0.5-4.1-5.4-1.1-7.6
			c3-2.3,9.5-1.3,13.2-0.8c0.8,0.1,2.8,1.1,3.6,0.5c0.5-0.4,0.1-3.7,0.2-4.2c0-1.3,0.4-2.9,0.2-4.2c-0.4-2.7,0.5-1.4-1.5-1.4
			C259,86,253.1,90.1,249,92c-4.6,2.2-7.6,2.5-7.6,7.8c0,5-1.5,10.1-2.1,15c-0.3,2.2-0.5,13.4-4.4,9.3c-1.5-1.6-0.6-4.1-0.4-6.1
			C234.4,115.2,234.4,112.4,234.4,109.7L234.4,109.7z M-22.3,278.7c2.3,0.4,6-0.9,8.5-1c4.3-0.2,8.8-0.7,13-1.6
			c3.3-0.7,7.1-1.3,8.9-4.5c1.6-2.9,2.2-6.5,3-9.6c0.5-1.7,1.6-4.1,1.6-5.8c0-2.2-0.3-1.8-2.6-3c-3-1.6-5.8-3.7-9-4.6
			c-1-0.2-1.9-0.4-2.9-0.6c-1.2-0.7-2-0.4-2.1,1.1c-1.2,1.3-1.9,3.7-3,5.2c-2.3,3.4-5.1,5.8-8.7,7.7c-6.5,3.6-12.6,6.3-19.6,8.6
			c-3.8,1.3-7.4,3.1-11.1,4.5c-3,1.1-7.2,1.5-9.5,4c-2.6,2.8,1.4,3.9,3.6,5.8c1.8,1.6,1.9,1.9,4.4,1.2c1.9-0.6,3.5-1.7,5.3-2.4
			C-36.4,281.1-29,279.4-22.3,278.7L-22.3,278.7z M117.6,323.8c-2.3-0.5-4.6-1-6.8-1.5c2.2,4.2,7,10.3,3.6,15.2
			c-1.3,1.8-3.4,2.3-5.3,3.2c-2.3,1.1-4.4,2.5-6.5,3.9c-8.9,5.5-17.9,11-27.3,15.7c2.9,0.9,7.4,1.6,10.4,0.8c3.5-1,6.8-3.2,10.4-4.1
			c6.5-1.7,13.3-3.2,19.8-4.1c5.4-0.7,18.8,0.9,18.2-7.2c-0.6-7.7-5.2-15-6.6-22.6C124.2,323.9,121,323.7,117.6,323.8L117.6,323.8z
			 M253.6,201c2.6-12.8,4.2-25.7,7.2-38.4c1.5-6.3,2.6-12.7,4.1-19.1c0.7-2.9,1.2-5.9,1.9-8.9c0.7-3,2.2-5.7,2.5-8.8
			c-2.5,0.6-3.1,6.3-3.8,8.4c-1.4,3.9-2.9,7.7-4.7,11.5c-2.8,6-5.8,11.7-9,17.5c-3.4,6.1-6.9,12-11.1,17.6c-1.4,1.8-3.2,3.3-4.1,5.3
			c-1.4,3.2-2,6.9-3.3,10.2c0.9,0.5,3.4,0.6,4.5,0.8c2.1,0.4,3.6,0.8,5.7,1.8c3.6,1.8,6.7,3.9,9.1,7.2
			C253.3,204.6,253.4,202.8,253.6,201L253.6,201z M152.5,298.4c0-12.3-0.2-24.7,0-36.9c0.1-3.4,0.3-7,0.8-10.4
			c0.3-2.1,2.1-6.6,0.9-7.6c-1-0.9-6.4-0.3-7.7-0.3c-2.6-0.1-5.1-0.2-7.7-0.4c0,4.6,1.8,9.7,2.6,14.2c0.8,4.2,1.4,8.4,2,12.7
			c1.4,9.1,1.8,18.4,3.3,27.6c1.4,8.3,3.1,16.6,4.1,24.9c0.5,4.6,1.6,8.9,2.5,13.4c0.4,2.4,2.1,12.2,4.1,13.1
			c0.4-3.5-1.3-7.8-1.6-11.3c-0.3-3.7-0.6-7.4-1.2-11.1c-0.7-4.3-1.1-8.8-1.3-13.1c-0.2-2.7-0.2-5.4-0.4-8
			C152.7,303.3,152,300.4,152.5,298.4L152.5,298.4z M216.6,134c0.1-1.3-3.4-1.3-4-2.8c-1.3-3.1,1.7-2.6,3.5-2.9
			c-0.7-1.7-12.9-1.1-10-5.8c2-3.3,9.5,1.7,11.5-1.4c1.3-2-2.3-2.3-3.7-2.5c-2.1-0.3-7.2,0.7-7-2.1c0.2-3.5,10-5.9,12.8-6.9
			c-0.3-2.4-12.1,1-13.8,2c-3.9,2.2-6.8,6.1-7.4,10.5c-0.7,5.1,1.9,9.1,7,10.3c2.1,0.5,3.7,0.6,5.6,1.4c1.3,0.5,5.5,1.8,6.4,0.5
			C217.1,134.2,216.9,134.1,216.6,134L216.6,134z M285.9,102.4c0.2-2.2,2-6.3-0.1-7.7c-3-2-4.2,1.3-4.8,3.3
			c-0.8,2.4-4.3,8.3-1.2,9.8c0.7,0.3,4-0.1,4.6-0.3c1.6,0.4,2.2-0.2,1.6-1.8v-3.3H285.9z M213.9,277.9c-0.2-5.9,2.5-13.1,4-18.9
			c1.7-6.6,2.6-13.3,4.4-19.8c-2,0.2-4,0.4-6,0.8c-2.7,0.6-2.8,0.5-2.6,3.1c0.3,4-0.1,7.9-0.3,11.9c-0.4,8,0.6,16.1-0.1,24.1
			C213.9,279.3,214.1,278.9,213.9,277.9L213.9,277.9z M289.1,122.2c6.5,1,12.8,3.1,18.7,5.8c3.3,1.5,6.9,3.2,10.5,3.8
			c4.1,0.7,8.4,0.4,12.5,0.6c1.5,0.1,5.3,0.8,6.7-0.1c1.4-0.9,1.3-2.3,1.4-4c0.2-4.4-1.8-8.8-3.6-12.7c-1.5-3.4-2.7-6-5.1-8.9
			c-3.1-3.8-5.8-7.8-8.6-11.8c-2.2-3-4.4-5.9-6.6-8.8c-1.6-2.1-1.5-2.8-3.9-2.6c-2.4,0.2-4.7,1.6-6.9,2.4c-3.3,1.1-7.3,1.7-10.3,3.4
			c-1.9,1.1-2,1.3-2,3.3c0,1.8,0.6,4.1,1.7,5.5c2.3,3,6.1,4.6,9.3,6.1c1.9,0.9,3.5,2.1,5.2,3.3c1.8,1.3,5.4,2,6.8,3.5
			c4,4.3-3.3,3.4-5.3,3.3c-4.4-0.3-8.8-0.2-13.2-0.2c-4.9,0-9.7-0.2-14.4-0.1c-2.8,0.1-6-1.3-7.8-3.7c-0.9-1.1-1.2-2.2-2.4-3.4
			c-1.5-1.6-2.8-3.2-4.6-4.4c-3-2-8.4-3.1-12-2.4c1.3,0.2,7.3,2.2,4.6,4.8c-0.3,0.3-4.2,0.5-5,0.9c-1.5,0.7-3.4,1.7-4.3,3.2
			c2.6-0.4,12.2-0.9,7.3,4c-1.2,1.2-4.7,2.4-1.7,3.7c0.7,0.3,2-0.1,2.9,0.1c1.3,0.4,2.3,1.5,3.6,2c3.4,1.6,8.2,2.6,11.7,2.3
			C279,120.7,284.1,121.6,289.1,122.2L289.1,122.2z M157.7,271.9c0.2,7.1-0.1,14.3,0.1,21.5c0.2,7.7,1.1,15.2,1.6,22.7
			c0.4,6.8,1.3,13.5,2.1,20.2c0.4,3.9,0.9,7.6,1.6,11.5c0.6,3.6,0.7,6.8-3.6,7.8c-8.3,1.9-9.6-10-11.1-15
			c-2.4-7.5-3.9-15.3-5.1-23.1c-2.2-14.4-5.1-28.7-6.3-43.2c-0.7-9-1.7-17.8-2.3-26.8c-0.1-1.8,0.3-4.5-1.2-5.2
			c-0.9-0.5-3.5-0.5-4.7-0.8c-3.3-0.9-6.3-2.3-9.5-3.8c2.3,11.8,3,23.6,4.7,35.5c0.9,6.3,2.6,12.9,4.1,19.1
			c1.5,6.4,1.9,13.4,3.7,19.7c0.8,2.8,1.4,3.9,0.3,6.8c-1.4,3.5-0.5,4.3,1.3,7.8c3.2,6.3,5.7,13.8,5.1,20.9
			c-0.4,5.8-4.8,8.9-10.3,10.4c-6.8,2-14,1.7-20.8,4c-6,1.9-12.1,3.4-17.9,5.9c-2.3,1-4.6,2.3-7.2,2.5c-3.6,0.3-6-1.8-9.3-2.2
			c-2.1-0.3-5.2,0.7-6.4-1.5c-1-1.7,0.1-5.6,1.3-7c3.4-4,10.2-7.4,14.7-9.7c5.3-2.7,10.4-6.1,15.2-9.5c3-2.1,6-4.1,8.9-6.2
			c2-1.4,2.7-1.4,2.5-3.6c-0.2-1.8-1-3.5-1.1-5.3c-0.1-1.4,0.4-3.3-0.3-4.2c-0.5-0.7-2.3-1.1-3-1.6c-2.6-1.8-3.2-4.1-4.4-6.9
			c-2.7-6.4-5.8-12.6-8.4-19c-5.6-13.8-9-28.3-13.6-42.4c-4.7-14.4-8.9-29.5-11.5-44.4c-3.5,1.1-6.8,5.7-9.5,8
			c-3.7,3.1-7.6,6.2-11.2,9.4c-6,5.3-12.1,10.4-17.1,16.7c-2.4,3-4.4,6.3-6.5,9.5c-1.3,1.8-2.4,3.9-3.8,5.7
			c-0.2,0.3-0.2,0.9-0.5,1.1c-0.5,0.5-1.5-0.2-1.8,0.2c-2,2.1-2,8.2-2.7,11c-0.9,3.9-1.9,8.3-4.9,11c-4.7,4.1-13.3,4.8-19.2,5
			c-7.6,0.3-15,2.4-22.2,4.7c-3.4,1.1-6.6,2.3-10,3.3c-1.9,0.6-4.2,1.8-6.2,1.5c-2.5-0.3-4.5-2.4-6.3-3.9c-2.9-2.5-5.6-5-5.6-9.1
			c0.1-4.3,2.5-7.6,6.2-9.8c7.2-4.2,15.2-6.9,22.9-9.7c3-1.1,5.5-2.3,8.3-3.8c4-2.1,8.6-3.8,12.2-6.6c1-0.8,4.9-3.3,5.2-4.6
			c0-0.2-0.9-2.1-0.9-2.5c0-0.8,0.5-1.7,0.8-2.4c1.8-4.3,5-8.5,7.3-12.6c4.3-7.5,8.7-15.1,13.7-22.1c10-14.1,21.3-27.9,33.5-40.2
			c5.9-6,11.1-12.8,17.1-18.7c2.4-2.3,4.9-4.2,7.8-5.8c3.3-1.7,7-2,10.7-2.5c9.1-1.3,16.7,1.4,25.2,3.8c8.1,2.2,16.2,4.1,24.3,6.4
			c8.9,2.5,17.7,5,26.6,7.7c4.8,1.5,9.6,2.4,14.4,3.8c2.3,0.7,11,4.9,12.9,3.5c-6-2.8-12.2-5.4-18.7-7.1c-1.9-0.5-3.1,0.1-3-2.1
			c0-1.2,1.4-2.8,1.9-3.8c1.2-2.3,2.5-4.6,3.6-7c-4.1,1.2-15.1,5.2-18.2,1c-3.2-4.4-0.5-12.9,1.5-17.2c5.3-11.1,14.3-20.4,23-28.8
			c1.9-1.8,6-4.2,7-6.5c0.3-0.7-0.4-1.7,0.3-2.6c0.4-0.5,2.1-0.9,2.7-1.5c2.4-2.1,4.3-6.6,6-9.4c1.7-2.9,3.3-6.1,5.5-8.7
			c3.6-4.3,7.3-8.8,13.1-9.8c2.8-0.5,5.9-0.2,8.6-1.2c3.3-1.2,6.4-3.1,9.8-4.3c-0.8-1.7-1.5-4.4-3.1-4.6c-1.5-0.2-3.8,1.1-5.6,1.1
			c-2.6,0-4.8-0.4-7.3-0.9c-2.8-0.5-3.7-0.4-4.7-3.4c-1.1-3.1-0.8-6.8-0.8-10c0-1.6,0.3-3.6,0.2-5.1c-0.2-2.3-0.7-2.4-2.5-3.9
			c-2.3-1.9-5.1-4.3-2.3-7.6c1.5-1.8,4.7-0.4,6-2.3c1.4-1.9,1.3-6.7,1.7-9c-4.2,2.1-2.7-5.7-2.7-7.6c0-2.7-1.8-7.6,0.8-9.9
			c1.2-1.1,2.1-0.2,3.5-0.8c1.6-0.7,2.6-2.5,4.3-3.2c3.4-1.4,6.8,0.3,10.3,0c4-0.3,7.9-0.9,11.9-0.3c1.9,0.3,2.7,1,4.3,1.8
			c1.5,0.8,3.1,1,4.8,1.5c1.5,0.4,2.8,0.7,3.8,2c0.8,1,0.5,2.7,1.3,3.6s2.4,0.7,3.3,1.8c0.9,1,1.4,2.6,1.9,3.9
			c0.6,1.7,0.7,2.3,1.8,3.6c1,1.2,2.4,2.1,3.2,3.4c1.9,3.1,2,7.6,1.4,11.2c-0.2,1.2-1.9,4.3-1.7,5.3c0.3,1,1.9,0.7,2.6,1.3
			c0.6,0.5,1.2,2.9,1.7,3c1.1,0.3,2.4-1.8,3.2-2.2c1.4-0.6,2-1.1,2.8,1c0.6,1.6-0.2,3.7-0.7,5.2c-0.5,1.9-1.2,4.2-2.6,5.6
			c-1.7,1.7-3.1,0.8-4.9,1.7c-2.8,1.4-2,5.6-5.5,6.8c-3.3,1.2-6.9-2.5-9.4-4.2c0.5,4.1,2.5,8,1.5,12.2c7.6-3,15.1-7.2,23.4-8.1
			c4.2-0.5,8.5-1,12.5,0.7c4.7,2.1,7.5,6.6,10.7,10.3c5.9,7.1,12,13.9,17.7,21.2c5.2,6.7,9.6,14.4,15.4,20.7
			c5.8,6.4,10.2,16.7,9.6,25.5c-0.1,0.8-0.7,2.6-0.6,3.5c0.1,0.7,0.7,1.5,0.7,2c0,1.8-0.6,2.8-2.3,3.8c-2.9,1.7-7.3,2.6-10.6,3
			c-4.4,0.6-9.8,0.6-14.2,0c-4.6-0.6-8.6-3.2-12.8-4.7c-3.7-1.4-7.4-2.2-11.2-3.1c-2.1-0.5-4.5-1.8-5.8-0.5
			c-1.2,1.2-1.5,7.2-1.7,8.8c-3.1,17.3-6.7,34.1-9.9,51.3c-3.6,19.6-6.1,39.1-8.7,58.8c-2.3,17.9-3.1,36.1-3.6,54
			c-0.2,8.5-0.3,17-0.2,25.5c0,4.8,2.4,20.8-4.7,21.4c-4.2,0.4-7.5-5.6-8.6-8.9c-1.7-4.9-2.6-10.2-2.8-15.3
			c-0.5-10.4-1.3-20.8-1.7-31.3c-0.5-11.3,0.1-22.8,1.1-34c0.9-11.3,3.3-22.5,4-33.8c-2.2,3.1-2.9,3.7-6.5,5
			c-3.8,1.4-7.4,3.1-11.2,4.4c-1.3,0.4-3.3,0.7-4.4,1.5c-2,1.4-0.7-0.2-1.3,2.4c-0.7,2.8-0.8,6.2-1,9.1c-0.8,13.5-4.6,27-6.3,40.5
			c-0.4,3.3,0.2,17.1-5.4,12.7c-4.3-3.4-4.2-13.9-4.8-18.8c-0.8-6.6-0.4-13.3-0.2-19.9c0.1-7.5,0.3-15.4,2.1-22.8
			c-3.2-0.6-7.7,0.9-10.9,1.2c-2.8,0.2-5.6,0.4-8.4,0.5c-6.6,0.4-13.5,0.7-20.2,0.5c-1.2,0-9.3-1.1-10.3-0.2
			c-0.3,0.3-0.4,4.3-0.5,4.8c-0.2,1.9-0.6,3.7-0.8,5.6C158.2,259.7,157.5,266,157.7,271.9L157.7,271.9z"/>
		<path class="st1" d="M277.1,328.2c5.1,2,10.5,2.7,15.6,4.5c4.6,1.6,8.8,3.8,13.3,5.4c0.3-2.1,0.4-5.6-0.4-7.6
			c-1.1-2.8-4-2.9-6.8-3.8c-6.9-2.4-14.1-2.9-21-5.7C279,323.2,278.5,326.1,277.1,328.2 M364.6,320.9c-10.9,0.3-21.4,2.9-32.2,4.4
			c-5.3,0.8-10.5,1.5-15.8,2.2c-2,0.3-5.7,0-7.2,1.7c-1.2,1.5,0.1,6.4-0.4,8.5c2.2,0.2,6.1-1.9,8.5-2.2c3.7-0.5,7.4-1.3,11.2-1.5
			c6-0.4,11.9-0.7,17.8-1.4c6.1-0.7,12-1.9,18.1-2.4c3-0.2,4.2,0.3,4.4-2.8c0.1-1.2,0.2-3.3-0.1-4.5c0.6-1.5,0.1-2.2-1.5-2.2
			C366.5,320.6,365.5,320.7,364.6,320.9 M343.4,310.8c3-0.3,5.9-0.7,8.9-0.8c0.6,0,3.7,0.1,4.2-0.4c0.7-0.8-0.1-3.7-0.2-4.6
			c-0.4-3-0.9-4.8-4.3-4.8c-2.8,0-5.7,0.6-8.5,0.9c-12.7,1.2-25.3,1.8-37.8,4.1c0.8,3.3,1.6,6.6,0.7,9.9c6,0.3,12.6-0.8,18.5-2
			C330.9,311.8,337.3,311.2,343.4,310.8 M323.3,280.2c-4.5,0-9.3,2-13.8,1.6c-0.1,0.8,1.4,0.1,1.8,0.9c0.8,0,1.1,0.3,0.9,0.8
			c0,0.4-0.2,0.6-0.6,0.7c-0.2,0-0.4,0-0.6,0.1c-0.9,0-1,0.6-0.4,1.8c-0.2,1.4,0.1,3.2,0.2,4.6c8-1.1,15.8-2.2,23.9-2.7
			c3.8-0.2,7.6-0.2,11.5-0.5c4.2-0.3,8.8,0.4,12.9-0.4c2.2-0.4,2-0.4,1.8-3.2c-0.1-1.7-0.1-3.8-1.5-5.1c-2.4-2.1-7.7-0.9-10.5-0.8
			C340.3,278.1,331.7,278.9,323.3,280.2 M328,321c12.1-1.1,24.2-3.5,36.4-3.5c-0.9-0.9-2.7-1.1-3.8-1.6c-1.2-0.5-2.4-1.7-3.6-2.1
			c-2.4-0.9-4.8,0.4-7.3,0.9c-6,1.4-12.1,1.4-18,2.7c-6.2,1.4-12.4,2.7-18.7,3.4c-3,0.3-6.2,1-9.1,0.2c-0.2-0.2-0.5-0.3-0.7-0.5
			c-0.3-1.1-1-1.4-2.1-0.9c-1.5-0.3-3.4,0.1-4.9,0.1c-0.1,0.6,5.5,2.5,6.5,2.9c2.6,1.1,4.3,1.9,7,1.5
			C315.7,323.1,321.8,321.8,328,321 M285.3,285.5c0.5,1.8,2.5,1,4.2,1.2c2.3,0.3,4.6,1.1,6.8,1.7c4,1.1,8.1,2.2,12.1,3.3
			c-0.2-1.6,0.2-5.3-0.7-6.8c-0.9-1.5-5.2-2.2-7.2-2.6c-5-1.2-10.4-0.5-15.5-0.3C285.2,283.2,285.2,284.3,285.3,285.5 M333.5,297.1
			c4.8-0.4,9.5-0.7,14.3-0.9c5.5-0.2,1.5-1.1,1.4-4.4c-7.2,1.1-14.4,1.4-21.6,2.4c-5.9,0.8-13,2.9-19.1,1.8c-2.9-0.5-5.8-0.7-8.8-1
			c-2.9-0.3-5.6-1.6-8.4-2c-3.2-0.4-6.4,1.4-9.6,1.9c-1.3,0.2-1.7,1.1-2.3-0.5c-0.7-1.7,1.2-3,2-4c0.9-1.2,0.5,0.7,1-1.1
			c0.1-0.5-0.2-1.8-0.3-2.3c-0.2-1.4-0.6-2.9-0.7-4.3c-0.1-1.3-0.1-3.2,1.3-4c0.8-0.5,1.4,0.2,2.2,0.1c5.8-1,12.5-1.1,18.4-0.1
			c6.3,1,11.8-1.7,18-2.8c7.3-1.3,14.7-1.5,22.1-2.1c6.3-0.5,17.8-2.9,20.2,5.1c0.7,2.3,1.7,8.6-0.2,10.5c-2.4,2.6-8,1.7-11.1,2.4
			c0.5,1.3,1.8,2.2,1.4,3.8c4.4,0.2,5.1,4.3,5.8,8.2c0.7,4-0.7,5.6,3.1,7.6c5.3,2.9,10.9,5.8,10.8,12.7c-0.1,3.5-0.4,8.7-4,10.4
			c-3.5,1.8-9.1,1.5-12.9,2.1c-7.4,1.2-14.8,2.7-22.3,3.4c-7.9,0.8-16,1.4-23.9,1.8c-4.3,0.2-8.1,0.8-12.2-0.6s-8.1-2.5-12.4-3.5
			c-4.2-1-17-2.5-13.3-9.6c0.6-1.1,2.6-2.1,3-3.1c0.5-1.7-1.3-3.1-1.2-4.7c0.1-2.9,3.4-3.2,5.6-3.2c-3.9-2.4,1.3-5.3,1.3-7.3
			c-0.1-3.6-4.5-5.9-4.8-9c-0.6-7.4,22.7,0.3,26.3,1.9c-2.8,4.1-15.6,0.6-19.4-0.1c0.5,1.4,1,2.6,1.2,4c0.1,1.1-0.3,2.4,0.1,3.6
			c0.6,1.8,0.6,1.5,2.8,2c1.7,0.4,3.3,0.8,4.9,1.2c2.5,0.6,6.5,2.2,9,2.1c2.2-0.1,1.8,0.6,2.2-1.8c0.2-1.3-0.2-2.7-0.4-4
			c-0.5-2.7-1.1-5.2,1.2-7.2c2.2-1.8,7-2.7,9.7-3.4C320.2,297.3,327.3,297,333.5,297.1"/>
		<path class="st1" d="M362.6,251.1c-6.6-1.1-13.4-1.4-20.1-1c0.4,1.7,0.7,3.3,1.1,5C349.9,253.4,356.3,252.5,362.6,251.1
			L362.6,251.1z M308.7,264c-2.7-0.2-0.8,1-0.2,2.7c0.8,2.1,0.6,4.8,0.8,7.1c7.8-3,16.8-4.7,25.1-5.7c3.9-0.5,7.9-0.6,11.8-0.8
			c1.2-0.1,5.4,0.4,6.2-0.4c0.6-0.6,0.2-3.8-0.4-4.5c-3.3-3.9-16.1-0.5-20.7-0.2C323.8,262.8,316.3,264.2,308.7,264L308.7,264z
			 M319.7,253.6c6.9,0.7,13.5,0.6,20.4,1.6c-0.5-4.4,0.1-5.5-4.9-5.7c-4.4-0.2-8.8-0.4-13.2-0.4c-9.9,0-19.8-0.2-29.7-0.2v4.4
			C301.5,252.5,310.5,254.2,319.7,253.6L319.7,253.6z M286.6,270c4.3,0,8.5,1.6,12.8,2c2.6,0.3,1.8,0.6,3.6,1.9c2.8,2,3.6,1,3.3-1.8
			c-1.2-9.4-13-7.3-19.9-7.8c0.4,2.2-0.6,4.1-2.1,5.7L286.6,270L286.6,270z M333.6,258c-6.3,0.1-12.5,0.5-18.7,0.3
			c-2.8-0.1-6.4-0.6-9.1-0.1c-2,0.3-3.7,1.4-5.9,1.7c3.2,1.7,4.8,0.6,8.2,0.2c3.4-0.4,6.8-0.4,10.2-0.6c5.6-0.3,11.5-1.7,17-1.3
			C335.4,257.4,334.8,257.3,333.6,258L333.6,258z M284,278.2c-2.9,0,1.1-3.3,1.6-3.6c-3.2,0-3.9-1.9-3-5c0.9-2.9,1.5-2-0.7-4.4
			c-1.6-1.8-1.9-3.1,0-5.2c2-2.1,6-1.5,7.7-3.2c3-2.9-0.9-8.6,3.3-10.9c2.8-1.5,7.3-1.3,10.3-1.6s6-0.4,9-0.4
			c6.5-0.1,13.3,1,19.8,1.6c2.4,0.2,5,1.2,7.4,1.2s4.9-0.5,7.3-0.5c2.9,0.1,5.6-0.1,8.5,0.3c2.3,0.4,7.5,0.5,9.2,2.2
			c5.7,5.6-7.9,8.1-10.2,8.8c2.4,2.6,2.3,6.1,1.9,9.4c1.1,0,3.1-0.5,3.7,0.8c0.7,1.6-2,2-2.6,2.2c-3.7,1.1-8,0.8-11.8,1.2
			c-7.6,0.8-15,1.2-22.5,2.6c-3.6,0.7-7.3,1.6-10.9,2.2c-0.6,0.1-1.3,0.2-1.9,0.3c-1-0.1-1.3,0.5-0.9,1.8c-1,0.5-4.8-0.7-6-0.9
			C296.6,276.2,290.6,276.6,284,278.2L284,278.2z"/>
		<path class="st1" d="M418.9,343.1c-4.3,3.4-8.3,6.6-13,9.5C409.2,352.6,420.2,347.3,418.9,343.1 M417.2,337.6
			c-2.4-2-4.7-1.8-7.6-2.4c-2.7-0.6-5.3-1.5-8-2.2c-2.1-0.5-4.2-1.2-6.3-1.7c-3-0.7-3.2,0.1-6,1.6c-9.6,5.5-20.4,9.3-30.6,13.7
			c3,2.6,9.7,2.7,13.4,3.6c2.7,0.6,5.3,1.4,7.9,2.4c2.4,0.9,6.3,3,8.9,3c2.2,0.1,3.9-2.1,5.8-3.2c2.4-1.5,4.9-3,7.3-4.5
			C407.4,344.9,412.3,341.1,417.2,337.6 M373.7,359.8c-1.1-1.1-4.5-1-5.9-1.3c-2.7-0.6-5.5-1.3-8.2-1.8c-4.5-0.8-11.7-1.1-12.1-7
			c-0.4-4.9,5.5-6,8.9-7.7c5.2-2.5,10.5-4.8,15.8-7c5-2.1,10-3.8,15.1-5.6c1-0.3,1.8-0.3,2.6-1.1c0.6-0.6,0.4-1.8,1.1-2.5
			c1.6-1.5,3.7-0.7,5.6-0.3c4.4,0.9,8.9,2,13,3.6c4.3,1.7,8.2,2,9.2,6.9c2.2-1,3.9-1.2,3.6,1.9c-0.1,0.9-0.7,1.9-0.9,2.8
			c-0.2,1.4,0.2,2.8-0.1,4.2c-0.8,5-7.5,8.6-11.7,10.6c-5.1,2.4-11.7,5.9-17.4,6.4C386.3,362.4,379.7,360.1,373.7,359.8"/>
		<path class="st1" d="M296.3,277.6c-1.8,0-3.6,0-5.4,0C292.7,277.3,294.5,277.3,296.3,277.6"/>
		<path class="st1" d="M190.3,85.9c-0.5,0.9-1.1,1.8-1.6,2.7C188.9,87.4,189.3,86.4,190.3,85.9"/>
		<path class="st1" d="M296.3,303.6c1.1,0,2.2,0,3.3,0C298.5,303.6,297.4,303.6,296.3,303.6"/>
		<path class="st1" d="M321.3,244.4c-1.3-0.1-2.5-0.1-3.8-0.2C318.8,244.3,320.1,244.4,321.3,244.4"/>
		<path class="st1" d="M299.6,277.6c-1.1,0-2.2,0-3.3,0C297.4,277.3,298.5,277.3,299.6,277.6"/>
		<path class="st1" d="M342.8,123.4c0-1.1-0.1-2.2-0.1-3.3C342.8,121.2,342.8,122.3,342.8,123.4"/>
		<path class="st1" d="M158,287.5c0-0.9,0-1.8-0.1-2.7C158,285.7,158,286.6,158,287.5"/>
		<path class="st1" d="M187.6,243.2c0.7,0,1.5,0,2.2,0C189.1,243.2,188.3,243.2,187.6,243.2"/>
		<path class="st1" d="M284.9,48c-0.9,0.1-1.8,0.1-2.7,0.2C283.1,48.1,284,48.1,284.9,48"/>
		<path class="st1" d="M353.4,246.5c-1.1,0-2.2,0-3.3,0C351.2,246.5,352.3,246.5,353.4,246.5"/>
		<path class="st1" d="M261.9,313.6c0-0.7-0.1-1.5-0.1-2.2C261.8,312.2,261.8,312.9,261.9,313.6"/>
		<path class="st1" d="M262.9,285.9c0-0.7,0-1.5-0.1-2.2C262.9,284.5,262.9,285.2,262.9,285.9"/>
		<path class="st1" d="M244.4,298.4c0,0.7,0.1,1.5,0.1,2.2C244.4,299.9,244.4,299.1,244.4,298.4"/>
		<path class="st1" d="M192,242.7c0.5,0,1.1,0,1.6,0C193,242.7,192.5,242.7,192,242.7"/>
		<path class="st1" d="M349.6,271c0.5,0,1.1,0,1.6-0.1C350.7,271,350.1,271,349.6,271"/>
		<path class="st1" d="M245.5,315.8c0,0.7,0.1,1.5,0.1,2.2C245.5,317.3,245.5,316.5,245.5,315.8"/>
		<path class="st1" d="M303.7,312c0,0.7-0.1,1.5-0.1,2.2C303.6,313.5,303.7,312.7,303.7,312"/>
		<path class="st1" d="M241.1-11.9c-0.8-0.1-1.5-0.2-2.3-0.3C239.5-12,240.4-12.6,241.1-11.9"/>
		<path class="st1" d="M208,266.9c0,0.7,0,1.5-0.1,2.2C208,268.3,208,267.6,208,266.9"/>
		<path class="st1" d="M161.3,333.2c0-0.7-0.1-1.5-0.1-2.2C161.2,331.8,161.3,332.5,161.3,333.2"/>
		<path class="st1" d="M337.1,272.1c0.5,0,1.1,0,1.6,0C338.2,272,337.6,272.1,337.1,272.1"/>
		<path class="st1" d="M152.6,140.2c0,0.7,0,1.5,0,2.2C152.6,141.7,152.6,141,152.6,140.2"/>
		<path class="st1" d="M141.1,303.3c0,0.7,0,1.5,0,2.2C141.1,304.8,141.1,304,141.1,303.3"/>
		<path class="st1" d="M276.6,299c0,0.7,0,1.5-0.1,2.2C276.3,300.4,276.3,299.7,276.6,299"/>
		<path class="st1" d="M175.1,243.8c0.5,0,1.1,0,1.6,0C176.2,243.8,175.7,243.8,175.1,243.8"/>
		<path class="st1" d="M262.4,295.7c0-0.7,0-1.5,0-2.2C262.4,294.3,262.4,295,262.4,295.7"/>
		<path class="st1" d="M373.5,360.1c0.5,0,1.1,0,1.6,0C374.6,360.1,374.1,360.1,373.5,360.1"/>
		<path class="st1" d="M353.9,291.1c0.4,0,0.7,0,1.1,0C354.7,291.1,354.3,291.1,353.9,291.1"/>
		<path class="st1" d="M340.4,292.7c0.4,0,0.7,0,1.1,0C341.1,292.7,340.7,292.7,340.4,292.7"/>
		<path class="st1" d="M128.7,296.2c0-0.5,0-1.1-0.1-1.6C128.6,295.2,128.7,295.7,128.7,296.2"/>
		<path class="st1" d="M351.2,295.8c-0.5,0.5-1.1,0.2-1.6,0.2C350.1,296,350.7,295.9,351.2,295.8"/>
		<path class="st1" d="M286.5,278.4c-0.7,0.3-1.4,0.4-2.2,0C285.1,278.5,285.8,278.4,286.5,278.4"/>
		<path class="st1" d="M333.8,297.1c-0.7,0-1.4,0-2.2,0C332.4,297.1,333.1,297.1,333.8,297.1"/>
		<path class="st1" d="M303.4,278.1c-0.7-0.1-1.5-0.1-2.2-0.2C301.9,278,302.7,278.1,303.4,278.1"/>
		<path class="st1" d="M137.4,275.6c0,0.5,0,1.1,0,1.6C137.3,276.7,137.3,276.1,137.4,275.6"/>
		<path class="st1" d="M262.3,304.9c0-0.5,0.1-1.1,0.1-1.6C262.4,303.9,262.3,304.4,262.3,304.9"/>
		<path class="st1" d="M337.1,273.6c-0.7,0.1-1.4,0.1-2.2,0.2C335.6,273.7,336.4,273.7,337.1,273.6"/>
		<path class="st1" d="M158,271.8c0-0.5,0-1.1,0-1.6C158,270.7,158,271.2,158,271.8"/>
		<path class="st1" d="M248.8,229.9c0,0.5-0.1,1.1-0.1,1.6C248.7,231,248.8,230.5,248.8,229.9"/>
		<path class="st1" d="M348,246.4c-0.7,0.4-1.5,0.3-2.2,0C346.5,246.4,347.2,246.4,348,246.4"/>
		<path class="st1" d="M261.9,321.8c0-0.5-0.1-1.1-0.1-1.6C261.8,320.7,261.8,321.2,261.9,321.8"/>
		<path class="st1" d="M261.8,326.1c0-0.5,0-1.1-0.1-1.6C261.8,325.1,261.8,325.6,261.8,326.1"/>
		<path class="st1" d="M159.1,254.4c0-0.5,0-1.1,0-1.6C159.1,253.3,159.1,253.8,159.1,254.4"/>
		<path class="st1" d="M313.7,341.1c0.4,0,0.7,0,1.1,0C314.4,341.1,314.1,341.1,313.7,341.1"/>
		<path class="st1" d="M138.5,345.7c0-0.5-0.1-1.1-0.1-1.6C138.4,344.6,138.4,345.2,138.5,345.7"/>
		<path class="st1" d="M256.1,350.3c0.4,0,0.7,0,1.1,0C256.8,350.3,256.5,350.3,256.1,350.3"/>
		<path class="st1" d="M334.9,246c-0.7-0.1-1.4-0.1-2.2-0.2C333.5,245.9,334.2,246,334.9,246"/>
		<path class="st1" d="M338.7,246.6l-1.6-0.2L338.7,246.6z"/>
		<path class="st1" d="M256.3,303.9c0-1.6,0.1-3.3,0.1-4.9C256.4,300.6,256.4,302.2,256.3,303.9"/>
		<path class="st1" d="M214,244.1c0,1.3,0,2.5,0.1,3.8C214,246.6,214,245.3,214,244.1"/>
		<path class="st1" d="M120.2,323.7c-0.9,0-1.8,0-2.7,0C118.4,323.7,119.3,323.7,120.2,323.7"/>
		<path class="st1" d="M194.7,215.5c-0.9,0-1.8,0-2.7,0C192.9,215.5,193.8,215.5,194.7,215.5"/>
		<path class="st1" d="M171.3,236.7c0.9,0,1.8,0,2.7,0C173.1,236.7,172.2,236.7,171.3,236.7"/>
		<path class="st1" d="M183.3,215c-0.7,0-1.5,0-2.2,0C181.8,215,182.5,215,183.3,215"/>
		<path class="st1" d="M124.6,323.7c-0.7,0-1.5,0-2.2,0C123.1,323.7,123.8,323.7,124.6,323.7"/>
		<path class="st1" d="M222.4,46c0.9-0.1,1.8-0.1,2.7-0.2C224.2,45.9,223.3,46,222.4,46"/>
		<path class="st1" d="M234.6,109.8c0-0.9,0.1-1.8,0.1-2.7C234.7,108,234.6,108.9,234.6,109.8"/>
		<path class="st1" d="M212.6,118.2c-0.5,0-1.1,0-1.6,0C211.5,118.2,212.1,118.2,212.6,118.2"/>
		<path class="st1" d="M166.4,213.3c-0.5,0-1.1,0-1.6,0C165.3,213.4,165.9,213.3,166.4,213.3"/>
		<path class="st1" d="M153.9,235.5c0.7,0.1,1.4,0.1,2.2,0.2C155.4,235.7,154.6,235.6,153.9,235.5"/>
		<path class="st1" d="M152.5,263.1c0-0.7,0-1.5,0-2.2C152.6,261.6,152.6,262.4,152.5,263.1"/>
		<path class="st1" d="M214.8,234.1c0.7-0.1,1.4-0.1,2.2-0.2C216.2,234,215.5,234,214.8,234.1"/>
		<path class="st1" d="M264.5,221.2c0-0.7,0.1-1.5,0.1-2.2C264.6,219.8,264.5,220.5,264.5,221.2"/>
		<path class="st1" d="M274,121c0.7-0.1,1.4-0.1,2.2-0.2C275.5,120.9,274.8,121,274,121"/>
		<path class="st1" d="M200.1,216.1c-0.5,0-1.1,0-1.6,0C199,216.1,199.6,216.1,200.1,216.1"/>
		<path class="st1" d="M152.6,303.9c0-0.5-0.1-1.1-0.1-1.6C152.5,302.8,152.6,303.3,152.6,303.9"/>
		<path class="st1" d="M213.5,276.1c1.2,2.9,0.5,0.9,0.6,1.5C213.1,277.8,212.9,277.3,213.5,276.1"/>
		<path class="st1" d="M163.7,213.4c-0.5,0-1.1,0-1.6-0.1C162.6,213.3,163.2,213.4,163.7,213.4"/>
		<path class="st1" d="M274.8,158.2c0-0.7,0.1-1.4,0.1-2.2C274.9,156.7,274.8,157.5,274.8,158.2"/>
		<path class="st1" d="M152.6,298.4c0-0.7,0-1.4,0-2.2C152.6,297,152.6,297.7,152.6,298.4"/>
		<path class="st1" d="M152.5,282.1c0-0.5,0.1-1.1,0.1-1.6C152.6,281,152.5,281.6,152.5,282.1"/>
		<path class="st1" d="M265.5,210.9c0.1-0.5,0.1-1.1,0.2-1.6C265.6,209.8,265.6,210.4,265.5,210.9"/>
		<path class="st1" d="M145.4,283.7c0,0.5,0.1,1.1,0.1,1.6C145.5,284.8,145.5,284.3,145.4,283.7"/>
		<path class="st1" d="M144.3,279.4c0.1,0.5,0.1,1.1,0.2,1.6C144.4,280.5,144.4,279.9,144.3,279.4"/>
		<path class="st1" d="M253.1,204.9c0-0.5,0.1-1.1,0.1-1.6C253.1,203.8,253.1,204.4,253.1,204.9"/>
		<path class="st1" d="M-24.4,278.7c0.7-0.1,1.4-0.1,2.2-0.2C-22.9,278.5-23.6,278.6-24.4,278.7"/>
		<path class="st1" d="M248.3,291.9c0,0.5,0,1.1-0.1,1.6C248.2,293,248.2,292.4,248.3,291.9"/>
		<path class="st1" d="M256.9,293.5c0-0.5,0.1-1.1,0.1-1.6C256.9,292.4,256.9,293,256.9,293.5"/>
		<path class="st1" d="M253.6,202.7c0.1-0.5,0.1-1.1,0.2-1.6C253.7,201.7,253.6,202.2,253.6,202.7"/>
		<path class="st1" d="M-20,278.1c0.7-0.1,1.5-0.1,2.2-0.2C-18.6,278-19.3,278.1-20,278.1"/>
		<path class="st1" d="M210.4,215.5c-0.4,0-0.7,0-1.1,0C209.7,215.5,210.1,215.5,210.4,215.5"/>
		<path class="st1" d="M152.6,277.2c0-0.5,0-1.1,0-1.6C152.6,276.1,152.6,276.7,152.6,277.2"/>
		<path class="st1" d="M258,276.1c-0.2-0.6-0.3-1.1,0.1-1.6C258.1,275,258.1,275.6,258,276.1"/>
		<path class="st1" d="M248.8,265.8c0,0.5,0,1.1,0,1.6C248.8,266.9,248.8,266.3,248.8,265.8"/>
		<path class="st1" d="M249.3,319.6c0,0.5,0.1,1.1,0.1,1.6C249.3,320.7,249.3,320.2,249.3,319.6"/>
		<path class="st1" d="M289.3,121.9c0.5,0.1,1.1,0.2,1.6,0.2C290.3,122.1,289.8,122,289.3,121.9"/>
		<path class="st1" d="M287.1,122c0.7,0,1.5-0.3,2.2,0.2L287.1,122z"/>
		<path class="st1" d="M194.1,236.7c0.7,0,1.5,0,2.2,0C195.6,236.7,194.9,236.7,194.1,236.7"/>
		<path class="st1" d="M210.4,121.4l2.2,0.2C211.9,121.5,211.2,121.5,210.4,121.4"/>
		<path class="st1" d="M174.6,236.6c0.7,0,1.4,0,2.2,0C176,236.9,175.3,237,174.6,236.6"/>
		<path class="st1" d="M154.8,327.8c0-0.5-0.1-1.1-0.1-1.6C154.7,326.7,154.8,327.2,154.8,327.8"/>
		<path class="st1" d="M234.1,122.3c0-0.5,0-1.1,0-1.6C234.1,121.2,234.1,121.8,234.1,122.3"/>
		<path class="st1" d="M188.2,236.8c0.7-0.1,1.4-0.1,2.2-0.2C189.6,236.7,188.9,236.8,188.2,236.8"/>
		<path class="st1" d="M249.8,332.7c0,0.5,0,1.1,0,1.6C249.9,333.7,249.8,333.2,249.8,332.7"/>
		<path class="st1" d="M251.8,108.5c0.7-0.1,1.4-0.1,2.2-0.2C253.2,108.4,252.5,108.5,251.8,108.5"/>
		<path class="st1" d="M261.2,247.3c0-0.5,0.1-1.1,0.1-1.6C261.3,246.2,261.2,246.8,261.2,247.3"/>
		<path class="st1" d="M286.2,102.2c0-0.5,0.1-1.1,0.1-1.6C286.3,101.1,286.3,101.6,286.2,102.2"/>
		<path class="st1" d="M234.6,55.4c0,0.5,0,1.1,0,1.6C234.6,56.5,234.6,56,234.6,55.4"/>
		<path class="st1" d="M215.3,45.3c0.7,0.1,1.5,0.1,2.2,0.2C216.8,45.4,216.1,45.4,215.3,45.3"/>
		<path class="st1" d="M106.6,354.2c0.7-0.1,1.4-0.1,2.2-0.2C108.1,354.1,107.4,354.2,106.6,354.2"/>
		<path class="st1" d="M216.4,40c-0.4,0-0.7,0-1.1,0C215.7,40,216.1,40,216.4,40"/>
		<path class="st1" d="M82.7,361.3c0.7-0.4,1.4-0.3,2.2,0C84.2,361.3,83.4,361.3,82.7,361.3"/>
		<path class="st1" d="M364.8,329.8c1.3-0.1,2.5-0.1,3.8-0.2C367.4,329.6,366.1,329.7,364.8,329.8"/>
		<path class="st1" d="M364.8,320.4c-0.7,0-1.5,0-2.2,0C363.4,320.4,364.1,320.4,364.8,320.4"/>
		<path class="st1" d="M353.9,309.6c0.9-0.1,1.8-0.1,2.7-0.2C355.8,309.9,354.9,309.6,353.9,309.6"/>
		<path class="st1" d="M343.6,310.7c0.9-0.1,1.8-0.1,2.7-0.2C345.4,310.6,344.5,310.7,343.6,310.7"/>
		<path class="st1" d="M328.4,320.5c0.7-0.1,1.4-0.1,2.2-0.2C329.8,320.4,329.1,320.5,328.4,320.5"/>
		<path class="st1" d="M332.2,320.5c0.7-0.1,1.4-0.1,2.2-0.2C333.7,320.4,332.9,320.5,332.2,320.5"/>
		<path class="st1" d="M334.9,320c0.7-0.1,1.4-0.1,2.2-0.2C336.4,319.9,335.6,319.9,334.9,320"/>
		<path class="st1" d="M338.7,301.4c-0.5,0-1.1,0-1.6,0C337.6,301.4,338.2,301.4,338.7,301.4"/>
		<path class="st1" d="M352.3,331.3c0.7-0.1,1.4-0.1,2.2-0.2C353.8,331.6,353,331.4,352.3,331.3"/>
		<path class="st1" d="M331.7,287.9c0.7-0.1,1.4-0.1,2.2-0.2C333.1,287.8,332.4,287.9,331.7,287.9"/>
		<path class="st1" d="M328.9,279.1c-0.5,0-1.1,0-1.6,0C327.9,279.1,328.4,279.1,328.9,279.1"/>
		<path class="st1" d="M323.5,280.2c-0.4,0-0.7,0-1.1,0C322.8,280.2,323.1,280.2,323.5,280.2"/>
		<path class="st1" d="M310.5,281.7c-0.2,0.4-1.1,0.4-1.1-0.1C309.7,281.7,310.1,281.7,310.5,281.7"/>
		<path class="st1" d="M285.2,283.7c0,0.5,0,1.1,0.1,1.6C285.2,284.8,285.2,284.3,285.2,283.7"/>
		<path class="st1" d="M359.4,286.6c0.5,0,1.1,0,1.6,0C360.5,287,359.9,286.9,359.4,286.6"/>
		<path class="st1" d="M338.7,278.6c-0.4,0-0.7,0-1.1,0C338,278.6,338.4,278.6,338.7,278.6"/>
		<path class="st1" d="M324.6,312.9c0.7-0.1,1.5-0.1,2.2-0.2C326,312.8,325.3,312.9,324.6,312.9"/>
		<path class="st1" d="M315.9,314l2.2-0.2L315.9,314z"/>
		<path class="st1" d="M358.3,330.3c0.7-0.1,1.4-0.1,2.2-0.2C359.7,330.2,359,330.2,358.3,330.3"/>
		<path class="st1" d="M332.2,333.6c0.7-0.3,1.5-0.4,2.2,0C333.7,333.6,332.9,333.6,332.2,333.6"/>
		<path class="st1" d="M331.1,258.7l-1-0.4c1.3,0,2.5,0,3.8,0C333.8,258.3,331.2,258.7,331.1,258.7"/>
		<path class="st1" d="M321.3,249.2c-0.9,0-1.8,0-2.7,0C319.5,249.2,320.4,249.2,321.3,249.2"/>
		<path class="st1" d="M287.1,270c0.9-0.4,1.8-0.3,2.7,0C288.9,270,288,270,287.1,270"/>
		<path class="st1" d="M342,261.2c-0.5,0-1.1,0-1.6,0C340.9,261.2,341.4,261.2,342,261.2"/>
		<path class="st1" d="M330.6,254c0.9,0.1,1.8,0.1,2.7,0.2C332.4,254.1,331.5,254.1,330.6,254"/>
		<path class="st1" d="M319.2,259.6c0.9-0.1,1.8-0.1,2.7-0.2C321,259.5,320.1,259.6,319.2,259.6"/>
		<path class="st1" d="M326.2,258.6c0.7-0.1,1.4-0.1,2.2-0.2C327.7,258.4,326.9,258.5,326.2,258.6"/>
		<path class="st1" d="M320.2,253.5c0.7,0.1,1.4,0.1,2.2,0.2C321.7,253.6,321,253.5,320.2,253.5"/>
		<path class="st1" d="M309.9,263.9c-0.4,0-0.7,0-1.1,0C309.2,263.9,309.6,263.9,309.9,263.9"/>
		<path class="st1" d="M321.3,258.5c-0.4,0-0.7,0-1.1-0.1C320.6,258.5,321,258.5,321.3,258.5"/>
		<path class="st1" d="M314.3,258.5c-0.4,0-0.7,0-1.1,0C313.5,258.5,313.9,258.5,314.3,258.5"/>
		<path class="st1" d="M333.8,258c0,0.1,1.6-0.6,1.6,0.1L333.8,258z"/>
		<path class="st1" d="M327.9,249.2c-0.4,0-0.7,0-1.1,0C327.1,249.2,327.5,249.2,327.9,249.2"/>
		<path class="st1" d="M134.9,223.4c0.6-2.4,0.4-4.3,2.5-2.7c1.2,0.8,3,5.1,2.9,6.6c-0.2,1.8-1,2.5-2.7,1.9
			C135.7,228.5,134.9,225.2,134.9,223.4"/>
		<path class="st1" d="M240.8,208.9c4.9,0,2.7,5.2-1.3,5.3c-1.9,0.1-4.5-0.3-3.9-2.8C235.9,210,240.6,208.2,240.8,208.9"/>
		<path class="st1" d="M188.6,219.1c3.5,1.7-1.4,9.2-4.6,7.3C179.9,224,187.1,220.1,188.6,219.1"/>
		<path class="st1" d="M180,226.1c1.2,1.3,6.3,5.5,3.5,7.2C180,235.4,177.3,228.5,180,226.1"/>
		<path class="st1" d="M121.1,222.9c-1.1-2.2,0.4-8,3.9-6.9C128.6,217,123.1,222.3,121.1,222.9"/>
		<path class="st1" d="M198.7,224.1c2.3-0.9,1.8,1.8,2.2,2.7c0.4,1,2.4,3.4,1.9,4.5c-0.7,1.6-2.5,0.6-3.5-0.5
			C197.6,229,197.7,226.2,198.7,224.1"/>
		<path class="st1" d="M163.9,226.7c-1.9,0-6.4-5.5-3.8-6.4C163.5,219.1,166.2,227.1,163.9,226.7"/>
		<path class="st1" d="M229.6,218c1.7,0.4,4,5.4,1.4,5.9C228.1,224.5,227.6,219.3,229.6,218"/>
		<path class="st1" d="M219,227.2c-1.4-2.6-1.7-8.3,1.6-3.7c0.7,1,1.5,0.6,1.1,2.2C221.4,227.1,220.1,227.2,219,227.2"/>
		<path class="st1" d="M147.2,213.6c1.4,2.1,1,8.7-1.9,4.8C144,216.7,144.9,213.7,147.2,213.6"/>
		<path class="st1" d="M217.1,16.4c2.7-0.7,3.3,5.7,1.8,6.4C216.6,23.7,216.9,17.4,217.1,16.4"/>
		<path class="st1" d="M387.7,339.5c-2.5-0.1-6-0.8-2.2-2.6c2.4-1.1,6-1.2,8.5-0.7c1.8,0.3,4.4,1.8,1.7,3.7
			C394.2,340.9,389.6,339.6,387.7,339.5"/>
		<path class="st1" d="M384.9,344.1c-0.7-0.1-1.4-0.2-2.2-0.2C383.3,342.8,385,342.6,384.9,344.1"/>
		<path class="st1" d="M388.2,339.4c0.7,0,1.5,0,2.2,0C389.6,339.5,388.9,339.4,388.2,339.4"/>
	</g>
</g>
<g id="Character_x2F_zombieing_1_">
	<g id="Ink_3_" transform="translate(160.999594, 54.000301)">
		<path id="Fill-5_1_" class="st1" d="M-68.1-0.3c4.2,2.9,9,5,13.4,7.7c1.1,0.7,4.5,2.1,4.5,3.3c0,0.7-1,1.6-1.5,2.1
			c-0.8,0.9-1.5,1.7-2.2,2.6c-3.3,4.2-6.3,8.4-9.8,12.4c-0.5,0.6-2.1,3.4-2.6,2c-0.2-0.7,0-1.4-0.7-2c-0.3-0.3-1.5-0.5-1.2-1.1
			c0.2,0.1,0.5,0.2,0.7,0.3c-0.2-0.5-0.2-1.1-0.5-1.6c-0.2-0.3-0.5-0.5-0.6-0.8c-0.2-0.5,0.1-1,0.1-1.5s-0.3-1-0.5-1.4
			c-0.9-2.8-1.2-5.5-1.7-8.4c-0.5-2.8-1.2-5.6-1.5-8.4c-0.3-3-0.7-6-1.1-9c0.9,0.1,1.5,1.1,2.1,1.6C-70.1-1.8-69.1-1.1-68.1-0.3
			 M-71.3,28.9c-0.2-0.2-0.3-0.3-0.5-0.6C-69.8,27.3-71,29.1-71.3,28.9 M-72.6,26.8c-0.9,0.2-1.5,0.3-2.2-0.1c-0.1,0,0-0.3-0.1-0.3
			s-0.3,0-0.3,0c-0.3-0.2-0.8,0.2-0.9-0.4c1.1-0.3,2.3-1,3.4-1.1C-71,24.6-71.1,26.4-72.6,26.8 M-76.5,23.4c-1.2,0.3-2.2,1-3.5,0.8
			c-1.2-0.2-2.3-0.8-3.2-1.5c2.4-0.7,4.9-0.8,7.3-1.5c0.8-0.2,1.8-0.8,2.6-0.5c0.9,0.3,1,1.1,1.3,1.9C-73.5,22.8-75,23.1-76.5,23.4
			 M-84.1,20c-1.2,0.3-2.4,0.9-3.3-0.2c-0.2-0.2-0.3,0-0.3-0.5s0.5-0.9,1-1.1c1-0.5,2.4-0.2,3.5-0.2c1.7-0.1,3.5-0.5,5.2-0.7
			c1.2-0.2,2.4-0.6,3.6-0.5c0.9,0.1,2.1,0.8,0.7,1.4c-1.2,0.5-3.1,0.5-4.4,0.7C-80.2,19.2-82.1,19.6-84.1,20 M-85.2,14.5
			c0.1,0.1,0.2,0.2,0.2,0.2s0.5-0.4,0.6-0.4c0.6,0,1.2,0,1.8,0c1.4-0.1,2.8-0.3,4.1-0.6c1.1-0.2,2.2-0.6,3.3-0.5
			c1,0.1,1.1,0.3,1.1,1.2c-2.5,0-5.1,0-7.5,0.5c-1.6,0.3-3.4,1.4-4.1-0.5C-85.6,14.5-85.4,14.5-85.2,14.5 M-83.7,10.5
			c0.6,0.5,2.3-0.3,3-0.4c0.8-0.1,1.6-0.2,2.3-0.4c0.7-0.2,3-1.1,3.5-0.2c0.8,1.3-2.5,1.5-3,1.6c-2.2,0.3-4.4,0.5-6.6,1.1
			C-84.1,11.7-83.9,11.1-83.7,10.5 M-80.7,6.1c0.2,0.6,5.1-1.6,5.2,0c0.1,1.2-4.9,1.8-5.8,1.8C-81.1,7.3-80.5,6.8-80.7,6.1 M-79,2.3
			c0.1-1.2,0.3-1.2,1.2-1.3c0.7-0.1,1.8-0.5,1.6,0.8C-76.4,2.9-79.1,3.6-79,2.3 M-77.3-1.8c0.2-0.7,0.8,0.2,0.8,0.6
			c0,0.9-0.7,0.7-1.3,0.7C-77.6-1-77.4-1.4-77.3-1.8 M-69.1-6.7C-69.3-6.9-70-7-70.2-7c-0.5-0.2-0.5-0.6-1.1-0.2v-0.3
			c0,0-0.5-0.2-0.6-0.3c-0.3-0.2-0.7-0.5-1-0.8s-0.7-0.8-1.1-1c-0.2-0.1-0.3-0.3-0.5-0.3c-0.5-0.1-0.4,0.3-0.8,0.3
			c-0.3,0-0.5-0.3-0.9-0.2c-0.3,0.1-0.5,0.6-0.7,0.8c-0.5,1-0.9,2-1.5,3C-81-0.7-84,4.2-86.5,9.3c-1.2,2.5-2.5,5-3.4,7.6
			c-0.6,1.9-2,4.7-0.8,6.6c0.9,1.4,2.6,2,4.1,2.6c2.1,1,4.1,2.3,6.2,3.3c2.6,1.1,5,2.4,7.5,3.7c1.1,0.5,2,1.3,3.1,1.9
			c0.7,0.3,1.6-0.2,1.8,0.5c0.8-1,2.1-0.3,3.1-1c0.5-0.4,1-1.2,1.4-1.7c0.7-0.8,1.5-1.5,2.1-2.2c2.8-2.9,5.4-6,7.9-9.1
			c2.4-3,5.3-5.9,7.3-9.1c0.8-1.3,1-2.7,0.4-4.1c-0.4-1-1.3-2.6-2.7-2c0.5-0.8-1.5-1.8-2.1-1.9c0,0-0.1,0.7-0.3,0.7
			c0.1,0-0.5-1.5-0.8-1.6c-0.7-0.5-1.6-1.2-2.4-1.6c-0.7-0.4-1.5-0.6-2.2-1.1c-0.8-0.6-1.6-1.2-2.5-1.8c-0.8-0.5-1.8-1.2-2.7-1.6
			C-62.3-2.9-63-3-63.7-3.5c-0.9-0.7-1.7-1.1-2.7-1.6C-67.3-5.6-68.5-6-69.1-6.7"/>
		<path id="Fill-9_1_" class="st1" d="M-107.6,28.6c-0.2,0.5-2,0.3-2-0.2C-109.7,27.6-107.2,27.9-107.6,28.6 M-105.7,28.4
			c1,0.1,2.6,0.8,3.6,0.3c1.5-0.6-0.1-1.6-0.9-1.9s-2-0.2-2.4-1c-0.3-0.7,0.5-2.4-0.5-2.1s-0.7,2.8-2.3,2c-0.8-0.4-0.5-2.9-1.7-1.6
			c-0.3,0.3-0.4,1-0.8,1.2c-0.5,0.3-1,0-1.5,0c-1.3,0.1-1.7,1.3-0.4,1.8c0.5,0.2,2.3,0.4,1.2,1.2c-0.7,0.5-2.3-0.5-2.9,0.3
			c-0.8,1.2,1.4,1.2,2,1.6c1,0.6,0.2,2,0.3,3c0.1,1.5,1,1.2,1.3-0.1c0.3-1.1-0.1-2.7,1.6-2.3c2.7,0.7-1.5,4.2,0.5,5.1
			c1.3,0.6,1.5-2.5,1.6-3c0.4-2,1.5-1.5,3.1-1.4c1.9,0.1,2.4-1.3,0.3-1.8c-0.7-0.1-1.5,0-2.1-0.4C-106,29.1-106.5,28.3-105.7,28.4"
			/>
		<path id="Fill-16" class="st1" d="M-38.1-22.8c-0.8-0.3-1.8-0.8-2.6-0.7c-1,0.2-1.3,1.1-2,1.7c-1.8,1.5-2.9-0.8-3.9-2
			s-2.1-1.5-3.5-0.7c-0.5,0.3-2.8,1.6-2.4,2.5c0.3,0.6,1.4,0.1,1.8-0.1c0.8-0.3,1.6-0.5,2.4-0.1c1.6,0.8,2,3,3.9,3.3
			c2,0.3,2.1-1.6,3.5-2.3c1-0.5,1.6,0.4,2.6,0.2C-37.5-21.2-37.1-22.5-38.1-22.8"/>
		<path id="Fill-19" class="st1" d="M-54.3-15.2c0.7,0.2,1.2-1.2,1.6-1.6c0.7-0.6,2-0.7,2.8-0.1c1.5,1.1,1,3.6,3,4.2
			c1.9,0.6,2.7-1.9,4.3-2.5c0.9-0.3,1.9-0.6,1.6-1.9c-0.2-0.9-1-1.1-1.8-0.8c-1.3,0.6-1.8,2.9-3.4,3c-1.6,0-1.8-2.3-2.6-3.4
			c-1.1-1.6-3.3-2-4.6-0.5C-53.7-18.1-55.6-15.5-54.3-15.2"/>
	</g>
</g>
<g id="Character_x2F_zombieing">
	<g id="Ink_2_" transform="translate(160.999594, 54.000301)">
		<path id="Fill-7_1_" class="st1" d="M280.8,10.4c0.2,0.2,0.5,0.5,0.7,0.8C280.9,11.3,280.7,11.3,280.8,10.4 M279.4,10.2
			c0.1-0.4,0.9,0.1,1,0.1C279.9,10.9,279.8,10.3,279.4,10.2 M282,10.5c0.1,0.4,0,0.7,0.1,1.1c-0.4-0.6-0.1-0.3-0.6-0.3
			C281.6,10.9,281.7,10.6,282,10.5 M278.1,7c-2.7-2.3-3.8-6.8-3.8-11.2c0-2.5,0.6-4.8,1.5-7.3c0.4-0.9,1-2,1.2-2.9
			c0.2-0.7,0.2-0.7,0-1.4c0.4-0.2,0.6,0.1,1-0.3c0.5-0.5,0.3-0.9,0-1.3c0.5-0.3,0.7-0.4,1.1-0.9l0.2-0.5c0-0.1,0.5-0.6,0.6-0.7
			c0.5-0.7,0.8-1.5,1.4-2.1c0.5-0.5,1.3-0.8,1-1.6c0.9,0.3,1.9-1.3,2.6-1.9c1.2-1,2.6-1.6,3.9-1.9c1.4-0.3,2.5-0.1,3.8,0
			c0.9,0.1,2.6-0.9,3.1,0.2c-0.4,0.1-0.7-0.1-1.2,0.1c0.3,0.5,0.7,0.8,1.2,1.1c0.2,0.1,0.7,0.8,1,0.8c0.5,0,0.7-0.6,1-0.1
			c-0.9,0.6,0,1.6,0.6,1.1c-0.2-0.4-0.4-0.6-0.6-0.8c1.4-0.4,0.3,1.6,1.5,1.5c-0.2,0.8-0.2,1.4,0.3,1.9s0.8,0.4,0.9,1.2
			c0.1,0.3,0,1.1,0.2,1.4c0.4,0.4,0.7-0.2,0.9,0.5c-0.3,0.1-1.1,0.7-0.7,1.3c0.1,0.1,0.2-0.2,0.4,0.1c0.2,0.5,0.4,1,0.1,1.7
			c1.1-0.2,0,3.1,0,4c-0.1,0.9-0.2,1.7-0.4,2.6c-0.3,0.9-0.1,1,0.1,1.9c-0.5-0.1-0.5,0.1-0.8,0.6c0.1,0.2,0.1,0.3-0.1,0.4
			s-0.3,0.3-0.3,0.5c-0.1,0.3-0.2,0.6-0.3,0.9c-0.3,0.7-0.4,1.5-0.8,2.2c-0.1,0.2-0.1,0.4,0,0.6c-0.1,0-0.2,0.1-0.3,0.1
			c-0.2,0.3-0.5,0.3-0.3,0.9c-0.5,0-0.4,0.5-0.7,0.8c-0.2,0.3-0.5,0.3-0.7,0.6c-0.2,0.2-0.3,0.4-0.3,0.7c-0.2,0.2-0.4,0.4-0.7,0.6
			c-0.4,0.4-0.7,0.9-1,1.4c-0.2,0.3-0.4,0.6-0.7,0.9c-0.3-0.1-0.4,0.1-0.5,0.4c-0.3,0.2-0.3,0.4-0.8,0.6c-1,0.4-1.8,0.9-2.7,1.5
			C285.8,10,281.4,9.8,278.1,7 M289.8,12.4c2.3-1.2,5-3,6.8-4.8c0.9-0.9,2.4-2.2,3.2-3.4c0.2-0.3,0.3-0.7,0.5-0.9
			c0.1-0.2,0.3-0.3,0.5-0.6c0.1-0.2-0.2-0.3-0.1-0.5c0.2-0.4,0.6-0.6,0.9-0.8c-0.6-1,0.9-0.8,0.3-2.1c1.7-0.7,2.3-3.5,2.9-5.4
			c0.2-0.5,0.1-0.8,0.2-1.4c0.1-0.5,0.1-0.5,0.3-1c0.4-1.2,0.7-2.3,0.7-3.6c0-2.1-0.4-4.2-0.6-6.3c-0.2-2.3-0.7-4.5-1.4-6.5
			c-2.7-7.1-8.9-11-15.8-8.3c-10.9,4.2-18,22.1-15.8,34.4C274,10.6,281.6,16.6,289.8,12.4"/>
		<path id="Fill-11_1_" class="st1" d="M261.3,19.5c1-1.5,1.8-4.3,0.4-5.2c-0.6-0.4-1.4-0.3-2.1,0.2c-0.8,0.5-1.2,1.6-0.2,1.9
			c0.6,0.2,1.5-0.5,1.1,1.1c-0.2,1-1.2,2.2-2,2c-1.7-0.5-0.4-4.5,0.3-5.9c1.6-2.7,3.5-1.2,3.8,1.2c0.1,0.6,0,2.2,0.5,2.5
			c0.7,0.4,1-1,1.1-1.6c0.8-4.7-4.2-7.5-6.8-3.2c-1.2,1.9-1.7,5.1-0.8,6.8C257.7,20.8,259.9,21.6,261.3,19.5"/>
		<path id="Fill-13_1_" class="st1" d="M319.3-26.7c0-1.6,0-3.1,0-4.7c0.8-0.2,3.1-0.4,3.7-1.4c1.1-1.7-1.4-1.3-2.1-1.1
			c-0.5,0.1-1.3,0.6-1.7,0.2c-0.6-0.4-0.3-1.8-0.5-2.5c-0.2-1.9-2-2.5-2,0.1c0,1.5,0.5,3.5-1.1,4.1c-0.7,0.3-4.4,0.3-2.7,2.1
			c1.1,1.2,3.7-1.8,4.2,0.3c0.2,0.7,0,1.4,0,1.9C317.2-26.1,318.4-26.5,319.3-26.7"/>
	</g>
</g>
<path id="Fill-11" class="st1" d="M29.4,402c-3.8-1.2-6.9-4-8-8c-0.5-1.9-0.6-3.8-0.4-5.8c0.1-1.6,0.1-4,1.7-4.9
	c0.3,1.3-0.2,2.6-0.3,3.9c-0.1,1.2,0,2.5,0.2,3.6c0.4,2.1,1.2,4,2.6,5.5c2.9,3.1,8.2,4.7,12.3,3.9c0.9-0.2,3-1.5,3.8-0.7
	c0.7,0.7-0.6,1.4-1.2,1.7C36.9,402.9,32.9,403,29.4,402"/>
<path id="Fill-11_2_" class="st1" d="M24.5,416.3c-6.9-2.1-12.2-7.1-14.2-14.2c-1-3.4-1-6.8-0.7-10.4c0.2-2.8,0.2-7.1,2.9-8.8
	c0.6,2.3-0.3,4.7-0.4,7c-0.1,2.2,0,4.4,0.4,6.5c0.6,3.7,2.1,7.2,4.7,9.9c5.2,5.5,14.6,8.4,21.9,6.9c1.5-0.3,5.4-2.7,6.8-1.3
	c1.3,1.3-1.2,2.4-2.2,2.9C37.8,417.9,30.7,418.1,24.5,416.3"/>
</svg>
