<?xml version="1.0" encoding="utf-8"?>
<!-- Generator: Adobe Illustrator 24.1.0, SVG Export Plug-In . SVG Version: 6.00 Build 0)  -->
<!DOCTYPE svg PUBLIC "-//W3C//DTD SVG 1.1//EN" "http://www.w3.org/Graphics/SVG/1.1/DTD/svg11.dtd" [
	<!ENTITY ns_extend "http://ns.adobe.com/Extensibility/1.0/">
	<!ENTITY ns_ai "http://ns.adobe.com/AdobeIllustrator/10.0/">
	<!ENTITY ns_graphs "http://ns.adobe.com/Graphs/1.0/">
	<!ENTITY ns_vars "http://ns.adobe.com/Variables/1.0/">
	<!ENTITY ns_imrep "http://ns.adobe.com/ImageReplacement/1.0/">
	<!ENTITY ns_sfw "http://ns.adobe.com/SaveForWeb/1.0/">
	<!ENTITY ns_custom "http://ns.adobe.com/GenericCustomNamespace/1.0/">
	<!ENTITY ns_adobe_xpath "http://ns.adobe.com/XPath/1.0/">
]>
<svg version="1.1" id="Layer_1" xmlns:x="&ns_extend;" xmlns:i="&ns_ai;" xmlns:graph="&ns_graphs;"
	 xmlns="http://www.w3.org/2000/svg" xmlns:xlink="http://www.w3.org/1999/xlink" x="0px" y="0px" viewBox="0 0 529 768"
	 style="enable-background:new 0 0 529 768;" xml:space="preserve">
<style type="text/css">
	.st0{fill-rule:evenodd;clip-rule:evenodd;fill:#1D58A5;}
	.st1{fill-rule:evenodd;clip-rule:evenodd;fill:#1C2540;}
</style>
<metadata>
	<sfw  xmlns="&ns_sfw;">
		<slices></slices>
		<sliceSourceBounds  bottomLeftOrigin="true" height="726.8" width="509.4" x="11.2" y="21.2"></sliceSourceBounds>
	</sfw>
</metadata>
<desc>Created with Sketch.</desc>
<g>
	<path id="Accent" class="st0" d="M284.2,382h0.2c2.2,0.4,5.9,6.8,7.5,8.6c4.9,5.9,9.8,11.7,14.7,17.6c2,2.3,4.8,4.8,6.2,7.5
		c1.1,2.1,1.4,5,2.1,7.2c8,27.8,15.7,55.8,21.5,84.1c1.2,6.1,2.4,12.2,3.1,18.4c0.3,3.1,1.2,7.6-0.1,10.5c-1.5,3.3-6.3,4.7-9.5,5.8
		c-6.1,2-12.5,3.2-18.8,4.3c-15.3,2.6-30.7,4.1-46.1,5.3c-4.7,0.4-9.6,0.4-14.2,1c-2.2,0.3-1.6-0.3-2.3,1.2c-1,2.1-0.3,6.4-0.4,8.7
		c-0.3,5.4-0.5,10.7-0.8,16.1l0,0l-2.2,43.8c-0.8,14.8-1.5,29.6-2.3,44.4c-0.3,5.6-0.6,11.2-0.9,16.8c-0.2,3,0.3,6.9-0.5,9.8
		c-0.6,2.2,0.4,1.5-2.3,1.7c-6.2,0.3-12.7-0.5-18.9-0.7c-7.1-0.3-14.2-0.5-21.2-0.8c-2-0.1-4.3,0.5-5.1-0.9c-1-1.8-0.2-6.6-0.3-8.6
		c-0.2-5.5-0.4-11-0.6-16.5c-0.5-15.1-1.1-30.1-1.6-45.2c-0.7-20.6-1.5-41.1-2.2-61.7c-7.9,1.6-15.7,3.2-23.6,4.8
		c-11.6,2.3-23.3,4.7-34.9,7c-5.3,1.1-11.7,3.5-17.2,2.7s-7.7-3.1-8-8.3c-0.3-5.6-0.2-11.2-0.1-16.7c0.1-9.1,0.4-18.2,0.7-27.3
		c15.5-1.4,31.1-2.8,46.6-4.2c8.3-0.7,16.5-1.5,24.8-2.2c1.9-0.2,6.5,0.2,7.3-1.2c1.3-2.2-0.1-9.4-0.2-11.9l0,0l-0.4-23.5l0,0
		l-1.4-86.5c3.7,0.1,7.4,0.2,11.2,0.3c16.2,0.5,32.4,1.1,48.6,0.6c8.1-0.2,15.8-2.4,23.5-5c4.1-1.4,8.1-2.9,12.1-4.4
		c1.3-0.5,5-2.8,6.3-2.6L284.2,382z M262.4,462.5l-8.3,40.4l28.3-1.9L262.4,462.5z"/>
	<g id="Ink" transform="translate(257.000308, 20.000000)">
		<path id="ink-shape" class="st1" d="M241.7,114.6c-0.6,4.5-0.2,9.4-5.2,10.6c-4.7,1.1-9.9,0.8-14.6,1.2c-5.4,0.4-10.8,1-16.1,1.6
			c-6.8,0.7-5.8-1.9-7.3-7.7c-1.4-5.3-3.5-10.6-5.3-15.7c-0.8-2.4-1.8-4.6-3-6.9c-1-2-0.5-4.8-1.7-6.5c-3.8-5.9-22.3,10.2-24,7
			c3.1-2.4,8.5-5.2,9.5-9.3c1.1-4.9-2-6.4-5.9-4.6c-9.6,4.4-20.7,7.9-31.2,9.5c3.4-2.3,34.1-20.2,23.8-25.5
			c-2.3-1.2-5.4,1.1-7.5,1.9c-3.3,1.4-6.8,2.3-10.3,3.1c-3.7,0.9-7.3,1.8-11,2.7c-2.6,0.6-7.2,2.7-9.7,2.2c-2.6-0.5,2-2.1,2.7-2.5
			c3.2-1.6,6.4-3.4,9.6-5.1c5.6-3.1,10.8-6.8,15-11.6c3.2-3.7,8.5-11.7,6.3-16.7c-1.3-2.9-4.1-5.6-5.8-8.4
			c-1.9-3.2-3.5-6.7-5.2-10.1c2.8,1.2,6,1.6,8.9,2.7s5.8,2,8.8,2.9c6,1.7,12,2,18,3.3c6.8,1.5,13.8,3.2,20.7,4.1
			c6,0.8,11.4,2.4,16.5,5.7c10.5,6.7,17.7,16.2,21.4,28c2.1,6.9,2.7,14.2,2.9,21.4C242.1,99.3,242.7,107.1,241.7,114.6 M183,115.2
			c-7.3,5.3-15.8,9.5-23.7,14c-4.5,2.6-9.1,5-13.6,7.4c-3.2,1.7-7.2,4.9-10.8,5.8c-2.3,0.6-2.1,0.6-3.5-1.5c-1.4-2-2.6-4.1-3.8-6.1
			c-2.4-3.7-4.7-7.5-7.1-11.2c-5.3-8.3-10.7-16.7-16.3-24.9s-11-16.5-16.5-24.9c-2.5-3.9-5.1-7.7-7.7-11.5
			c-2.1-2.9-7.3-7.2-4.8-10.6c2.3-3.1,7.6-5.7,10.7-8.1c3.8-2.9,7.7-5.8,11.5-8.7c8.2-6.3,16.2-12.8,24.4-19.1
			c7,12.2,15.1,23.6,23.4,35c-7.5,4.8-15,9.3-22.9,13.4c-5.8,3-14.7,7.1-18.4,12.8c-3.6,5.6-0.1,12.1,6.4,12.2
			c3.9,0.1,7.7-1,11.5-1.5c2.7-0.4,7.7-2.4,10.2-1c-4.4,2.8-20.4,11-11.8,18.2c6.2,5.1,16.6-2.4,23.3-0.8c-2,3.9-4.1,10.1,1.5,12.2
			c4.7,1.8,10.8-1.5,15.1-3.3c3.1-1.3,6.1-2.6,9.1-3.9c2.4-1.1,5.2-3.3,7.8-3.8C179.8,104.8,185.9,113.1,183,115.2 M47.2,402.7
			c4.2-0.8,6.3-2.5,7.6,2.6c1.2,4.5,2.3,8.9,3.9,13.4c-6.5,0.6-12.3,3.7-17,8.1c-3.4,3.1-10.1,10.6-8.5,15.8
			c4.1,12.7,24.6-15.8,27-18.9c3,4.4,4.1,10.1,5.6,15.1c1.1,3.5,5,10.3-0.2,11.2c-7.3,1.2-20.9,3.9-20,14.2
			c1,12.1,16.5,12.1,25.1,12.6c4.9,0.3,4.9,4.2,5.6,8.6c0.3,2,1.3,4.6-0.4,6c-1.5,1.3-6,1.3-7.9,1.7c-5.6,1.2-11.2,2.4-16.8,3.6
			c-6.4,1.4-9.7-0.5-15.7-2.3c-2.2-0.6-4.4-0.4-4.6-2.8c-0.1-1.5,1.4-3.9,1.9-5.4c1.9-5.9,3.6-12,4.1-18.2c0.8-9-0.2-22.6-11.3-24.4
			c-5.3-0.8-6.3-1.1-8.7-6.1c-2.6-5.4-6.7-10.3-5.7-16.5c0.7-4.5-0.5-13,2.4-16.7c1.3-1.7,3.9-2.7,5.7-4c2.2-1.6,4.4-3.3,6.5-5.1
			c1.8-1.5,3.9-4.5,5.9-5.6c2.4-1.3,2.5-0.4,4.3,1.7C38.4,394.4,42.5,403.5,47.2,402.7 M59,422.8c-1.4,2.9-4.8,5.6-6.9,8.1
			c-2.1,2.5-4.2,5-6.6,7.3c-2.6,2.4-12,8.4-9.9,0.4c1.6-6.2,7.6-11.2,12.9-14.3C49.5,423.6,61.5,417.8,59,422.8 M69.3,452.2
			c0.9,4.1,1.4,8.4,2.2,12.6c0.4,2.1,2.6,7.3,1.7,9.3c-1.5,3.5-15.5-0.6-18.4-1.8c-6.9-2.8-10-10.2-3.7-15.4
			C53.5,455,68.3,448.1,69.3,452.2 M78.4,502c0.8,4,3,7.6-0.7,10.6c-3.1,2.5-8.2,4.2-12.1,5.1c-5.2,1.2-6.9-1.7-9.7-5.5
			c-3-4.1-6.2-8-9.4-11.8c10.3-2.3,20.7-4.6,31-6.9C77.5,496.3,77.9,499.2,78.4,502 M53.6,520.4c-5.4-0.3-11.2,1.3-16.7,1.8
			c-6.8,0.5-13.6,1.3-20.5,1.8c1.8-5.6,4.9-10.6,7.4-15.9c2.5-5.3,4.2-5.9,9.9-6.3c5.3-0.4,9-2.2,12.9,2.3c4,4.6,7.7,9.7,11.4,14.6
			C56.7,519.5,55.2,520.4,53.6,520.4 M15.1,521.5c-1.3,1-5.4-1.8-6.8-2.3c-2.7-1-3.3-1.4-4.7-4c-1.2-2.3-3.1-4.8-3.5-7.4
			c-0.5-3.4,1-7.9,1.6-11.2c1.5,3.5,6.2,3.9,9.5,4.5c2.4,0.4,9.7-0.3,11.5,1.5c2,1.9-1.7,7.3-2.7,9.3
			C18.8,514.2,17.3,519.9,15.1,521.5 M12.5,524.3c-1.6,0.3-6.2,1.9-6.1-1.1C6.5,519.9,12.8,523.5,12.5,524.3 M4.3,524.1
			c-0.3,2.8-6.3,2.6-6.5,0.1C-2.4,520,4.8,519.6,4.3,524.1 M-2.6,448.2c-1.5,4.4-11,6-14.6,7.3c-3.3,1.2-13.2,7-16.6,4.9
			c11.5-7.9,23.4-15.7,33.1-25.8c0.4,2.5-0.2,4.6-0.9,7C-2.2,443.7-1.9,446.3-2.6,448.2 M-5.4,464.3c-1.7,10.8-3.3,21.7-5.5,32.4
			c-4.3-1.3-7.8-4-12.3-4.9c-4.1-0.8-8.3-0.9-12.5-0.2c-8.8,1.3-16.7,5.7-24.4,9.9c-0.7-7.4-2.2-15.3-2-22.8
			c0.1-6.2,10.7-8,15.5-10.6c2.9-1.5,5.5-3.7,8.8-4.3c3.4-0.6,6.7-0.5,10-1.6c7.9-2.4,15.4-6.3,23.2-9.2
			C-4,456.9-4.9,460.7-5.4,464.3 M-12.9,510c-0.4,2.5,0.1,6.8-1.8,8.7c-1.8,1.8-5.5,1.8-7.8,2.3c-7.1,1.5-14.1,2.9-21.2,4.4
			c-3.2,0.7-6.3,1.3-9.5,1.9c-1.5,0.3-5.3,1.7-6.6,0.5c-1.2-1.1-0.3-4.8-0.2-6.3c0.1-3.1,0.3-6.1,0.1-9.2c-0.4-5.9,0-8.1,5.4-11.2
			c5.8-3.2,11.8-5.4,18.4-6.6s12.9-0.5,19.2,2c1.8,0.7,4.4,1.6,5.2,3.5C-10.6,502.6-12.5,507.4-12.9,510 M-20.8,604.8
			c-2.6,1.6-8.2,1.3-11.2,1.7c-4.8,0.5-9.7,0.2-14.4-0.5c-3.6-0.6-9-1.3-11.7-3.9c-3.9-3.6,0.6-3.8,3.6-3.5
			c8.7,0.7,17.5,0.2,26.3-0.4c1.7-0.1,6.3-1.6,7.9-0.9C-18.4,598.1-19,603.6-20.8,604.8 M-25.8,662.8c-16.2-1.6-25.7-15-31.5-28.8
			c-3.2-7.4-2-15.1-2.3-22.9c-0.1-1.4-1-5,0.5-6c1.4-1,6.9,2.1,8.5,2.5c7.7,1.9,16.3,2.1,24,0.2c3.4-0.8,5.2-2.3,6.3,1
			c0.9,2.7-0.6,7.6-0.7,10.4C-21.3,624-20.6,663.3-25.8,662.8 M-58.2,662.8c-0.1-2.4-1.3-26.2-0.1-26.2c3.4,7.4,6.9,14,13.2,19.4
			c3.2,2.8,6.8,5.3,10.8,6.8c1.5,0.6,10,1,10.4,2.8c0.7,3.3-5.1,1.9-6.8,1.7c-1.4-0.2-2.6-0.8-4-1c-2.6-0.5-5,0.2-7.6,0.2
			c-3.9,0.1-7.8-0.3-11.7,0C-57.7,666.8-58.1,666.3-58.2,662.8 M-55.8,556c13.9-4.5,25.5,4,32.9,15.2c4.2,6.4,5.1,10.8,4.4,18.3
			c-0.3,2.7,0.2,4.5-2.3,5.6s-8,0.3-10.7,0.4c-7.6,0.4-15.2,0.8-22.8,0.4c-5-0.3-5.7-1.1-5.6-5.9c0.1-5.8-0.4-11.5-0.7-17.3
			C-61,566.3-63.1,558.4-55.8,556 M-60.4,547.7c0-4.3-0.2-8.6,0-12.9c0.3-4.2,2.1-4,6-4.7c8.6-1.6,17.2-3.3,25.7-5.4
			c3.4-0.8,7.2-2.4,10.7-2.4c3.7,0,3.5,1.9,3.2,5.1c-0.5,7.2-1.9,14.3-2.3,21.5c-0.4,7.7-0.7,15.6-0.6,23.3c0,2.6,0.6,4.5-1.6,2.1
			s-3.3-6.3-5.3-9.1c-4.1-5.6-10.1-10.2-16.9-12.1c-3.7-1.1-7.6-1.2-11.4-0.5c-1.2,0.2-6.9,3-7.6,2.4
			C-61,554.6-60.4,547.8-60.4,547.7 M-9.5,695c5.5,4,11.6,7.2,17.8,10c3.5,1.6,17.2,4.8,17.7,8.3c0.2,1.9-2,4-3.5,4.2
			c-1.9,0.3-5-1-7-1.2c-7-0.9-14-0.9-20.9-2.8c-13.7-3.9-27.9-5-41.7-8.4c-3.3-0.8-6.6-1.6-9.9-2.3c-3.1-0.7-4.5-0.6-4.7-3.9
			c-0.2-7.4,1.9-14.9,1.9-22.4c11.2,1.3,22.4,1.3,33.6,2.3c4.8,0.4,4.7,1.4,6.8,5.6C-17.1,688.7-13.4,692.2-9.5,695 M-64,455.8
			c-0.1-2.7-0.3-5.5-0.5-8.2c-0.2-1.8-1.8-6.9-0.9-8.4c1.1-1.7,2.2-0.7,4.2-0.7c2.6-0.1,4.8-1.1,7-2.5c4.1-2.6,7.2-6.1,9.9-10.1
			c2.4-3.6,1.9-8.4,1.9-12.7c-0.1-11,0.7-21.7,0.1-32.8c-0.3-5.1,4-2,7.5-1.3c5.7,1.1,11.9,0.3,17.7,0.3c-0.2,1.4-12.1,4.7-14,6
			c-4.9,3.3-7.8,8.5-7.3,14.5c0.9,12,14.1,14,23.8,14c-8,7.1-15.9,13.8-22.2,22.6c-4.6,6.4-12.8,19.1-5.2,26.3
			c-6.7,3.8-13.4,8-20.9,9.9C-63.4,467.1-63.7,461.4-64,455.8 M-67.1,236.8c2.7,1.8,3.9-0.7,6-2c2.9-1.8,3.9-1.6,4.3-5.7
			c0.7-7.5-2.5-14.3-6.4-20.4c-1.8-2.8-3.6-6.1-6.1-8.3c-2.3-2-4.7-1.3-6.8-3.4c-0.8-0.8-0.7-1.9-2.1-1.9c-0.9,0-3.1,2.9-3.9,3.5
			c-2.4,2-5.3,3.5-8.5,1.9c-4.6-2.4-3.1-11,0.4-13.8c2.7-2.2,6-1.8,9.1-2.2c2.3-0.3,2.8-0.2,1.9-2.8c-0.7-1.9-2.2-3.3-3-5.2
			c-1.5-3.5-1.2-7.8-1.8-11.5c-0.6-3.3-1.9-6.9-1.9-10.3c0.1-4.3,1.5-5.4,5.2-6.6c3.6-1.2,6.6-3.7,9.7-5.9c3.5-2.4,7.3-4.1,10.9-6.3
			c2.4-1.5,4-4.6,6.7-3.2c3.2,1.7,6.5,6.6,9.2,9.2c-3.9,2.5-4.9,3.6-4.3,8.5c0.5,4.5,1.4,8.5,4.9,11.6c1.3,1.2,3.8,2.2,4.8,3.6
			c1.2,1.6,0.4,0.2,0.3,2c-0.1,1-0.9,1.6-0.7,2.8c0.8,5.1,6.6,2.1,9,0.3c8.5-6.3-7.4-11.3-11.2-13.5c-2.6-1.6-3.9-6.6,0.2-5.3
			c2.8,0.9,9,8.4,9.6,1.6c6.8,4,11.1,12.4,16.8,17.8c4.1,3.9,9.7,8.1,6.4,14.3c-4.2,7.8-12.5,11.4-20.1,14.8
			c-7.3,3.3-5.8,12.6-1.9,18.2c2.3,3.3,5.2,5.2,8.8,6.8c3.7,1.6,4.4,3.5,5.2,7.3c0.9,4.2-0.1,5.9-3.7,8.1c-3.5,2.1-7.3,4.2-11,5.8
			c-8.2,3.6-16.7,3.8-25.4,5c-3.1,0.4-6,1.3-7.6-1.7C-66.1,246.5-66.2,240.6-67.1,236.8 M-68.4,220.5c-2.1-1.1-7,2.5-9.6,2.7
			c-4.2,0.3-6.9,0.2-10.7,2.4c-7,4.2-12.9,9.6-18.5,15.5c-6.4,6.6-12.7,13.3-19,19.9c-2.9,3-5.8,6-8.7,8.9c-2.3,2.3-4.5,5.6-7.4,7.3
			c0.1-2,1.4-3.4,1.8-5.2c0.3-1.1-0.2-2,0-3c0.1-0.3,0.9-1.5,1.1-1.9c0.4-1,0.8-2,1.2-3s0.3-2,0.8-3c0.4-1,1.6-1.7,2-2.8
			c1.2-3-0.8-4.4-3.9-4.3c1.2-6,1.7-9,8-11.1c6-2,11.9-4.3,17.4-7.5c4.9-2.8,9-6.9,13.7-10c4.2-2.8,9.5-5.8,9.5-11.5
			c2.4,1.6,4.6,3,7.4,1.4c2.3-1.4,2.6-2.5,5.3-2.7c2.2-0.2,3.5-0.3,5.5,0.7c2.3,1.1,2.6,1.9,3.9-1.4c1.5,1.3,5.4,6.6,5.2,8.7
			c-0.1,1.2-0.2,1.7-1.7,2C-67,222.8-66.9,221.3-68.4,220.5 M-78,535.6c-1,1.5-5.2,1.2-6.8,1.2c-5-0.1-6.7-4.2-8.9-8.2
			c-3.4-6.3-8.5-19.5-2.9-26.1c4.4-5.2,13.1,1.4,16.1,5.3c2.6,3.4,1.8,8.6,2.1,12.7C-78.2,524-76,532.6-78,535.6 M-91.5,537.9
			c-2,2-8.4,1.6-11,2c-4.7,0.8-9.3,1.7-13.9,3.1c-3.4,1-6.7,3.8-7.6-0.9c-0.7-4-0.4-8.7-0.3-12.7c0.1-4.3,0.5-8.6,0.9-12.9
			c0.3-2.9-0.4-8.2,2-10.5c2-1.9,7-2.1,9.7-2.7c4.4-1,8.9-2.4,13.4-1.9c-2.6,7.2-2.9,14.7,0,21.8C-97.5,525.2-90.3,536.7-91.5,537.9
			 M-124.8,509.4c-1.1,10.8-2.2,21.6-1.2,32.5c0.1,0.6,0.8,3.6,0.5,4.1s-3.1,0.7-3.7,0.9c-2.5,0.6-5,1.2-7.4,1.7
			c-4.9,1-5.5-2.1-6.4-6.6c-2-9.6,1.9-20.1,4.3-29.4c1.2-4.5,2-5,6.5-5.4C-129.2,507-124.3,504.8-124.8,509.4 M-143.5,549.6
			c-1.9,1.7-3.7-6.3-3.9-7.1c-0.6-3.2-0.3-6.5-0.3-9.8c0-5.1-0.4-10.2-0.4-15.3c0-2.8-2.1-8.4,1.2-9.8c1-0.4,4.8-0.2,5.6,0.3
			c1.8,1.2,1.1,1.9,0.6,4c-1.2,4.6-2.2,9.1-3.2,13.8c-1,4.5-2,8.9-1.5,13.5C-145.3,540.7-142.3,548.5-143.5,549.6 M-84.3,499.4
			c4.5-1.3,4.8,2.2,4.8,5.5C-80.3,504.3-86.7,500-84.3,499.4 M-144.9,255.9c-1.1,1.8-8.1,2.3-10.1,2.8c-3.9,0.9-7.9,1.9-11.8,2.9
			c-7.4,1.8-14.6,3.9-22.1,4.9c4.2-6.6,5.4-12.4,4.7-20.7c-1-10.5-2.2-20.8-4.6-31.1c-2.4-10.1-5.1-20.2-7.8-30.2
			c-1.3-4.9-2.7-9.8-4.4-14.6c-1.4-3.8-3.6-8.7-1.2-12.6c6,4.4,10.8,9.1,14.2,15.7c3.7,7.1,6.8,14.4,11.1,21.2
			c1.9,3.1,4.2,5.9,6.3,9c1.2,1.8,2.1,4.4,3.7,5.9c1.8,1.7,3.7,2.6,4.8-0.4c1.1-3.2-2.4-9.4-3.5-12.3c-2.5-7.1-5-14.3-7-21.6
			c-1.6-5.9-4.2-13.1-3.3-19.3s5.1-1.8,7.2,1.1c4.4,5.9,7,12.8,9.9,19.6c2.6,6.2,5.7,12.1,8.7,18.1c1,2.1,2.4,7.5,5,8.1
			c3.9,0.9,3.5-4.6,3.2-6.8c-2.5-14.7-8.9-28.7-10.2-43.7c-0.1-0.7-1-6.3-0.2-6.7c1.4-0.9,3.4,4.7,4,6.1c3.2,7.2,5.5,14.7,7.6,22.3
			c1.8,6.4,3.4,12.9,5.3,19.3c1.1,3.5,2.3,7,3.6,10.4c1.1,3.1,2.2,8.5,5.1,10.6c4.1,2.9,18.8-4,20.3,2.2c1.1,4.4-12.6,8-15.5,9.3
			c-3.8,1.8-7.6,3.7-11.4,5.5c-2.9,1.3-7.1,1.9-9.2,4.4c-2.2,2.7-2.6,6.4-2.6,9.7C-145.3,247.5-143.5,253.7-144.9,255.9
			 M-154.2,304.2c-0.2,1.4-1.3,3.2-1.8,4.6c-1,2.7-1.9,5.9-3.3,8.4c-1.2,2.2-3,4.1-4.2,6.3c-1.1,2.1-1.3,4.5-2.6,6.6
			c-1.5,2.4-3.9,4.1-5.4,6.5c-0.7,1.2-1.5,2.5-2.5,3.8c-3.6,4.4-7.2,8.6-10.2,13.3c-0.7,1.2-4.4,6.5-5.9,6.8c-3,0.6,0.5-3.7,1.1-4.6
			c4.3-6.5,8.1-13.3,12.3-19.8c4-6.4,8.1-12.7,12-19.1c3.2-5.3,5.3-12.8,10.5-16.5C-154,301.7-154,303-154.2,304.2 M-13.7,244.8
			c2.5,10.3,5.5,20.3,8.3,30.5c2.6,9.5,6.1,19.6,7.2,29.3c1.1,9.7,3.5,19.4,6.9,28.6c1.5,4.2,3.1,8.5,4.8,12.7
			c0.9,2.3,1.9,4.6,3,6.8c0.8,1.7,2.9,4.6,3,6.4c0.1,1.5,0.6,0.9-0.9,2c-1.5,1.2-4.1,0.7-5.9,0.9c-4.6,0.5-9.1,2.3-13.6,3.4
			c-8.7,2.2-19,3.9-27.8,2.4c-3.7-0.6-7.6-1.2-11.3-2c-4.5-1-5.5-2.9-6.4-7.4c-2-9.8-3.8-19.5-5.5-29.3c-2-11.7-4.2-23.4-5.7-35.1
			c-1.6-11.9-2.7-23.8-5.1-35.6c9.9,1.6,19.1,3.5,29,0.8C-25,256.9-18.7,252.2-13.7,244.8 M24.9,372.2c2.2,4.5-3.1,8.6-5.7,12.1
			c-3.4,4.6-6.6,9.4-10.5,13.6c-1.2-4.7-2.2-10.1-5.4-14c-4-5-8.7-2.9-13.7-5.3c5.2-2.5,11.8-1.6,17.3-3.8c5.4-2.2,10.9-4,16-6.8
			C23.6,369.4,24.2,370.8,24.9,372.2 M5.7,478.2c-3.3,0.2-1.1-6.8-0.9-8.5c0.6-4.8,1.2-9.5,1.7-14.3c2.7,7.2,5.5,14.4,8.2,21.6
			C11.7,477.3,8.7,478,5.7,478.2 M0.3,512.7c0.5,1,2.6,4.4,0.9,5C-1.1,518.5-1.4,513,0.3,512.7 M-3.7,435
			c-10.6,8.4-21,16.9-32.5,24.1c-2.5,1.6-5,2.3-6.7-0.9c-1.3-2.5,0.1-5.3,0.9-7.7c2.1-6.2,5.8-11.6,10-16.6
			c8.2-10.1,18-18.7,30.5-22.6c2-0.6,5.2-2.6,5.9,0.1c0.4,1.6-1.4,5.6-1.7,7.1C1.3,424.7,1.6,430.8-3.7,435 M26.7,496.5
			c0.2,7.2-19.3,1.4-21.8,0.1C7.5,495.8,26.6,493.3,26.7,496.5 M34,496.6c1.2,0.3,5.6,0.7,4,2.2c-1.5,1.4-8.2,0.8-10,1
			C29.1,495.8,30,495.5,34,496.6 M30.4,487c-0.4,1.6-0.6,4-2,5.1c-1.8,1.4-5.6,0.5-7.6,0.5c-3.4,0-6.8,0.2-10.2,0.5
			c-1.3,0.1-6.6,1.7-7.8,0.6c-0.9-0.8-0.6-4.5,0.1-5.4c1.3-1.7,4.4-1.1,6.4-1.2C16.3,487,23.3,487,30.4,487 M25.8,460.5
			c-1-1.5-1.2-1.5-1.6-3.7c-0.5-2.4-1.6-4.5-2.3-6.8c-1.5-5.1,3.3-4.6,6.8-2.8c9.1,4.9,6.9,21.8,4.7,29.8c-3.3-2.4-4.5-3.5-5.6-7.4
			c-0.4-1.5-0.9-2.9-1.4-4.4C26.1,464.1,26.3,461.3,25.8,460.5 M26.6,378c2.5-0.3,4.9,7.6,4.1,9.3c-1.5,3.5-7.2,6.6-10.1,8.8
			c-1.9,1.5-3.8,3.2-5.9,4.5c-1.9,1.2-3,0.5-4.8,1.1c-2.6,0.8-3.2,3.6-5.8,4.7C0.4,408-4.1,408.5-8,410c-4.7,1.8-9,1.9-13.9,1
			c-7.1-1.2-15.4-4.7-14.7-13.3c1.1-15.2,31.3-23,39.5-10.1C5,391,5,394.9,6.4,398.5c1.5,3.9,3,2.4,5.2-0.5c3-3.8,5.7-7.7,8.6-11.6
			C21.1,385.1,24.8,378.2,26.6,378 M-158.2,525.8c-0.1,2.6,0,5.2-0.9,7.7s-2.7,4.5-3.8,6.9c-2.1,4.9-2.1,10.8-2,16.1
			c0.2,12.2,3.1,24,4.6,36.1c-5.1,0-10.3,0-15.3-1.4c-4.4-1.3-5.1-4.5-6.4-8.6c-3.5-11.4-7.3-22.7-8.4-34.7
			c-0.5-5.7-0.8-11.4-1-17.1c-0.2-5,0.9-7.2,5.4-9.7c9.8-5.4,20-9.9,29.7-15.5C-157.2,512.3-157.8,519-158.2,525.8 M260.8,126.1
			c-2.4-0.4-4.8-0.7-7.2-1c-1.3-0.2-5.2,0.1-6.1-0.8c-1.1-1,0.8-8.4,0.9-9.9c0.6-9.5-0.1-19.3-1-28.8c-1.6-17.2-7-33.1-19.4-45.5
			c-6.2-6.2-13.2-11-21.6-13.4c-4.9-1.4-10-2.1-15-3.4c-4-1.1-7.7-2.3-11.9-2.7c-8.3-0.9-15.8-4-23.9-5.8
			c-5.9-1.3-15.5-4.5-19.3,2.2c-3-3.6-6.1-6.2-9.9-8.9c-3.7-2.5-4.3-5.1-8.7-2.1c-8.7,5.7-16.9,12.6-25,19.1
			c-7.6,6.1-14.9,12.4-22.9,18c-8.1,5.7-6.6,15.3-2.8,23.3c7.2,15,18.3,27.9,28,40.8c6.1,8.1,12.2,16.2,18.2,24.2
			c5.8,7.7,10.8,16.7,17.5,23.6c4.3,4.4,9.3-1.3,13.2-4c4.8-3.3,9.5-6.7,14.2-10c10-6.8,20.6-13.2,31.1-19.2
			c0.8,2.2,1.5,4.3,2.3,6.5c-2.3,0.2-5.4-0.3-6.6,2.1c-1.7,3.5,2.4,4,3.2,6c0.6,1.8-2,6.6-2.8,8.2c-1.8,3.7-4.2,6.9-6.9,9.9
			c-10.7,12-24.2,20.6-38,28.8c-14.7,8.8-30.5,14.1-46.6,19.7c-8.2,2.9-16.7,4.2-25.1,6c-8.1,1.8-16.3,4.1-24.6,4.8
			c-17,1.4-35.1,2.4-51.9-1.3c-1.8-0.4-3.8-1.3-5.7-1.4c-1.5-0.1-2.6,0.5-4,0.6c-3,0.2-4.8-2.5-7.2,0c-1.2,1.3-1.2,3.4-2.9,1
			c-2.1-3,3.3-3.6,5.4-4.4c6.8-2.9,12.3-8.7,16.7-14.5c4.3-5.9,5-12.1,2.3-19c-2.6-6.9-8.6-11.5-13.2-17.1c-2.2-2.7-4.2-5.5-6.6-8.1
			c-1.3-1.3-3.3-2.6-3.4-4c-0.1-1.6,0.8-2.4,0.3-4.3c-0.1-0.5-0.8-0.8-0.9-1.3c-0.2-0.9,0.1-1.6,0-2.5c-0.3-1.9-1-3.2-2.1-4.8
			c-0.7-1-1.7-3-2.6-3.7c-1.6-1.3-3.8-0.8-5.5-2.1c-2.6-2.1-3.5-6.5-5.8-9.1c-3.3-3.6-3.9,0-7.4-1.1c-2.9-1-2.9-5.4-5.3-6.9
			c-3.4-2.1-6.2,1.8-9.2,2.6c-3.9,1.1-2.4-3.3-5.9-3.7c-3.2-0.4-7.5,6-9.1,8.3c-1.6-1.9-3.4-5.1-6.2-3.9c-3,1.2-3.6,6.8-5.8,8.8
			c-0.8,0.7-0.6,1.2-1.6,1.5c-1.2,0.4-2.9-1.4-4.4-0.8c-3.2,1.1-2.8,5.4-2.8,8.1c-3.8-0.6-6.4-0.8-7.7,3.2c-1.2,4-1.7,2.2-5.7,3.5
			c-3.4,1.1-3.9,4.4-4.5,7.6c-0.3,2,0,2.8,0.5,4.6c0.7,2.3,0.7,2.2-0.4,4.4c-1.9,3.8-2,8-2.3,12.1c-0.3,4.4-1.1,8.5,0.2,12.8
			c0.8,2.7,0.8,6.3,3.5,7.9c1,0.6,2.8,0.3,3.7,0.9c1.7,1.1,1.2,2.8,2.3,4.5c0.8,1.2,2.2,1.4,3.2,2.4c1,1.1,1.1,2.4,1.7,3.7
			c1.7,3.9,3.4,5.8-2.3,6.1c-3.5,0.1-7.2,1.2-10.7,0.9c-4.1-0.4-5.1-2.7-6.4-6.2c-6.6-17.6-10.1-36.7-18.8-53.5
			c-1.9-3.7-9.7-18.7-13-7.8c-2.8,9.2,0.9,20.5,2.3,29.7c-4.4-4-6-11.1-9.4-16c-2.5-3.6-10.2-12.4-14.7-7.3c-3.6,4-2.7,12.4-2,17.1
			c1,7.5,3.4,14.7,5.2,22.1c-2.2-2.8-3.2-6.3-4.7-9.4c-1.9-4-4.2-7.8-6.9-11.3c-2.3-3.1-4.9-5.9-7.8-8.5c-2.2-2-6-6.4-9.1-6.6
			c-7.9-0.6-5.4,13.9-4.2,18c2.5,8.6,5.2,16.9,7.1,25.7c3.8,17.1,8.4,33.8,11.2,51.2c0.6,3.8,1.4,6.9-0.2,10.6
			c-1.3,3.3-2.7,7.1-5.2,9.6c-5.6,5.7-10.2,11.7-14.4,18.5c-4.5,7.3-9.1,14.7-12.7,22.5c-1.7,3.6-3.1,7.4-5,10.9
			c-1.7,3.1-3.8,5.6-5.1,9c-5.9,16.4-10.3,32.5-12.3,49.9c-1.6,14.3-0.1,33.2,17.1,36.6c7.9,1.5,15-2,22.1-4.9
			c7.4-3,12.7-7.9,18.7-13c7.5-6.4,15.2-12.5,22.8-18.8s14.5-13.3,22.1-19.7c7.4-6.3,14.1-13,20.6-20.4c6.4-7.3,11.5-15.3,17.7-22.7
			c0,9.5-1.4,19-1.8,28.5c-0.4,8.7-0.4,17.5,0,26.2s-2,17-2,25.8c0,8.5-0.4,17-0.5,25.4c-0.1,3.8-0.8,8.1,0.6,11.8
			c1.1,2.7,4.4,3.6,7.3,4.3c4.4,1.1,17.7-1.1,19.6,3.6c1.1,2.6,0,7.2,0.1,10.1c0.1,4.7,0.3,9.3,0.5,14c0.2,4.8,0.3,9.7,0.5,14.5
			c0.2,4.3,1,9,0.5,13.2c-0.4,3.6-2.5,3.1-5.9,3.3c-5,0.3-10.1,0.5-15.1,0.7c-7.4,0.3-15.1,0.2-22.2,1c-3,0.4-6.2,0.2-9.4,0.8
			c-3.9,0.7-7.6,0.9-11.6,1.1c-3.2,0.2-7.4-0.1-9.9,2.3c-0.9,0.8-1.1,1.8-1.7,2.7c-1.2,1.7-0.5,1.3-2.4,1.7
			c-7.5,1.5-14.5,3.2-21.8,5.8c-3.7,1.3-7,3-10.7,4.2c-3.2,1-5.6,2.3-7.2,5.5c-2.8,5.6-2.1,13.8-1.9,19.9c0.3,9.5,2.4,18.5,4.7,27.7
			c2.4,9.5,4.2,19.3,8.8,28.1c1.5,2.9,3.1,6.6,6.2,8.1c4,1.9,10.1,0.8,14.5,0.8c2.9,0,10.7,1,12.9-1.4c2.1-2.4,0-9.1-0.3-12
			c-1-10.3-2.9-20.7-2.9-31.1c2.4,3.5,6.5,9.6,10.6,4.2c1-1.3,0.6-1.9,2.4-2.7c1-0.4,3.1-0.7,4.2-0.6c1.5,0.1,2,0.7,3.4,0.4
			c1.2-0.3,2.6-1.3,3.9-1.7c17.1-4.1,34.1-8.4,51.3-12.1c4.5-1,3.9,2.5,4.2,6.5c0.3,4.3-0.3,8.7,0.3,13c0.5,3.7,0.9,7.4,0.2,11.1
			c-0.9,4.4-0.3,8.1,0.6,12.5c3.3,16.9,2.7,35.3,3.5,52.5c0.4,9-0.4,18.1,0.4,27c0.3,3.4,2.2,5.2,3,8.3c0.9,3.5-1.5,8-2.2,11.4
			c-1.5,6.8-4,16.6,0.7,22.6c2.5,3.2,5.8,3.7,9.6,4.8c4.5,1.3,8.9,2.8,13.4,4c16.4,4.5,34.2,5.4,51.1,7.9c4.1,0.6,8,0.5,12.1,0.3
			c2.6-0.2,8.9,0.7,11-0.9c1.1-0.8,0.6-1.8,1.1-2.8c0.8-1.4,1.8-2,3.2-2.9c2.3-1.5,5-2.3,5.4-5.4c1-7.4-8.3-11.3-13.3-14.6
			c-6.3-4.1-14-5.7-20.7-9c-3.7-1.8-7.3-3.9-10.9-6c-1.5-0.9-4.7-1.9-5.8-3.4s0-3.5,0.4-5.6c1.9-8.6,1.2-17.4,2.2-26.1
			c1-8.7,0.7-17.5,1-26.3c0.3-9,1.1-18,1.6-27c0.5-8.3,1.1-16.8,1.1-25.1c0.1-7.7,1.1-15.3,1.4-23.1c0.1-2.6-0.4-7.4,1.4-9.7
			c1.5-2,6.6-1.7,9-2.1c6.4-0.9,12.5-1.7,18.8-2.3c15.1-1.3,31.8-2.3,46-7.6c5.9-2.2,13.7-5.1,15.6-11.9c2.2-7.7-0.7-17.3-0.8-25.2
			c-0.1-8.5-2.6-16.7-4.4-24.9c-2-8.8-3.2-17.8-5.4-26.6c-2-8.1-5.1-15.2-8.2-22.9c-1.2-3.1-8.2-13.8-6-16.4c1.2-1.4,5.3-1.8,7-2.4
			c3.7-1.4,7.3-3,10.7-5c4.5-2.7,14.4-7.1,14.8-13c0.4-5.7-5.1-11.4-8-15.8c-4.6-7.2-10.3-13.4-14.6-20.7
			c-8.8-14.8-15.7-30.9-22.1-46.8c-3.3-8.3-4.4-16.2-5-25c9.7,0,19.6,1.2,29.2-0.1c10.5-1.5,21-4,31.4-6c18.9-3.7,37.1-8,54.7-16.4
			c16.4-7.9,33.1-16.5,46.7-29c7-6.5,14.2-13,20.3-20.4c6.2-7.6,10.9-16.2,15.8-24.7c5.3-9.4,9.5-19.3,12.9-29.6
			c0.7-2.1,0.7-4.7,1.5-6.7c1-2.2,2.7-2.3,4.6-3.4C263.6,132.4,265.3,126.9,260.8,126.1"/>
		<path class="st1" d="M34.9,20.8c2.2,1.9,11.8,8.6,14.9,7c3.8-2-2.2-8.1-3.8-9.6c-2.1-1.9-9.5-7.7-12.3-7.1
			C28,12.1,32.9,19,34.9,20.8"/>
		<path class="st1" d="M39.6,89.7c1.3-2.5,4.6-3.4,6.1-5.8c1.9-2.9,2.7-5.4,2-8.9c-4.7,1.6-10.1,6.4-13.3,10.2
			C31.8,88.4,28,95,34.9,95c-0.1-0.9-0.1-1.9-0.2-2.8C36.8,92.5,38.7,91.5,39.6,89.7"/>
		<path class="st1" d="M17,48.6c3.1,0.9,5.6,0.8,8.7,0.8c2.3,0.1,5.4,1.3,7.2-0.1c-1.6-0.9,0.4-1,0-1.9c-0.3-0.8-1-0.5-1.5-1.1
			c-1.9-2.2-3.5-2.2-6.5-2.6c-2.3-0.4-5.7-1.2-7.9,0C14.8,44.8,13.9,47.7,17,48.6"/>
		<path class="st1" d="M60.6,116.6c2-1.7,4.1-6.5,4.5-8.9c0.2-1-0.5-1.7-0.5-2.4c0.2-1.4,3-4,0-5.1c-2.6-1-5,6.6-5.6,8.3
			c-0.7,1.7-2.5,5-1.9,6.6C57.6,116.4,59.2,117.7,60.6,116.6"/>
		<path class="st1" d="M84.2,13.7c1.8-1.7,3-3.6,2.8-5.9c-0.1-1.8-1.5-8-3-7.8C78.9,0.6,81.2,16.5,84.2,13.7"/>
		<path class="st1" d="M-22.1,291.2c-0.4-1.5-1.9-10.8-4.5-10.2c-2,0.5,0.1,8.6,0.2,9.7c0.2,2.2-4.1,2.2-6.1,1.9
			c-3.2-0.5-2.9-2.3-3.4-5.2c-0.2-1.1-0.9-6-3.2-4.2c-1.5,1.2-0.4,7.3-0.3,8.7c0.4,4.8,1,13,3.8,17.4c1.1,1.7,2.2,2.6,3.4,0.4
			c1.2-2.3-1.5-9.2-2-11.5c2.3,0.2,8.8-0.5,10.2,1.8c1.2,2.1-0.7,8.3,3.3,8.8c2.4,0.3,1.9-2.5,1.7-4.6
			C-19.7,299.8-21,295.5-22.1,291.2"/>
		<path class="st1" d="M-16.1,289.1c-2.6,1.2,0.7,18.5,4.5,17.9C-7.1,306.3-13.6,287.9-16.1,289.1"/>
		<path class="st1" d="M-19,283.3c-0.3,3.9,4.7,5.3,5,1.1C-13.8,281.2-18.6,279.2-19,283.3"/>
		<path class="st1" d="M-46.8,180c2.3,8.6,23.4,12.3,20.5,0.7c-1.4-5.8-7.3-0.6-11.5-1.3C-40.4,178.9-48.4,173.9-46.8,180"/>
		<path class="st1" d="M-52.1,164.6c1-4.6-9.1-9.7-12.8-8.4c-5.4,1.9-5.3,13.7-1.2,16.9c0.5,0.4,2.2,1.4,3,0.6
			c1.3-1.2-0.1-0.9-0.4-2.2c-0.5-2-2-4.5-0.5-6.8C-61.1,160.5-53.5,171.2-52.1,164.6"/>
		<path class="st1" d="M-82.8,187c-3.6-0.2-6.6,5.4-1.3,5c1-0.1,3.2-0.3,3.8-1.4C-79.3,188.8-81.2,187.1-82.8,187"/>
		<path class="st1" d="M93.6,52.5c-1.2-1.8-3.9-4.7-6.1-2.9c-2,1.6-1.6,5.6-0.9,7.5c2.1,5.3,6.9,10,12.4,7
			C97.1,60.2,96,56,93.6,52.5"/>
	</g>
</g>
</svg>
