<?xml version="1.0" encoding="utf-8"?>
<!-- Generator: Adobe Illustrator 24.1.0, SVG Export Plug-In . SVG Version: 6.00 Build 0)  -->
<!DOCTYPE svg PUBLIC "-//W3C//DTD SVG 1.1//EN" "http://www.w3.org/Graphics/SVG/1.1/DTD/svg11.dtd" [
	<!ENTITY ns_extend "http://ns.adobe.com/Extensibility/1.0/">
	<!ENTITY ns_ai "http://ns.adobe.com/AdobeIllustrator/10.0/">
	<!ENTITY ns_graphs "http://ns.adobe.com/Graphs/1.0/">
	<!ENTITY ns_vars "http://ns.adobe.com/Variables/1.0/">
	<!ENTITY ns_imrep "http://ns.adobe.com/ImageReplacement/1.0/">
	<!ENTITY ns_sfw "http://ns.adobe.com/SaveForWeb/1.0/">
	<!ENTITY ns_custom "http://ns.adobe.com/GenericCustomNamespace/1.0/">
	<!ENTITY ns_adobe_xpath "http://ns.adobe.com/XPath/1.0/">
]>
<svg version="1.1" id="Layer_1" xmlns:x="&ns_extend;" xmlns:i="&ns_ai;" xmlns:graph="&ns_graphs;"
	 xmlns="http://www.w3.org/2000/svg" xmlns:xlink="http://www.w3.org/1999/xlink" x="0px" y="0px" viewBox="0 0 1024 614"
	 style="enable-background:new 0 0 1024 614;" xml:space="preserve">
<style type="text/css">
	.st0{fill-rule:evenodd;clip-rule:evenodd;fill:#1D58A5;}
	.st1{fill-rule:evenodd;clip-rule:evenodd;fill:#1C2540;}
</style>
<metadata>
	<sfw  xmlns="&ns_sfw;">
		<slices></slices>
		<sliceSourceBounds  bottomLeftOrigin="true" height="590.1" width="953.8" x="35" y="12"></sliceSourceBounds>
	</sfw>
</metadata>
<desc>Created with Sketch.</desc>
<g>
	<path id="Accent" class="st0" d="M738.3,488c-4.5,5.2-11.2,9.1-16.3,13.9c-5.4,5-11.2,9.4-16.6,14.4c-23.6-28.9-56-46.6-84-70.5
		c-13.3-11.4-23.1-26.8-30.2-42.6c-3.7-8.1-6.4-16.4-8.5-25.1c-1-3.9-1.9-7.8-2.5-11.7c-0.8-4.8-1-5.2-4.2-8.9
		c-1.4-1.6-4.1-6.3-6.8-5.8c-2.3,0.4-6.5,7.4-7.9,9.1c-6.9,8.3-13.7,16.8-21,24.7c-11.2,12.2-21.4,24.1-31.8,37
		c-21.2,26.4-44.2,51.2-67.3,76c-1.7,1.8-5.7,7.2-8.2,8c-3,0.9-7.9-2.8-10.9-4.8c-7.3-5-13-11.1-19.2-17.2
		c-12.1-12-20.4-28.8-25.9-44.8c-3.3-9.6-5.5-19.5-8.9-29.1c-1.4-4-4.7-8.9-3-12.3c0.5-1,3.6-3.8,4.7-4c1.3-0.2,3.5,1.5,3.9,1.4
		c4.3-1.2,1.9-5.7,4.5-8.1c1.4-1.4,8.8-1.2,11-1.9c8.1-2.8,15.3-8,22.9-11.2c31.9-13.2,64.1-26,91.6-47.5
		c7.1-5.6,11.9-9.8,20.4-13.4c8.6-3.6,17.2-6.9,26-10.1c7.7-2.8,15.5-5.4,23.5-7.4c8.6-2.2,20.9-4.9,29.6-2.1
		c17,5.5,22.5,19.5,29.2,34.2c9.1,20,20.2,38.8,32.2,57.2C687.8,420.7,715.8,452.4,738.3,488"/>
	<g id="ink" transform="translate(35.000000, 89.000000)">
		<path id="ink-layer" class="st1" d="M192.2,86.5c-0.9-0.5-8.2,2.5-9.4,2.9c-4.9,1.8-9.5,4.8-14.1,7.3c3.5,4.3,7.1,8.6,10.6,12.9
			C182.7,101.2,187.1,94.2,192.2,86.5L192.2,86.5z M194.6,139.3c-1.2,0.1,8.9,24.5,10.1,27.2c4.3,10,8.8,19.8,13.2,29.7
			c4.2,9.6,9.6,18.5,15,27.5c4.6,7.7,9.4,19.6,16.4,25.3c-4.4-19.5-3.8-42-16.5-58.4C219.7,173.6,206.8,157,194.6,139.3L194.6,139.3
			z M703.3,399.9c-19.6-31-44.1-58.4-64.5-88.8c-11.4-17-22.5-34.3-32.2-52.4c-7-13.2-11.3-32-22.1-42.1c-4.8-4.4-9.8-8.8-16.2-10.8
			c-8.7-2.7-20.8,0-29.6,2.1c-16.4,4-32.4,10.2-47.9,16.8c-15.7,6.6-29.1,18.6-43.3,28.1c-15.2,10.3-31.7,17.8-48.8,24.3
			c-14.9,5.7-28.1,13.9-42.9,19.6c-2.9,1.1-9,1-11.4,2.5c-2.7,1.6-1.6,6.4-4.8,8.1c-1.5,0.8-1.9-2.1-3.1-2c-1.4,0.1-2.6,1.7-3.9,2.7
			c-5.4,4.1-2.1,6.9,0,12.6c6.9,18.6,10.7,37.5,20.4,55.1c8,14.4,19.5,27.4,33,36.9c2.1,1.5,8.7,7.1,11.2,6.7
			c2.2-0.3,6.6-6.1,8.1-7.7c6.8-7.1,13-14.8,19.8-21.9c10.5-11,20.6-22.3,30.8-33.4c11.8-12.9,22.3-27.6,32.9-41.4
			c4.9-6.4,11.2-11.5,16.6-17.4c7.3-7.9,14-16.5,21-24.7c2.1-2.5,5.6-8.9,8.9-8.8c2.3,0.1,6.3,5.4,7.5,7.1
			c4.4,6.3,4.4,17.6,6.6,25.4c5.4,19.1,15.1,37.8,28.5,52.5c13.3,14.7,30.3,25.1,46,36.9c17,12.8,33.1,25.8,46.6,42.3
			c5.4-5,11.2-9.3,16.6-14.4C692.1,409,698.8,405.1,703.3,399.9L703.3,399.9z M451.5,487.6c3.8,0,10.2,2.4,13.6,1
			c-10.1-11.2-19.4-20.8-32.1-28.9c-13.3-8.5-26.5-16.9-39.3-26c-25.9-18.3-45-39.9-55.9-70.3c-2.8-7.8-4.7-16-6.7-24.1
			c-1.1-4.3-3.3-24.6-7-26.4c-2.2-1-18.8,10.6-21.4,12.1c-6.1,3.4-12.3,6-18.7,8.7c-13.6,5.7-27.7,10.1-42.2,13.7
			c-17.4,4.4-29.2-2.9-39.9-16.5c-12.2-15.5-22.3-32.9-33.5-49.2c-5.1-7.4-9.3-14.8-13-22.9c-2.5-5.3-12.2-19.7-8.8-25.4
			c9.6,7.3,13,21.8,19.6,31.6c8.1,12.2,17.3,23.7,25.5,35.8c6.9,10.2,13.9,22.6,24.1,30c8.9,6.5,17.4,4.5,27,1.6
			c11.7-3.5,23.7-5.3,35.2-9.6c12.4-4.7,24.1-11.4,36.1-16.9c5.6-2.5,12.4-4,17.7-7.2c4.6-2.7,3.9-4.2,4.2-10
			c0.4-6.8,0.8-13.6,1.1-20.4c0.2-4.6-2.3-10.8-0.6-14.2c-13.7,2.4-27.1,5.6-40.7,8.4c-7.4,1.5-14.6,3.4-22.1,4.7
			c-2.9,0.5-6.8,0.4-9.4,1.7c-2-0.6-3.1-0.2-3.1,1.1c-0.1,0.7-0.3,1.4-0.5,2.1c-4.2,1.9-6.6-2.2-10.3-6.1c-4.5-4.9-7.9-10.3-11.2-16
			c-7.4-12.7-15.9-24.7-22.7-37.8c-7-13.4-12.6-27.7-18.5-41.5c-5.4-12.7-8.9-26.5-14.8-38.9c-2.7-5.5-6-10.1-10-14.8
			c-3.3-3.9-8.3-12.2-13.1-14c-1.3-0.5-4.7,0.3-6.1,0.2c-2.9-0.2-5.5-1.3-8.5-1c-6.5,0.5-13.5,4.6-18.6,8.2c3.3,3,11.7,6.6,5.7,11.9
			c-5.8,5.2-9-4.1-11.2-8.2c-10.4,8.6-8.9,20.4-10.1,32.5c-0.6,6.3-2.3,12.6-3.4,18.8c-0.8,4.5-0.2,9.1-0.4,13.7
			c-0.6,11.6-1.7,22.8-1.7,34.2c0.1,12.3,0.9,24.1,1.9,36.3c1.7,20.5,5.4,41,8.7,61.3c1.8,11.4,4.3,22.5,6.7,33.8
			c2.8,12.8,7.8,24.8,10.7,37.6c2.9-3.7,5.1-3.7,9.8-3.2c3.6,0.4,6.1-0.5,5.8,4.5c-0.1,3.3-3,5.7-6.2,6.3c-4.1,0.7-5.6-1.3-7.7-4.5
			c-0.5,5.9,3.5,12.2,5.1,18c1.5,5.5,2.5,10.9,5,16.2c2.5,5.1,4.6,10.2,7,15.3c1.1,2.3,2.2,4.7,3.4,7.1c0.6,1.2,1.3,2.8,2.1,3.8
			c2,2.3,1.7,1.2,4.1,2.5c5.2,2.9,3.3,2.2,3.4,8.2c0.1,5.9,3.1,10.2,8,13.6c10.3,7,20.5,9,32.2,12.6c10.9,3.3,22.4,6.2,34,6.1
			c14.2-0.1,28.1-1.9,42.3-2.1c15.6-0.2,31.4-0.1,47,0.4c6.4,0.2,12.4,0.5,18.6,2.1c7.2,1.9,14.2,1.2,21.6,0.9
			c15.8-0.6,32.2-1.8,47.8-2C428.3,487.7,440.2,486.9,451.5,487.6L451.5,487.6z M862,493.7c2.8,1.5,9.1,0.9,12,0.5
			c5-0.7,5.5-2.7,8.7-7.1c5.4-7.7,9.9-15,13.1-23.9c6.1-17,8.6-34.3,11.3-52.1c3-19.7-2.5-40.2-4.4-59.8c-0.4-4.5-1.1-8.9-1.8-13.4
			c-0.4-2.7-0.5-11.7-2.3-14c-3.4-4.4-19.1-0.9-25.2-0.5c-17.2,1.1-34.5,1.4-51.7,1.6c-9.2,0.1-18.4,0.5-27.5,0.6
			c-4.2,0-8.2-0.2-12.4-0.6c-1.4-0.1-2.8-0.5-4.2-0.5c-4.8-0.3-4.5-1-5.7,3.3c-2.2,7.5-0.5,17-1.1,24.8c-0.8,10.4-1.2,20.9-1,31.3
			c0.2,9.6-0.2,19.2,0.2,28.9c0.2,4,0.6,7.2,1.6,11.1c1.2,4.3,2.5,14.4,5.5,17.4c0.3,0.3,2.9-0.5,3.5,0.4c1,1.3,0.8,4.1,1.6,4.9
			c2.3,2.7,7,2.9,10.5,4.2c9.4,3.4,18.1,7,27,11.5c7.9,4,20.7,7.5,25.5,15.5c2.2,3.7,2.5,8.5,4.5,12.3c2.3,4.3-2.3,2.1,3.3,3.8
			C855.4,494.5,859.4,493.7,862,493.7L862,493.7z M25.3,445c-0.7,9.9-6.3,19.4-8.3,29.2c-0.9,4.6-2.5,9.1-3.5,13.6
			c-1,4.4-4.7,9.5-4.4,13.8c13.7-4.9,27.6-6.1,41.9-7.4c13.6-1.2,27.9-1.7,41.4-1.8c13.7,0,28.4-1.3,42.5-1.6
			c14.8-0.2,29.8-0.6,44.3-2.1c-7.6-5.6-17.1-10.9-22.8-18.8c-6.1-8.5-9.3-19.2-14.7-28.2c-10.8-18.1-17.7-40.5-23.3-60.8
			c-11.4-41-24.2-81.2-27.3-123.7c-5.9,3-10.5,14.6-13.4,20.4C74,285,72,293,69.6,300.9c-5,16.2-8.5,33-14.6,49
			C43.4,380.7,35.9,413.8,25.3,445L25.3,445z M769.4,206.3c2.5,18.3,7.9,36.9,8.1,55.4c0,4.1-0.6,8.6,0.2,12.6
			c0.9,4.3,3.9,8.1,5.6,12.2c2.7,6.5,9.6,19.8,2.9,25.2c-0.1-5.2-4.9-11.8-7.3-16.4c-3.6-6.9-8.4-13.1-12.3-19.8
			c-8.2-14-17.4-27.7-28-40.1c-10.3-12-22.2-22.7-33.1-34.2c-3.3-3.4-29.6-36.6-30.7-36.1c8.2,31.5,22.1,58.9,41.1,85.3
			c9.3,12.9,20.5,21.4,31.9,32.4c9.4,9.1,27.3,18.9,24,33.8c14.8-1.4,29.4-3.7,44.3-3.7c-2.5-18.9-4.3-37.4-8.7-56
			c-5-21.1-8.3-42.8-12.5-64c-4.3-21.7-11.6-42.7-16.1-64.4c-4.3-20.7-8.1-41.4-11.2-62.4c-2.6,11.6-1.7,24.4-2.6,36.2
			c-1,12.1-0.9,24-0.5,36.2C764.9,161.3,767.3,183.7,769.4,206.3L769.4,206.3z M833.4,98.4c0.1-9.7,2-19.2,2.5-28.9
			c0.2-3,3.1-23.2,0.4-24.2c-2.3,4.9-2.8,11.3-4.9,16.4c-2.1,5.2-4.8,10.1-6.8,15.3c-4.3,11.3-5.7,24.1-6.2,36.1
			c-1,27.2-1.6,54.2,0.2,81.4c0.8,11.6,1.4,23.3,1.2,35c-0.2,12.8-2.2,24,0.2,36.7c2.4,12.6,3.8,25.2,4.6,37.9
			c0.6,9,0.8,8.3,9.3,7.7c6.2-0.5,12.4,0,18.6-0.3c-2.9-35-3.4-70-8-104.9c-2.4-17.8-2.4-35.8-5.4-53.5c-1.5-8.8-3.9-17.4-5.3-26.2
			C832.5,117.4,833.3,107.9,833.4,98.4L833.4,98.4z M207.3,76.4c16.5,1.4,34,6.4,50.9,3.1c-2.8-1.1-10.1-2.7-6.8-7.1
			c3.3-4.5,9,1.2,12.3,0.6c2.1-0.4,6.6-8.9,7.8-10.7c2.9-4,3.2-4.7,8.4-5.8c5-1,6.1,0.1,6.8-4.9c0.7-5.7-1.2-12.1-1.1-18
			C286,21,290.1,10,293.9-1.8c-16,3.5-31.7,7.6-48.1,9.9c-7,1-17.9,3.2-24.3-1.6c-1.7-1.2-1.4-2.9-2.7-4.4c-2.3-2.4-6.5-4.9-9.7-5.6
			c-19.8-4.2-21.8,24.1-11.8,34.7c2.5,2.7,6,4,8.5,6.4c3.4,3.2,3.7,6.7,4.2,11.6c0.9,9.3-0.3,18.6-4.3,27.1L207.3,76.4z
			 M448.1,209.9c5.9,1.1,12,0.9,17.8,1.8c2.1,0.3,8.3,1.5,10.2,0.3c2.8-1.9,3.8-8.7,5.1-11.9c2.3-5.6,5.6-10.5,7.8-16.2
			c9.1-23.3,17.5-46.6,28.5-69.1c-4.2-1.1-7.4-1.1-11.7-1.7c-4.4-0.6-8.4-3.2-12.6-4.3c-4-1.1-8.2-0.8-12.2-2
			c-2.2-0.7-4.1-2.2-6.2-2.7c-3.4-0.8-7.4-1.3-9.5,0.9c-2.1,2.3-2.8,8.7-4,11.6c-3,8-6.6,15.6-9.1,23.8c-2.3,7.3-4.5,14.6-6.5,22
			c-2.1,7.8-6.3,14.3-8.9,21.8c-1.9,5.7-3.8,11.5-4.1,17.6c-0.3,5.9-1.1,6.3,4.8,7.2C440.7,209.5,445.3,211.3,448.1,209.9
			L448.1,209.9z M833.6,487.1c1.5,0.7,3,0.6,4.3-0.3c-13.2-5.6-26.1-13.3-39.9-17.2c-12.9-3.6-25.5-7.9-38-12.3
			c-10.1-3.6-19.2-6.4-28.4-12.7c-5.6-3.8-10.5-8.2-14.3-13.8c-4.3-6.3-5.2-15.2-9.8-20.8c-6.2,6.8-13.5,12-20.9,17.4
			c-2.5,1.9-8.7,6-9.5,8.9c-1.1,3.7,1.8,7.2,3.3,10.9c3.7,9.5,5.6,19,7.6,28.9c0.8,4,2.6,9.9,5.8,11.6c3,1.5,11.5,0.4,15.2,0.1
			c19.2-1.5,38.1-2.9,57.5-1.6C788.4,487.6,811.8,488.7,833.6,487.1L833.6,487.1z M872,310.9c3.5,0,6.9-0.4,10.4-0.4
			c-2-9.4,2.7-21.5,4.4-30.9c1.9-10.5,3.3-21.3,4.5-31.9c2.6-22.2,3.8-44.2,3.8-66.6c0-21.7,4-41.5,9.5-62.4
			c5.9-22.4,15.7-42.5,23.7-64.1c-8.8,4.7-13.7,15.6-18.3,23.9c-5.9,10.5-9.8,22.2-12.2,34.1c-4.6,22.8-9.7,45.7-15,68.5
			c-5.5,23.7-8.8,47.7-15.2,71.2c-3.1,11.5-7.3,25.6-7.5,37.4c-0.1,4.9-1.6,15.2,0.6,19.4C862.9,313.2,867.5,311.3,872,310.9
			L872,310.9z M344.5,281.5c-0.2,2.4-0.4,4.8-0.8,7.2c4.8,0,11-5.1,15.1-7.3c5.1-2.7,10.1-5.8,15.1-8.5c9.6-5.3,20.4-8.8,30.6-13.2
			c11.7-5,22.5-11.1,33.7-17.2c3.9-2.1,32-14.3,31.6-17.6c-6.2-0.2-12.3-0.4-18.5-0.6c-5.3-0.2-13.5,1-18.6-0.6
			c-2.8-0.9-5.9-4.2-6.9-6.8s1.3-14.3-0.1-15.1c-6.9,7.1-11.3,16.4-17.4,24c-6.8,8.4-15.6,13.3-25.4,17.8
			c-10.7,4.9-21.9,8.8-32.8,13c-4.6,1.8-4.5,2.8-4.9,7.9C344.6,270.1,344.7,275.8,344.5,281.5L344.5,281.5z M902.4,494.8
			c11.6,1.2,23.6,0.5,35.3,1.5c4.3,0.4,10.2,0.9,5.9,6.6c-2.7,3.6-11.4,2.5-15.3,2.7c-10.5,0.7-21.7,0.3-32.3,0.2
			c-2.2,0-4.7-0.7-6.9-0.5c-2.6,0.2-5.7,2-8.1,2c-1.5,0-2-1.5-3.2-1.7c-2.7-0.3-5.5-0.5-8.2-0.5c-41.8,0-83-0.8-124.7-0.9
			c-19.9,0-40.2-0.4-60.1-1.3c-4.2-0.2-28,0.7-27.4-6.9c0.3-3.9,8.1-4.4,11-4.8c2.1-0.3,4.3-0.3,6.4-0.4c5.6-0.3,8,1,6.9-5.1
			c-4.5-23.2-12.5-42.4-29.7-59.1c-14-13.7-30.9-26-46.8-37.5c-19.3-13.9-34.9-28.4-46.4-49.6c-6.7-12.4-12.3-25-15.7-38.7
			c-1.2-4.9-1.3-10.5-2.8-15.3c-1.2-3.7-3.8-6.2-5.4-10c-19.2,32-44.6,58.9-67.9,87.8c-11.1,13.8-23.9,26.9-37.2,38.9
			c-4,3.6-7.6,7.3-11.3,11.1c-3.1,3.2-8,6.1-10.6,9.6c-2.5,3.4-1.9,3.3,1.9,6c5,3.6,10.6,6.6,15.7,10.1c8.2,5.6,17.1,10.3,24.4,17
			c7.9,7.3,14.8,15.7,21.7,23.9c4.6,5.5,10.6,12.5,11.8,19.4c0.4,2.3,1.8,7.9-0.1,9.6c-1.6,1.4-1.5,0.9-3.5,0
			c-2.7-1.1-3.5-3.8-6.7-5c-8.3-3.2-18.4-2.1-27.1-2.1s-17.4,0.9-26.1,0.9c-19.8-0.1-39.2,1.5-59,2.4c-21,0.9-42.3-1.3-63.3-1
			c-15.5,0.2-31.5-0.9-47.4-0.1c-8.2,0.4-16.3-0.6-24.3-0.7c-10.5-0.2-21.2,1.3-31.8,1.5c-17.4,0.3-34.5,0.3-52,0.8
			c-37.6,0.9-74.9,1.8-112.5,2.4c-5,0.1-10.5-0.1-15.5,0.5c-5.3,0.6-2.5,1.7-6.2,3.6c-10.1,5.3-7.8-14.3-7.5-18.2
			c1.3-20.7,6.6-41,12.9-60.6c6-18.6,10.9-38.1,15.9-57.2c5.6-20.8,12.8-40.8,19.4-61.5c6.7-21.1,12.2-43.1,24.4-61.8
			c2.8-4.3,5.7-8.9,10.1-11.6c5-3,5.2-1.3,5.2-6.8c0-5.2,0.3-12.1-0.9-17.1c-1.1-4.5-0.9-1.8-3.4-5c-2-2.6-4.2-4.4-5.6-7.6
			c-9,9.1-29.5,4.3-38.1-2.2c-10.6-8-18.7-21.5-21.6-34.4c-2.4-10.3,0.5-30,12-35c5.6-2.4,26-4.3,26.9-12.1
			c0.4-4.1-6.8-9.8-8.4-13.3c-3.1-6.5-6-15.1-6.9-22.2C40.5,71.6,46.8,56,56.8,46.7c18.4-17.2,50.8-26,74.5-15.1
			c-5-19.1-8-35.6-5.5-55.5C128-41,138.1-50.6,152-59.2c23.7-14.6,56-20.3,83.2-16.1c6.2,1,12.1,3,17.8,4.7
			c8.3,2.4,18.2,1.6,26.1,5.5c5.7,2.8,10,8.4,15,12.2c5.8,4.4,10.7,10.9,14.7,16.9c8.7,12.9,5.3,36.8-2,49.7c-1.6,2.8-3.5,5.1-6,7
			c-2.7,2-6.8,2.6-8.1,5.1c-3.5,6.5-0.1,20.7,0.3,27.8c0.5,8.2-3.6,14.4-12.9,15c-5.4,0.4-5.6-2.7-8.1,3.7
			c-1.7,4.2-3.2,8.7-5.6,12.5c-5,7.9-14.1,7.1-22.4,6.9c-9.6-0.2-19.1-1.8-28.7-2.7c2.5,8.1,9.5,14.4,13.8,21.7
			c5.9,9.8,9.4,17.9,10.4,29.3c0.7,8.8-0.8,15.7-6.9,22.2c-2.5,2.7-4.7,2.8-4.1,6c0.4,1.9,3.7,5,4.8,6.6c3.1,4,6.7,7.7,9.4,12
			c10.4,16.5,13.5,41.7,13.5,60.9c0,0.9,0.5,2.8,0.1,3.7c-0.3,0.7-2.5,2.8-2.5,3c-0.4,2.5,2,6.7,5.8,7.1c4,0.4,11.2-2.9,14.9-4
			c5.9-1.7,11.9-3,17.8-4.8c9.5-2.9,19-5.2,28.7-7.5c4.4-1,8.8-1.9,13.2-2.8c5-1.1,7.3-3.2,9.9,1.9c2.2,4.4,0.8,5.2,6.2,3
			c5.3-2.2,10.5-4.9,15.7-7.4c9.2-4.3,20.1-8.2,28-14.6c13.2-10.7,18.1-27.8,30.7-39.1c3.5-3.2,5.6-3.2,7.8-7.6
			c2.4-4.7,3.6-10.7,4.9-15.8c2.2-8.8,3.8-17.7,5.7-26.5c2.5-11,7.8-21,11.7-31.4c1.5-4.1,2.3-9.3,4.8-13c0.7-1,1.9-1.5,2.4-2.3
			c1.7-2.8,1.7-3.5,2.2-6.9c2.1-15.6,11.4-7.4,21.5-3.8c4.3,1.5,24.6,11.2,16.8,17.7c9.2,2.7,24,1.2,23.9,14.5
			c-0.1,6.8-4.1,14-6.3,20.4c-1.9,5.6-3.8,11.3-5.8,16.9c-4.3,12.3-9.5,24.3-13.7,36.7c-1.9,5.6-3.5,11.4-6.2,16.7
			c-2.4,4.7-8,9.9-9,15c24.6-10.5,47.4-25.7,75-24.7c12.1,0.4,23,5.5,29.7,16.1c8.4,13.3,13.9,28.2,22,41.6
			c29.7,48.8,65.1,93.2,97.8,140c2.5,3.6,5.7,7,6.6,11.4c0.6,2.9-0.5,5.8,0.1,8.6c1.4,5.8,8.5,13,13.4,16.3
			c9.3,6.4,24.3,15.4,35.9,14.6c-7.3-17.4-7.2-36.5-6.8-55.2c0.3-17.7,2.2-35.2,4.5-52.7c0.5-4,1-7.6,2.1-11.5
			c1.3-4.4,3.1-4-0.8-7.9c-6-6.1-13.2-11.1-19.2-17.3c-13.1-13.3-26.6-23.8-36.9-39.7c-9.8-15.1-20.2-30.7-27.4-47.3
			c-7.5-17.1-10.5-35.3-14.2-53.4c-1.5-7.3-7-15.5-5.9-23.2c1.4-9.7,5.9-2.6,7.7,2.6c5.6,15.9,18.6,30.1,29.5,42.9
			c11.7,13.8,26,25.4,38.2,38.8c13.3,14.6,22.4,31.4,34.2,47c0-19.4-6.6-39.1-9.3-58.2c-2.4-16.9-3.1-33.8-4.6-50.7
			c-3.4-38.5-0.5-78,4.3-116.2c2.3-18.1,1-35.8,1.1-54c0-5.8-2.4-19.1,0.7-24.3c5.9-9.8,9.3,11.7,9.6,14.9c1.8,19.1-1.4,38,0.2,57.1
			c1.7,19.9,5.4,39.2,8.5,58.8c3.4,21.3,8.9,42.1,14.2,62.9c5.5,21.9,10.2,44.3,16.4,66c1.7-6.8-0.7-15.2-1.1-22.2
			c-0.7-10-1.9-19.9-2.1-29.9c-0.2-15.9-0.3-32.1,0.6-47.9c0.9-15.6,0.6-32,5.4-47c2.3-7.1,5.6-14.1,8.9-20.8
			c4-8.3,5.4-16.3,7.7-25.1c1.9-7.6,4.7-14.9,6-22.6c0.8-4.8,3-18.9,8.5-8.2c3.2,6.2,1.8,15.4,1.9,22.1c0.1,8.6-1.2,16.9-1.4,25.4
			c-0.4,16.7-0.7,33.4-1.9,50.1c-1.3,17.5-0.2,33.2,3.2,50.5c3.6,18.9,4.7,37.8,6.6,57c1,9.9,2.6,19.7,3.4,29.6
			c0.4,5.2-1.7,20.3,2,24c0.4-9.1,3-18.2,4.9-27c2.3-10.5,3.3-21.5,5-32.1c2.8-17.2,8.2-33.7,11.8-50.7
			c7.4-35.1,13.5-80.2,44.4-103.1c4-3,8.5-5.2,12.9-7.7c2.5-1.4,6.2-5,9-5.7c3.1-0.7,4.4-0.2,5.6,3.4c1.7,5-1.4,7.3-4.4,11
			c-10.3,12.6-14.7,28.7-21.1,43.4c-14.6,33.7-21.1,69.3-21.1,105.8c0,19.1-1.4,37.5-3.4,56.5c-2.2,20.4-5.1,42-11.3,61.7
			c6.2,1.4,13-0.7,14.7,6.5c0.4,1.8-0.3,3.9,0.1,6.2c0.4,2.2,1.5,4.5,2.2,6.7c1.3,4.6,2,9.1,2.6,13.8c2.5,18.1,6.7,35.4,7.2,53.8
			c0.4,17-2.9,34.2-6,50.9c-3.1,16.8-12,31.1-18.9,46.3C896.4,494.8,899.4,494.8,902.4,494.8L902.4,494.8z"/>
		<path class="st1" d="M507.4,456.2c-3.3,0.9-19.3,2.7-19.3,7.7c0,3,16,2.9,18.8,3.3C507.1,463.6,507.3,459.9,507.4,456.2
			 M542.7,490.8c9.2,1.8,21.7-0.7,27.6-8.8c2.8-3.8,4.1-9.6,5-14.1c0.9-4.3,3.5-15.1,1.7-19.1c-2.2-5-23.4,0.2-29.5,0.8
			c-10.7,1-21.9,1.1-32.6,0.4c0,11.1-0.6,21.9,6,31.5C525.5,488.4,534.3,490,542.7,490.8 M540.9,504.5c-10-3.7-20.5-1.3-27-12
			c-1.7-2.7-3-5.7-4-8.7c-0.5-1.3-0.9-2.7-1.1-4.1c0.5-3-0.6-3.8-3.3-2.5c-5.3-1-11.1,2.6-16.7,1.5c-13.5-2.6-11.1-22-2-28.7
			c1.8-1.3,3.6-1.7,5.6-2.4c4.5-1.4,7,0.2,11.1-0.2c3.4-0.3,4.3-3.8,7.9-5.4c2.4-1,5.6-0.9,8.1-1c13-0.5,26-0.5,39-1.4
			c6.1-0.4,12.7,0.6,18.6-0.5c2.8-0.5,2.4-2.3,5-0.7c2.7,1.7,1.6,7.9,1.4,10.4c-0.8,14.4-1.7,29.8-9.4,42.4
			C567.1,502.8,553.2,504,540.9,504.5"/>
		<path class="st1" d="M12.5,508.5c3.2,0,6.4-0.1,9.6-0.1C18.9,508.4,15.7,508.5,12.5,508.5"/>
		<path class="st1" d="M906.3,201.6c0-3.1,0-6.2,0-9.3C906.3,195.5,906.3,198.5,906.3,201.6"/>
		<path class="st1" d="M87.5,214.3c0,3,0,6,0,9C87.4,220.3,87.5,217.3,87.5,214.3"/>
		<path class="st1" d="M355,505.1c2.6,0,5.1,0,7.7,0C360.1,505.1,357.6,505.1,355,505.1"/>
		<path class="st1" d="M199.5,504.5c2.6,0,5.1,0,7.7,0C204.6,504.5,202.1,504.5,199.5,504.5"/>
		<path class="st1" d="M759.5,379.4c-0.1,2-0.2,4.1-0.3,6.1C759.2,383.4,759.3,381.4,759.5,379.4"/>
		<path class="st1" d="M902.4,494.8c-2,0-4,0-5.9-0.1C898.5,494,900.5,494,902.4,494.8"/>
		<path class="st1" d="M726.7,503.9c1.4,0,2.8,0,4.2-0.1C729.6,503.8,728.1,503.8,726.7,503.9"/>
		<path class="st1" d="M905.5,226.7c0-1.5,0.1-3.1,0.1-4.6C905.6,223.7,905.6,225.2,905.5,226.7"/>
		<path class="st1" d="M772.7,32.3c-0.1-1.6-0.2-3.2-0.4-4.8C772.5,29.2,772.6,30.7,772.7,32.3"/>
		<path class="st1" d="M906.2,207.7c0-1.6,0-3.2,0.1-4.8C906.3,204.5,906.2,206.1,906.2,207.7"/>
		<path class="st1" d="M459.5,501.9c1.3,0,2.5,0,3.8,0.1C462.1,501.9,460.8,501.9,459.5,501.9"/>
		<path class="st1" d="M784.8,504.5c1.2,0,2.5,0,3.7,0.1C787.3,504.5,786.1,504.5,784.8,504.5"/>
		<path class="st1" d="M918.2,392.8c-0.1-1.4-0.2-2.8-0.3-4.2C918,390,918.1,391.4,918.2,392.8"/>
		<path class="st1" d="M896,505.8c1,0,2,0,3,0C898,505.8,897,505.8,896,505.8"/>
		<path class="st1" d="M759.1,504.5c1,0,2,0,3-0.1C761.1,504.5,760.1,504.5,759.1,504.5"/>
		<path class="st1" d="M535.4,503.8c1.1,0,2.2,0,3.3,0C537.6,503.8,536.5,503.8,535.4,503.8"/>
		<path class="st1" d="M282.8,503.8c1,0,2.1,0,3.1,0C284.9,503.8,283.9,503.8,282.8,503.8"/>
		<path class="st1" d="M221.4,503.9c1.1-0.1,2.1-0.1,3.2-0.2C223.5,503.8,222.4,503.9,221.4,503.9"/>
		<path class="st1" d="M515.6,99.3c-1.6-0.1-3.2-0.3-4.7-0.4C512.4,99,514.1,98.1,515.6,99.3"/>
		<path class="st1" d="M918.3,495.4c-1.6-0.2-3.1-0.3-4.7-0.5C915.2,495.1,916.8,495.3,918.3,495.4"/>
		<path class="st1" d="M809.7,108.9c-0.1,1.4-0.2,2.7-0.3,4.1C809.5,111.6,809.6,110.3,809.7,108.9"/>
		<path class="st1" d="M906.6,165.8c0.1-1.3,0.2-2.6,0.3-3.9C906.8,163.2,906.7,164.5,906.6,165.8"/>
		<path class="st1" d="M809.1,130.1c-0.1,1.4-0.2,2.7-0.3,4.1C808.8,132.8,808.9,131.4,809.1,130.1"/>
		<path class="st1" d="M906,218.1c0-1.3,0-2.6,0-3.9C906.8,215.4,906.7,216.7,906,218.1"/>
		<path class="st1" d="M759.5,407.2c0,1.3,0,2.6,0,4C758.6,409.8,758.7,408.5,759.5,407.2"/>
		<path class="st1" d="M858.8,254.5c-0.2-1.3-0.3-2.7-0.5-4C858.5,251.8,858.6,253.1,858.8,254.5"/>
		<path class="st1" d="M36.5,131.8c-1,1.4-2.4,0.4-3.7,0.6C34.1,132.2,35.3,132,36.5,131.8"/>
		<path class="st1" d="M547.3,440.6c-1.3,0-2.6,0-3.9,0C544.7,440.6,546,440.6,547.3,440.6"/>
		<path class="st1" d="M755.8,137.5c0.1,1.1,0.2,2.2,0.4,3.3C756,139.7,755.9,138.6,755.8,137.5"/>
		<path class="st1" d="M110.9,27.2c-1.3,0-2.6,0.1-3.9,0.1C108.2,26.5,109.5,26.3,110.9,27.2"/>
		<path class="st1" d="M809,149.3c-0.1,1.2-0.2,2.3-0.3,3.5C808.9,151.6,808.9,150.4,809,149.3"/>
		<path class="st1" d="M773,6.4c0.1-1.1,0.2-2.1,0.3-3.2C773.2,4.3,773.1,5.3,773,6.4"/>
		<path class="st1" d="M762.7,3.1c-0.1,1.2-0.2,2.3-0.3,3.4C762.5,5.4,762.6,4.2,762.7,3.1"/>
		<path class="st1" d="M192.8-73.8c-1.3,0.2-2.7,0.3-4,0.5C190.2-73.5,191.5-73.6,192.8-73.8"/>
		<path class="st1" d="M96.4,28.1c-1.4,0.1-2.7,0.3-4.1,0.4C93.7,28.4,95,28.3,96.4,28.1"/>
		<path class="st1" d="M847.2,31.5c0.1-1.1,0.2-2.1,0.2-3.2C847.3,29.4,847.2,30.4,847.2,31.5"/>
		<path class="st1" d="M51.5,208.3c0.8,0,1.6,0,2.4,0C53,208.3,52.2,208.3,51.5,208.3"/>
		<path class="st1" d="M762.8,340.4c-0.1,1.2-0.2,2.4-0.2,3.6C762.6,342.8,762.7,341.6,762.8,340.4"/>
		<path class="st1" d="M843.3,109.6c0-1.1-0.1-2.3-0.1-3.4C843.2,107.4,843.2,108.5,843.3,109.6"/>
		<path class="st1" d="M226.4-76.5c-1.2,0-2.4,0-3.6,0C224-77.3,225.2-77.3,226.4-76.5"/>
		<path class="st1" d="M551.4,192.5c-1.3,0-2.7,0.1-4,0.1C548.7,191.7,550,191.7,551.4,192.5"/>
		<path class="st1" d="M667.8,501.8c0.8,0,1.6,0,2.4,0.1C669.4,501.9,668.6,501.9,667.8,501.8"/>
		<path class="st1" d="M697.6,503.2c0.8,0,1.6-0.1,2.4-0.1C699.2,503.2,698.4,503.2,697.6,503.2"/>
		<path class="st1" d="M231.9,503.8c0.8,0,1.6,0,2.5,0.1C233.5,503.8,232.7,503.8,231.9,503.8"/>
		<path class="st1" d="M917.5,379.5c-0.1-1.1-0.2-2.3-0.4-3.4C917.3,377.3,917.4,378.4,917.5,379.5"/>
		<path class="st1" d="M810,189c0.1,1.1,0.2,2.2,0.3,3.2C810.2,191.2,810.1,190.1,810,189"/>
		<path class="st1" d="M851.4,170.5c-0.1-1.1-0.3-2.3-0.4-3.4C851.1,168.3,851.3,169.4,851.4,170.5"/>
		<path class="st1" d="M238.6,504.5c0.8,0,1.7,0,2.5,0C240.2,504.4,239.4,504.4,238.6,504.5"/>
		<path class="st1" d="M540.9,504.5c0.8,0,1.6-0.1,2.4-0.1C542.5,504.5,541.7,504.5,540.9,504.5"/>
		<path class="st1" d="M844.6,87.2c0-1.2-0.1-2.3-0.1-3.5C844.6,84.8,844.6,86,844.6,87.2"/>
		<path class="st1" d="M159.9,505.2c0.8,0,1.6,0,2.4,0C161.5,505.2,160.7,505.2,159.9,505.2"/>
		<path class="st1" d="M844.3,505.2c0.8,0,1.7,0,2.5,0C846,505.2,845.1,505.2,844.3,505.2"/>
		<path class="st1" d="M862.3,505.1c0.8,0.1,1.6,0.1,2.4,0.2C863.9,505.2,863.1,505.2,862.3,505.1"/>
		<path class="st1" d="M869.5,505.1c0.8,0,1.6,0,2.4,0.1C871.2,505.1,870.4,505.1,869.5,505.1"/>
		<path class="st1" d="M906.8,175.1c-0.1-1.1-0.1-2.3-0.2-3.4C906.7,172.9,906.8,174,906.8,175.1"/>
		<path class="st1" d="M357.5,490.2c2.5-0.1,5-0.3,7.5-0.4C362.5,489.9,360,490,357.5,490.2"/>
		<path class="st1" d="M207.3,76.4c2.2,0.2,4.3,0.4,6.5,0.6C211.6,76.7,209.5,76.6,207.3,76.4"/>
		<path class="st1" d="M817.4,170.3c0.1,2.1,0.1,4.1,0.2,6.2C817.6,174.4,817.5,172.4,817.4,170.3"/>
		<path class="st1" d="M862,493.7c2.3,0.1,4.5,0.3,6.8,0.4C866.5,494.2,864.2,494.9,862,493.7"/>
		<path class="st1" d="M848.7,249.8c0-2,0-3.9,0-5.9C848.7,245.9,848.7,247.8,848.7,249.8"/>
		<path class="st1" d="M842.9,311.6c2,0,4,0.1,5.9,0.1C846.9,311.6,844.9,311.6,842.9,311.6"/>
		<path class="st1" d="M344.6,277c0,1.5-0.1,3-0.1,4.5C344.5,280,344.6,278.5,344.6,277"/>
		<path class="st1" d="M875.9,213.5c-0.1,1.5-0.2,3-0.2,4.5C875.7,216.5,875.8,215,875.9,213.5"/>
		<path class="st1" d="M833.6,487.1c1.4-0.1,2.9-0.2,4.3-0.3C836.9,487.6,835.8,487.7,833.6,487.1"/>
		<path class="st1" d="M824,292.1c0.1,1.6,0.2,3.2,0.3,4.8C824.2,295.3,824.1,293.7,824,292.1"/>
		<path class="st1" d="M285.6,38.3c0-1.6,0-3.1,0-4.7C285.6,35.2,285.6,36.7,285.6,38.3"/>
		<path class="st1" d="M825.7,311.9l5.4-0.1C829.3,312.7,827.5,312.7,825.7,311.9"/>
		<path class="st1" d="M875.3,323.4c-1.3,0-2.5,0-3.8,0C872.7,323.4,874,323.4,875.3,323.4"/>
		<path class="st1" d="M411.8,487.7c1.8,0,3.5,0,5.3,0.1C415.3,488.6,413.5,488.8,411.8,487.7"/>
		<path class="st1" d="M81.7,492.8c1.8-0.2,3.6-0.3,5.3-0.5C85.3,492.5,83.5,492.7,81.7,492.8"/>
		<path class="st1" d="M818.1,183.6c0.1,1.6,0.2,3.2,0.3,4.8C818.2,186.8,818.1,185.2,818.1,183.6"/>
		<path class="st1" d="M250.5,80.2c1.5-0.7,3-0.9,4.5-0.1C253.5,80.1,252,80.1,250.5,80.2"/>
		<path class="st1" d="M769,202.2c0.1,1.4,0.2,2.7,0.4,4.1C769.3,204.9,769.2,203.6,769,202.2"/>
		<path class="st1" d="M895.7,170.4c-0.8-1.3-0.7-2.7,0-4C895.7,167.8,895.7,169.1,895.7,170.4"/>
		<path class="st1" d="M818.3,124.2c0,1.3,0,2.7,0,4C818.3,126.9,818.3,125.5,818.3,124.2"/>
		<path class="st1" d="M872,310.9c1.5-0.5,3.1-1.1,4.6,0C875.1,311,873.6,310.9,872,310.9"/>
		<path class="st1" d="M373.4,489.6c1.6-0.1,3.1-0.3,4.7-0.4C376.5,489.3,375,489.4,373.4,489.6"/>
		<path class="st1" d="M160.6,489.6c1.4-0.6,2.8-1,4.2,0C163.4,489.6,162,489.6,160.6,489.6"/>
		<path class="st1" d="M451.5,487.6c1.5-0.7,3-1,4.5,0C454.5,487.6,453,487.6,451.5,487.6"/>
		<path class="st1" d="M113,290.8c0.1,1.4,0.2,2.7,0.3,4.1C113.2,293.6,113.1,292.2,113,290.8"/>
		<path class="st1" d="M466,211.7c1.5-0.5,3-0.8,4.5,0.1C469,211.8,467.5,211.8,466,211.7"/>
		<path class="st1" d="M818,252.6c0.1,1.3,0.2,2.7,0.2,4C818.2,255.3,818.1,254,818,252.6"/>
		<path class="st1" d="M112,131.5c-0.1,1.1-0.2,2.2-0.4,3.2C111.7,133.7,111.9,132.6,112,131.5"/>
		<path class="st1" d="M25.3,445c-0.1,1.1-0.2,2.1-0.2,3.2C25.1,447.1,25.2,446.1,25.3,445"/>
		<path class="st1" d="M849.4,259.7c-0.1-1.1-0.2-2.2-0.3-3.3C849.2,257.5,849.3,258.6,849.4,259.7"/>
		<path class="st1" d="M740.4,485.5c1.3,0,2.7,0,4,0C743.1,485.5,741.7,485.5,740.4,485.5"/>
		<path class="st1" d="M344.1,286.3c0.2,0.8,0.5,1.6,0.7,2.4C343.2,289,343,288.3,344.1,286.3"/>
		<path class="st1" d="M444.1,210c1.4,0,2.7,0,4.1,0C446.8,210.6,445.4,211,444.1,210"/>
		<path class="st1" d="M113.7,297.3c0,1.2,0.1,2.4,0.1,3.6C113.8,299.7,113.8,298.5,113.7,297.3"/>
		<path class="st1" d="M128,490.9c1.3,0,2.6,0,3.9,0C130.7,490.9,129.4,490.9,128,490.9"/>
		<path class="st1" d="M772.3,310c0,1.1,0.1,2.2,0.1,3.3C772.4,312.2,772.4,311.1,772.3,310"/>
		<path class="st1" d="M100.3,492.2c1.3-0.9,2.6-0.8,3.9,0C102.9,492.2,101.6,492.2,100.3,492.2"/>
		<path class="st1" d="M134.1,116.1c0.1,1.1,0.1,2.3,0.2,3.4C134.3,118.3,134.2,117.2,134.1,116.1"/>
		<path class="st1" d="M93.6,492.3c1.3,0,2.7,0,4,0C96.3,493.3,94.9,493.3,93.6,492.3"/>
		<path class="st1" d="M833.4,98.4c0-1.1,0-2.3,0-3.4C833.4,96.1,833.4,97.2,833.4,98.4"/>
		<path class="st1" d="M220.1,78.3c1.3,0.2,2.6,0.3,3.8,0.5C222.6,78.7,221.3,78.5,220.1,78.3"/>
		<path class="st1" d="M107.3,177.2c0,1.1,0,2.1,0.1,3.2C107.3,179.4,107.3,178.3,107.3,177.2"/>
		<path class="st1" d="M842,177.1c-0.1-1.1-0.1-2.2-0.2-3.3C841.9,174.9,841.9,176,842,177.1"/>
		<path class="st1" d="M543.9,491.1c1.6,0.1,3.2,0.3,4.7,0.4C547.1,491.3,545.5,491.2,543.9,491.1"/>
		<path class="st1" d="M538.7,450.2c-0.9,0-1.7,0-2.5,0C537,450.3,537.8,450.3,538.7,450.2"/>
		<path class="st1" d="M538.7,490.4c1.3,0.1,2.6,0.3,4,0.4C541.4,490.7,540.1,490.6,538.7,490.4"/>
		<path class="st1" d="M300.7,401.4c1.7,9.7-13.4,19.2-14.6,5.4c-0.4-5.1,2.9-8.6,6.7-11.7C298.2,390.7,301.2,394.9,300.7,401.4"/>
		<path class="st1" d="M134.1,282.7c3.6,1.5,30.8,10.3,16.6,14.8c-3.7,1.2-9.4,1.4-12.6-0.7C134.2,294.3,130.3,286.9,134.1,282.7"/>
		<path class="st1" d="M140.8,151c9.2-1.1,17.7,14.1,6.4,13.6C138.9,164.3,127.8,151,140.8,151"/>
		<path class="st1" d="M173.9,188.2c7.7,6.7-6.6,21.8-12.3,16c-2.9-3-0.2-9.4,2.2-11.9C166.2,189.7,170.6,189.3,173.9,188.2"/>
		<path class="st1" d="M196.8,362.6c-4.6,0.7-24.6,7.3-20.4-4.6c1.6-4.5,6-3.2,10.1-3C193.1,355.3,196.8,355,196.8,362.6"/>
		<path class="st1" d="M183.6,393.2c6.8,3.6-3.1,24-8.8,19.7C167,406.9,177.7,395,183.6,393.2"/>
		<path class="st1" d="M213.3,376.8c3.3-1.4,18.9,13.7,13,17.8c-3,2.1-8.8-1.5-10.7-3.7C212.2,386.7,211.9,381.6,213.3,376.8"/>
		<path class="st1" d="M123.2,254c3.4,0.6,9.2,0.7,9.5,5.5c0.2,4.2-5.1,5.5-8.7,5.9c-3.8,0.3-8.9-0.7-9-5.6
			C114.9,254.6,123.1,254.9,123.2,254"/>
		<path class="st1" d="M206.7,461.1c3.6,2.2,20.4,10.1,13.2,15.8c-2.7,2.1-10.9-2.3-12.7-4.5C205,469.6,202.9,463.4,206.7,461.1"/>
		<path class="st1" d="M253.5,403.9c-0.5-8.7,14.2-12.2,11.1,0.2c-0.9,3.5-1.7,8.8-6,9C253.5,413.3,253.3,407.2,253.5,403.9"/>
		<path class="st1" d="M208.2,252.6c0.1,6.6-12.5,12.4-12.6,2C195.4,245.2,208.6,242.4,208.2,252.6"/>
		<path class="st1" d="M199.8,218.2c3.1,1,7.3,1.5,7.5,5.5c0.3,4.2-3.6,6.1-7.1,5.8c-2.9-0.2-7.1-2.3-7.6-5.4
			C191.8,219.5,196.3,219.2,199.8,218.2"/>
		<path class="st1" d="M141.9,339c-0.1-5.4,10.9-12,12.9-5.7c0.6,2-4.5,11.1-6.2,11.8C144,346.9,143.4,342.7,141.9,339"/>
		<path class="st1" d="M231.3,429.7c-3.7,3.3-14.8,12.6-13.9,0.1C217.9,421.8,232.3,422.3,231.3,429.7"/>
		<path class="st1" d="M411.5,465.3c1.2-5.2,18.5,3.8,12.7,10.5c-1.9,2.2-7,0.2-9-1.1C411.5,472,411.4,469.6,411.5,465.3"/>
		<path class="st1" d="M315.1,353.2c0.7-2.3,1.4-6.5,3.7-7.9c4-2.7,7.5,1.4,7.5,5.7C326.3,358.9,317.2,361.4,315.1,353.2"/>
		<path class="st1" d="M272.2,446.6c4.5,1,14.5,12,8.7,16.4C275.3,467.3,267.9,449.9,272.2,446.6"/>
		<path class="st1" d="M276.5,363.9c5.8,0.5,13.7,9.8,4.7,11.3C274.2,376.4,266,366.2,276.5,363.9"/>
		<path class="st1" d="M328.8,407c1.4-4.9,15.8,0.3,15,5.7c-0.4,2.9-6.3,3.5-9.4,2.8C329.9,414.4,328.7,411.4,328.8,407"/>
		<path class="st1" d="M159.9,134.4c0.1-6.3,12.2-8.9,13.1-2.5C173.8,137.6,159.7,143.7,159.9,134.4"/>
		<path class="st1" d="M324.8,472c0.9-3.2,1.3-7,5.2-7.4c4.5-0.5,4.4,3,3.9,6.6C332.4,481,326.9,481.5,324.8,472"/>
		<path class="st1" d="M133.3,209.5c-6.3,1.4-17.9-10.7-10.8-13.4C127.5,194.3,133.3,205.8,133.3,209.5"/>
		<path class="st1" d="M213.9,304c-3.2,1.5-4,2.4-6.4-0.1c-2.2-2.2-2.1-8.2-0.2-10.4C214.4,284.9,214.2,300.5,213.9,304"/>
		<path class="st1" d="M240.2,286.5c3.4,0.4,13.3,9.9,8.1,13.6C242,304.8,238.4,290.4,240.2,286.5"/>
		<path class="st1" d="M312.8,289c-2.4,9.4-8.5,3.1-8.2-4C305.1,273.6,311.5,283.5,312.8,289"/>
		<path class="st1" d="M349.8,439.9c4.1,1.7,9.7,17.5,3.8,18.3C347,459.1,349.2,443.1,349.8,439.9"/>
		<path class="st1" d="M298.3,431c4.7-1.6,6.5,8.4,3.7,10.2C295.9,445.3,297.2,433.4,298.3,431"/>
		<path class="st1" d="M253.5,403.9c-0.1,1.3-0.1,2.6-0.2,4C253.4,406.5,253.4,405.2,253.5,403.9"/>
		<path class="st1" d="M411.5,465.3c0,1.4-0.1,2.7-0.1,4.1C411.4,468,411.5,466.6,411.5,465.3"/>
		<path class="st1" d="M328.8,407c0,1.1-0.1,2.3-0.1,3.4C328.7,409.3,328.8,408.1,328.8,407"/>
		<path class="st1" d="M851,387.2c9.8-0.3,20.7-4,30.3-2.8c2.6,0.3,8.7,1,4.5,4.9c-2,1.9-11.7,0.9-14.7,1.5
			c-18,3.8-38.4,6.3-56.8,5.9c-8.6-0.1-17.3-0.8-25.9-1.3c-8.6-0.5-9.5-4,0.2-5.1c10.1-1.2,20.4-0.7,30.5-0.7
			C829.8,389.7,840.4,387.9,851,387.2"/>
		<path class="st1" d="M872.5,363.6c-0.9,2.7-1.8,8.8-5.4,9.2c-5.1,0.6-5.9-8.1-5.7-11.3c0.2-3.8,1.6-10.2,6.4-8.9
			C871.8,353.8,872.2,360.6,872.5,363.6"/>
		<path class="st1" d="M841.9,361.7c0.7-2.9,1.1-9.3,5.2-9.6c4.5-0.2,5.8,6.5,5.8,9.7c0,3.1-1.2,8.9-4.8,9.6
			C843.2,372.4,842.7,364.9,841.9,361.7"/>
		<path class="st1" d="M790.9,366.8c-1.5,3.5-2.4,8.2-7,5.9c-3.5-1.8-4-9.2-3.3-12.5c0.7-3.5,2.1-7.5,6.1-5.9
			C791.3,356,790.8,363,790.9,366.8"/>
		<path class="st1" d="M829.5,363.6c-4.3,13.2-12.3,4.3-9.2-5.6C823.4,347.8,829.1,357.8,829.5,363.6"/>
		<path class="st1" d="M808.4,364.3c-1.2,2.3-2.5,7.3-5.7,6.8c-4-0.6-4.1-8.3-3.7-11.2c0.4-2.5,1.5-6.7,4.8-6.6
			C808.6,353.4,808.3,361.3,808.4,364.3"/>
		<path class="st1" d="M894.9,366.8c-3.2,7.2-7.7,1-6.3-4.1C890.8,355,894.7,361.8,894.9,366.8"/>
		<path class="st1" d="M815.8,389.7c-3.5,0-7.1,0-10.6,0C808.8,389,812.3,388.7,815.8,389.7"/>
		<path class="st1" d="M885.9,384.4c-3.1,0-6.1,0-9.2,0.1C879.8,383.5,882.8,383.5,885.9,384.4"/>
		<path class="st1" d="M851,387.2c-2.4,0.2-4.9,0.3-7.3,0.5C846.1,387.5,848.5,387.4,851,387.2"/>
		<path class="st1" d="M790.9,366.8c0-1.8,0-3.5-0.1-5.3C791.7,363.3,791.7,365.1,790.9,366.8"/>
		<path class="st1" d="M810.1,396.7c1.4,0,2.8,0,4.2,0C812.9,396.8,811.5,396.8,810.1,396.7"/>
		<path class="st1" d="M786.2,395.5c1.4,0,2.9,0,4.3,0C789.1,395.5,787.7,395.5,786.2,395.5"/>
		<path class="st1" d="M798,389.8c-2,0.2-4,0.3-6,0.5C794,390.2,796,390,798,389.8"/>
		<path class="st1" d="M825.1,389.7c-2,0-3.9,0-5.9,0C821.1,388.8,823.1,388.8,825.1,389.7"/>
		<path class="st1" d="M808.4,364.3c0-1.8-0.1-3.7-0.1-5.5C808.3,360.6,808.3,362.5,808.4,364.3"/>
		<path class="st1" d="M780.6,360.1c0,1.8,0,3.6,0,5.4C780.5,363.7,780.5,361.9,780.6,360.1"/>
		<path class="st1" d="M862.2,386.5c-1.7,0.2-3.5,0.3-5.2,0.5C858.7,386.9,860.5,386.7,862.2,386.5"/>
		<path class="st1" d="M894.9,366.8c-0.1-1.6-0.1-3.1-0.2-4.7C894.8,363.7,894.9,365.2,894.9,366.8"/>
		<path class="st1" d="M820.6,396.8c1.2,0,2.4,0,3.6-0.1C823.1,396.7,821.8,396.8,820.6,396.8"/>
		<path class="st1" d="M872.5,363.6c-0.1-1.1-0.2-2.2-0.3-3.4C872.3,361.4,872.4,362.5,872.5,363.6"/>
		<path class="st1" d="M829.5,363.6c-0.1-1.2-0.2-2.3-0.2-3.5C829.3,361.3,829.4,362.5,829.5,363.6"/>
		<path class="st1" d="M202.9,25.1c-4.8-1.3-5.7-8-4.9-12.1c0.9-2,1.7-4,2.6-6c-0.3-0.7-0.7-1.5-1-2.2c0.4-4.1-0.7-5.9,4-4.2
			C212.3,3.7,213.7,24.8,202.9,25.1"/>
		<path class="st1" d="M273.6,12.1c3.9-0.3,11.1,4.3,7.2,8.7c-2.4,2.7-10.4,1.4-13.7,2c-4.3,0.8-8.8,1.8-6.5-4.7
			C262.4,13.1,269,12,273.6,12.1"/>
		<path class="st1" d="M269.5,42.6c-4-3.2-2.2-17.8,3.9-15.2C279.6,30.1,272.8,40.5,269.5,42.6"/>
		<path class="st1" d="M198,13c0,1.5,0,3.1,0,4.6C197.1,16.1,197.1,14.5,198,13"/>
		<path class="st1" d="M202.9,25.1c0.8,0,1.6,0,2.4-0.1C204.5,25.1,203.7,25.1,202.9,25.1"/>
		<path class="st1" d="M696.6,445.8c-0.4,6.6-7.5,1.7-7-2.7C690.6,435,695.1,443,696.6,445.8"/>
	</g>
</g>
</svg>
