<svg height="826.29361" viewBox="0 0 1088 826.29361" width="1088" xmlns="http://www.w3.org/2000/svg"><path d="m990.987 366.24078c-47.82006-188.0394-213.05347-323.77755-407.00175-329.22189-102.53463-2.87826-210.42969 31.12792-288.98525 150.12792-140.42655 212.72536 8.62954 359.72511 112.5475 429.57647a650.24048 650.24048 0 0 1 134.40216 120.80021c70.1932 83.29551 205.22891 186.80189 366.05034 24.62332 116.56358-117.54724 114.83991-270.65321 82.987-395.90603z" fill="#f2f2f2" transform="translate(-56 -36.85319)"/><path d="m719.6 507.394 98.4-98.1-98.4-98.1 30-29.9 128.4 128-128.4 128z" opacity=".1"/><path d="m494.6 453.14681h40v-40h-40zm200.8-40h-40v40h40zm-120.4 40h40v-40h-40z" opacity=".1" transform="translate(-56 -36.85319)"/><path d="m384.4 506.394-98.5-98.1 98.4-98.1-30-29.9-128.3 128 128.4 128z" opacity=".1"/><path d="m1144 789.14681c0 16.56854-243.5571 74-544 74s-544-57.43146-544-74 243.5571 14 544 14 544-30.56855 544-14z" fill="#10ab7c" transform="translate(-56 -36.85319)"/><path d="m1144 789.14681c0 16.56854-243.5571 74-544 74s-544-57.43146-544-74 243.5571 14 544 14 544-30.56855 544-14z" opacity=".1" transform="translate(-56 -36.85319)"/><ellipse cx="544" cy="752.29361" fill="#10ab7c" rx="544" ry="30"/><g transform="translate(-56 -36.85319)"><path d="m688.696 644.80629c0 64.01613 40.16035 115.81717 89.79084 115.81717" fill="#ff7f66"/><path d="m778.48684 760.62346c0-64.73541 44.81662-117.11849 100.20136-117.11849" fill="#ff7f66"/><path d="m721.22891 650.60946c0 60.80852 25.6095 110.014 57.25793 110.014" fill="#10ab7c"/><path d="m778.48684 760.62346c0-82.71747 51.801-149.6514 115.81716-149.6514" fill="#274991"/><path d="m759.59716 761.44s12.73382-.39219 16.57147-3.12493 19.58782-5.99578 20.53985-1.61306 19.13656 21.79764 4.76014 21.9136-33.4044-2.23935-37.23467-4.57252-4.63679-12.60309-4.63679-12.60309z" fill="#a8a8a8"/><path d="m801.72518 777.09c-14.37642.116-33.40439-2.23933-37.23466-4.57251-2.91695-1.77683-4.07933-8.15253-4.46825-11.094-.26935.01158-.42511.01657-.42511.01657s.80653 10.26992 4.63681 12.60309 22.85824 4.6885 37.23466 4.57251c4.1499-.03347 5.58335-1.50994 5.50464-3.69673-.57652 1.32107-2.15927 2.14607-5.24809 2.17107z" opacity=".2"/><path d="m921.53291 419.70575s-30.78848-23.37612-33.12545-14.80723 22.59069 28.04361 22.59069 28.04361z" fill="#ffb9b9"/><path d="m921.53291 419.70575s-30.78848-23.37612-33.12545-14.80723 22.59069 28.04361 22.59069 28.04361z" opacity=".1"/><path d="m1023.17262 345.69533s-36.6125 65.4351-37.39149 74.783-.779 10.12686-3.89495 9.34787-45.96037-5.45292-49.85532-3.89494-11.68484-9.34787-11.68484-9.34787-14.80079 14.80079-11.68484 17.91675 12.46382 4.67391 14.02182 8.56886 3.89495 7.7899 10.90585 7.01091 54.52925 12.46382 60.76115 10.12685 7.78989-6.23192 10.90585-6.23192 9.34787-3.11595 9.34787-3.89494 21.8117-42.06543 21.8117-42.06543 25.70666-56.08723-13.2428-62.31914z" fill="#ff7f66"/><path d="m1023.17262 345.69533s-36.6125 65.4351-37.39149 74.783-.779 10.12686-3.89495 9.34787-45.96037-5.45292-49.85532-3.89494-11.68484-9.34787-11.68484-9.34787-14.80079 14.80079-11.68484 17.91675 12.46382 4.67391 14.02182 8.56886 3.89495 7.7899 10.90585 7.01091 54.52925 12.46382 60.76115 10.12685 7.78989-6.23192 10.90585-6.23192 9.34787-3.11595 9.34787-3.89494 21.8117-42.06543 21.8117-42.06543 25.70666-56.08723-13.2428-62.31914z" opacity=".1"/><path d="m970.05372 302.55716a64.78949 64.78949 0 0 0 .19963 12.41994c1.18318 8.94979 5.30311 18.279 1.41138 26.63316-1.41259 3.03233-3.80585 5.67452-5.10925 8.7433-2.7592 6.49636-.25777 13.70176-.63281 20.61595-.48448 8.93161-6.16516 17.538-14.80657 22.43244 14.76344.45865 28.80366-6.84077 38.09315-16.7876s14.46277-22.28423 18.34107-34.628a75.2815 75.2815 0 0 0 3.805-17.92219 25.83489 25.83489 0 0 0 -1.2085-10.38585 39.57451 39.57451 0 0 0 -5.3421-9.12325c-2.32605-3.27044-4.716-6.60515-8.14786-9.03848-4.227-2.99707-12.37788-6.00629-17.98536-5.57014-6.87816.53498-8.32835 7.83692-8.61778 12.61072z" fill="#2f2e41"/><path d="m992.792 326.99958s8.56888 30.38059 1.558 38.94947 42.06542-3.89495 42.06542-3.89495-24.14867-24.14867-12.46383-39.72845z" fill="#ffb9b9"/><path d="m992.792 326.99958s8.56888 30.38059 1.558 38.94947 42.06542-3.89495 42.06542-3.89495-24.14867-24.14867-12.46383-39.72845z" opacity=".1"/></g><path d="m719.6 488.394 98.4-98.1-98.4-98.1 30-29.9 128.4 128-128.4 128z" fill="#274991"/><path d="m908.748 695.221v22.591l11.685 14.021 10.127-4.674-3.116-32.717z" fill="#ffb9b9"/><path d="m969.42235 753.10675s-3.116-10.90585-8.56888-3.116-10.90585 24.92766-14.02181 25.70665-24.92766 24.92766-3.116 24.92766 28.82261-10.12686 28.82261-10.12686 21.8117-8.56889 21.8117-10.12687-3.116-30.38058-4.67394-30.38058-2.337 5.45293-6.23191 5.45293-14.02177-2.33693-14.02177-2.33693z" fill="#2f2e41" transform="translate(-56 -36.85319)"/><path d="m960.941 699.116-.779 21.033 18.695 7.789v-30.38z" fill="#ffb9b9"/><path d="m1037.19442 757.00169s-10.12686-10.90585-15.57978-8.56888a53.81171 53.81171 0 0 0 -7.7899 3.89495s-3.11595 10.12686-4.67393 18.69574-2.337 12.46383-3.89495 15.57979-3.116 14.8008 12.46383 16.35878 20.25372-7.01091 20.25372-7.01091l3.89495-20.25372s-1.55798-18.69575-4.67394-18.69575z" fill="#2f2e41" transform="translate(-56 -36.85319)"/><path d="m974.87528 511.62005s-22.59069 50.63431-19.47474 96.59468c0 0-7.78989 17.91676-3.11595 45.96037s10.90585 84.1309 10.90585 84.1309 21.03271 2.337 22.59069-1.558c0 0 1.558-38.94946 3.11595-40.50744s-.779-37.39149-3.11595-44.4024 21.8117-76.341 21.8117-76.341l-6.23192-86.46782z" fill="#2f2e41" transform="translate(-56 -36.85319)"/><path d="m974.87528 511.62005s-22.59069 50.63431-19.47474 96.59468c0 0-7.78989 17.91676-3.11595 45.96037s10.90585 84.1309 10.90585 84.1309 21.03271 2.337 22.59069-1.558c0 0 1.558-38.94946 3.11595-40.50744s-.779-37.39149-3.11595-44.4024 21.8117-76.341 21.8117-76.341l-6.23192-86.46782z" opacity=".1" transform="translate(-56 -36.85319)"/><path d="m968.64336 508.5041 14.8008 31.93856s7.0109 72.446 10.90585 81.79388c0 0 1.558 26.48564 8.56888 35.05452s12.46383 84.13085 12.46383 84.13085 19.47474 5.45292 21.03271 0 6.23192-42.84442 6.23192-42.84442 1.558-31.93856-7.01091-52.97127 10.12687-96.59468 10.12687-96.59468 19.47473-36.6125-8.56889-66.21409z" fill="#2f2e41" transform="translate(-56 -36.85319)"/><circle cx="953.9298" cy="267.5557" fill="#ffb9b9" r="31.93856"/><path d="m1039.53139 352.70623s-33.49654 0-38.17048 3.89495a6.2148 6.2148 0 0 1 -8.56888 0s-11.68484.779-14.8008 10.12686-12.46383 21.8117-12.46383 21.8117-14.0218 10.12686-6.23191 36.6125 1.558 69.33 1.558 69.33-6.23192 9.34787 0 13.24282 8.56888 5.45292 7.78989 8.56888 70.888-25.70665 70.888-31.15957-1.558-10.12686 0-12.46383 3.116-6.23192 1.558-10.12686 1.558-4.67394.779-8.56889 3.895-32.71755 7.0109-45.18138 2.33695-55.30819-9.34789-56.08718z" fill="#ff7f66" transform="translate(-56 -36.85319)"/><path d="m921.53291 429.05362s-30.78848-23.37611-33.12545-14.80723 22.59069 28.04361 22.59069 28.04361z" fill="#ffb9b9" transform="translate(-56 -36.85319)"/><path d="m1023.17262 356.60118s-36.6125 65.4351-37.39149 74.783-.779 10.12686-3.89495 9.34788-45.96037-5.45293-49.85532-3.89495-11.68484-9.34787-11.68484-9.34787-14.80079 14.80076-11.68484 17.91676 12.46383 4.67394 14.02181 8.56888 3.89495 7.7899 10.90585 7.01091 54.52926 12.46379 60.76116 10.12682 7.78989-6.23192 10.90585-6.23192 9.34787-3.11595 9.34787-3.89494 21.8117-42.06543 21.8117-42.06543 25.70666-56.08723-13.2428-62.31914z" fill="#ff7f66" transform="translate(-56 -36.85319)"/><path d="m994.11433 324.81412c-.44276-3.16315-2.06273-6.03281-2.89375-9.1168a18.92542 18.92542 0 0 1 2.15464-14.69554c4.58114-7.39921 13.57543-10.67633 19.8481-16.70863.13 3.07271 2.26209 5.69857 4.61867 7.67467s5.0595 3.57914 7.05494 5.91937a23.18422 23.18422 0 0 1 4.109 8.32352 29.24582 29.24582 0 0 1 1.62312 10.917 13.68907 13.68907 0 0 1 -4.73071 9.702c-2.33628 1.84647-5.601 2.901-6.72979 5.65669a9.64383 9.64383 0 0 0 -.37513 4.26987c.53486 8.57042 1.03463 17.29348-.98353 25.64005s-6.96258 16.41045-14.71162 20.11053c6.368.45177 12.87041.89222 19.04877-.71525s12.08706-5.65526 14.21717-11.67346c1.05082-2.96888 1.15021-6.27088 2.64328-9.04382 3.779-7.01837 14.214-7.33837 19.34-13.44269 2.05133-2.44284 3.0437-5.59074 3.77926-8.69468 4.32826-18.26461 1.28722-37.65876-5.30174-55.23474-2.27105-6.058-5.09851-12.15764-9.9697-16.41543-4.14514-3.62317-9.43855-5.61944-14.67334-7.32431-7.63963-2.48808-15.50959-4.52657-23.53987-4.78936a29.89721 29.89721 0 0 0 -10.33347 1.20642 30.722 30.722 0 0 0 -9.09193 5.17932c-12.57933 9.788-21.1439 25.43159-20.00738 41.32979.68769 9.61973 4.76363 18.72357 9.99979 26.82267 1.83133 2.83263 6.15833 8.87262 10.18007 7.09154 3.64749-1.61536 5.20335-8.57237 4.72515-11.98873z" fill="#2f2e41" transform="translate(-56 -36.85319)"/><path d="m494.6 434.14681h40v-40h-40zm200.8-40h-40v40h40zm-120.4 40h40v-40h-40z" fill="#274991" transform="translate(-56 -36.85319)"/><ellipse cx="206.20587" cy="211.8387" fill="#2f2e41" rx="33.6569" ry="26.25238"/><path d="m267.92755 429.42945s30.29121 2.01941 35.67631-2.01942 28.2718 5.38511 30.29121 10.77021-32.31062 6.05824-37.69573 6.05824-30.96435 8.07766-30.96435 8.07766z" fill="#a0616a" transform="translate(-56 -36.85319)"/><path d="m205.55224 742.99151s-14.117 35.59927-6.75158 39.89573 84.70171 1.22756 84.70171 1.22756 12.88939-7.97914-1.84134-13.50317c0 0-12.27561-.61378-20.25476-5.524s-17.18585-14.117-17.18585-14.117-.61378-13.50317-5.524-10.43426a12.61392 12.61392 0 0 0 -5.524 8.59292z" fill="#2f2e41" transform="translate(-56 -36.85319)"/><path d="m205.55224 742.99151s-14.117 35.59927-6.75158 39.89573 84.70171 1.22756 84.70171 1.22756 12.88939-7.97914-1.84134-13.50317c0 0-12.27561-.61378-20.25476-5.524s-17.18585-14.117-17.18585-14.117-.61378-13.50317-5.524-10.43426a12.61392 12.61392 0 0 0 -5.524 8.59292z" opacity=".1" transform="translate(-56 -36.85319)"/><path d="m384.4 487.394-98.5-98.1 98.4-98.1-30-29.9-128.3 128 128.4 128z" fill="#274991"/><path d="m183.7853 753.882s-15.48218 39.042-7.40452 43.754 92.893 1.34628 92.893 1.34628 14.1359-8.7508-2.01941-14.809c0 0-13.46276-.67314-22.21356-6.05824s-18.84781-15.48228-18.84781-15.48228-.67314-14.809-6.05824-11.44335a13.83376 13.83376 0 0 0 -6.05824 9.42393z" fill="#2f2e41" transform="translate(-56 -36.85319)"/><path d="m263.21558 506.16718-9.42393 84.81539s-3.36569 40.38828-13.46276 49.13907c0 0 0 12.78962-3.36569 16.82845l-4.712 53.1779s6.73138 19.521 6.05824 22.88669 2.69256 14.1359 2.01942 15.48218-32.31063 0-32.31063 0l6.73138-108.37522 20.86728-150.78291z" fill="#2f2e41" transform="translate(-56 -36.85319)"/><path d="m263.21558 506.16718-9.42393 84.81539s-3.36569 40.38828-13.46276 49.13907c0 0 0 12.78962-3.36569 16.82845l-4.712 53.1779s6.73138 19.521 6.05824 22.88669 2.69256 14.1359 2.01942 15.48218-32.31063 0-32.31063 0l6.73138-108.37522 20.86728-150.78291z" opacity=".1" transform="translate(-56 -36.85319)"/><path d="m246.38713 503.47463s-7.40452 69.33321-10.77021 84.14225a191.45128 191.45128 0 0 0 -4.03883 29.61807s-.67313 21.54041-6.73138 27.59866a18.194 18.194 0 0 0 -5.3851 13.46276s-6.05824 67.98693-2.69255 76.06459 6.73138 14.809 3.36569 20.19414-40.38828 5.3851-40.38828 1.34628 0-7.40452-2.01942-9.42394 0-14.809 0-14.809-8.07765-59.90928-.67313-77.41087 10.7702-65.29439 10.7702-65.29439-5.3851-54.52418-12.11648-63.275 1.34628-39.71514 1.34628-39.71514z" fill="#2f2e41" transform="translate(-56 -36.85319)"/><path d="m227.43564 288.1652c.78254 1.78268 2.65563 2.77523 4.36085 3.71467 9.88293 5.4447 18.15564 13.33867 26.30611 21.14167a30.88184 30.88184 0 0 1 1.22533-20.88436c.97311-2.25349 2.24854-4.67575 1.553-7.02976-.51152-1.73109-1.98559-2.97969-3.41344-4.084a105.83513 105.83513 0 0 0 -10.40969-7.10206c-2.52042-1.50791-7.7023-5.52207-10.59458-5.08531-.15184 3.90788-.23113 7.40176-1.94245 11.05414-.40598.86634-6.78598 8.9565-7.08513 8.27501z" fill="#a0616a" transform="translate(-56 -36.85319)"/><circle cx="205.8693" cy="232.36941" fill="#a0616a" r="27.59866"/><path d="m263.21558 334.517s4.712-23.55983-8.75079-31.63749-28.94494-17.50159-28.94494-17.50159-4.712-.67313-6.73138 9.42394c0 0-38.36886 7.40451-42.40769 43.754s2.69255 89.52735 2.69255 89.52735-6.05824 46.44652-13.46276 71.35263c0 0-6.05824 5.3851 20.86728-2.69255s74.04515 22.88665 74.04515 22.88665 4.712-4.712 4.712-8.07766 5.38511-22.88669 5.38511-22.88669 4.712-82.796 6.73138-92.21991-8.07767-60.58242-14.13591-61.92868z" fill="#ff7f66" transform="translate(-56 -36.85319)"/><path d="m255.365 272.0658a11.50929 11.50929 0 0 1 5.41275-1.44156 10.30066 10.30066 0 0 0 5.35434-1.59542c2.607-2.00142 2.79823-5.86932 4.70539-8.54606 2.76117-3.87534 8.2695-4.34179 13.02393-4.14789 2.908.11859 6.03964.29225 8.48843-1.28058 2.5139-1.61465 3.65338-4.65693 4.501-7.52194 1.00241-3.38806 1.65075-7.53139-.83318-10.04413-1.72489-1.7449-4.44757-2.09-6.36371-3.62242-1.98677-1.5889-2.80432-4.17476-3.88425-6.47815a17.50685 17.50685 0 0 0 -5.63735-7.06119c-3.61468-2.51149-8.23146-3.07467-12.63275-3.0276s-8.82105.62578-13.18933.08567c-3.579-.44252-7.14744-1.633-10.71484-1.10534-4.5458.67239-8.30654 4.10189-10.54644 8.11427s-3.201 8.59226-4.133 13.092l-2.53464 12.23819c-.78614 3.79576-1.57551 7.6924-.96866 11.52091 1.258 7.93655 8.27687 14.24507 8.76049 22.26613a13.66856 13.66856 0 0 1 8.343-9.92064 2.61085 2.61085 0 0 1 1.69982-.2062c.69733.22289 1.1049.91957 1.545 1.50462 1.15307 1.53294 4.77533 3.85871 6.8286 2.77123 1.83715-.973.4656-4.0274 2.7754-5.5939z" fill="#2f2e41" transform="translate(-56 -36.85319)"/><path d="m185.80471 397.792s-4.712 29.61807 14.809 26.92552c0 0 10.09707-1.34628 11.44334 0s51.15849-7.40452 57.88987-14.809c0 0 8.07766-2.69255 12.11648 1.34628s44.42711 8.07766 32.31063-4.03883-30.96435-14.809-30.96435-14.809l-25.57924 1.34627s-13.46276 4.03883-21.54042 0-30.96435-2.69255-30.96435-2.69255z" fill="#a0616a" transform="translate(-56 -36.85319)"/><path d="m213.40337 304.22578s-30.29121 3.36569-30.29121 47.11966v55.87045s16.82845-7.40452 20.19414-6.73138 16.82845-8.75079 16.82845-8.75079 15.48217-36.34945 14.1359-46.44652-.67314-39.71515-20.86728-41.06142z" fill="#ff7f66" transform="translate(-56 -36.85319)"/><ellipse cx="205.8693" cy="215.20439" fill="#2f2e41" rx="25.91581" ry="13.46276"/><ellipse cx="181.63634" cy="217.56037" fill="#2f2e41" rx="9.08736" ry="22.55012"/></svg>