<?xml version="1.0" encoding="utf-8"?>
<!-- Generator: Adobe Illustrator 24.1.0, SVG Export Plug-In . SVG Version: 6.00 Build 0)  -->
<!DOCTYPE svg PUBLIC "-//W3C//DTD SVG 1.1//EN" "http://www.w3.org/Graphics/SVG/1.1/DTD/svg11.dtd" [
	<!ENTITY ns_extend "http://ns.adobe.com/Extensibility/1.0/">
	<!ENTITY ns_ai "http://ns.adobe.com/AdobeIllustrator/10.0/">
	<!ENTITY ns_graphs "http://ns.adobe.com/Graphs/1.0/">
	<!ENTITY ns_vars "http://ns.adobe.com/Variables/1.0/">
	<!ENTITY ns_imrep "http://ns.adobe.com/ImageReplacement/1.0/">
	<!ENTITY ns_sfw "http://ns.adobe.com/SaveForWeb/1.0/">
	<!ENTITY ns_custom "http://ns.adobe.com/GenericCustomNamespace/1.0/">
	<!ENTITY ns_adobe_xpath "http://ns.adobe.com/XPath/1.0/">
]>
<svg version="1.1" id="Layer_1" xmlns:x="&ns_extend;" xmlns:i="&ns_ai;" xmlns:graph="&ns_graphs;"
	 xmlns="http://www.w3.org/2000/svg" xmlns:xlink="http://www.w3.org/1999/xlink" x="0px" y="0px" viewBox="0 0 64 78.4"
	 style="enable-background:new 0 0 64 78.4;" xml:space="preserve">
<style type="text/css">
	.st0{fill:#242E4C;}
	.st1{opacity:0.4;fill:#242E4C;enable-background:new    ;}
</style>
<path id="Rectangle_14" class="st0" d="M10,0h1.2v11.2H0V10C0,4.5,4.5,0,10,0z"/>
<rect id="Rectangle_15" x="35.2" y="17.6" class="st0" width="11.2" height="25.6"/>
<rect id="Rectangle_16" x="17.6" y="35.2" class="st1" width="11.2" height="25.6"/>
<path id="Rectangle_17" class="st0" d="M52.8,35.2H64v18.6c0,3.9-3.1,7-7,7h-4.2V35.2z"/>
<rect id="Rectangle_18" y="52.8" class="st0" width="11.2" height="25.6"/>
<path id="Rectangle_19" class="st0" d="M52.8,0H57c3.9,0,7,3.1,7,7l0,0l0,0v4.2H52.8V0z"/>
<rect id="Rectangle_20" x="52.8" y="17.6" class="st1" width="11.2" height="11.2"/>
<rect id="Rectangle_21" y="35.2" class="st0" width="11.2" height="11.2"/>
<rect id="Rectangle_22" x="35.2" y="49.6" class="st0" width="11.2" height="11.2"/>
<path id="Rectangle_23" class="st0" d="M17.6,67.2h11.2v1.2c0,5.5-4.5,10-10,10h-1.2V67.2z"/>
<rect id="Rectangle_24" x="17.6" class="st1" width="28.8" height="11.2"/>
<rect id="Rectangle_25" y="17.6" class="st0" width="28.8" height="11.2"/>
</svg>
