<svg id="loader-logo" xmlns="http://www.w3.org/2000/svg" width="50" height="50" viewBox="0 0 64 78.4">
    <path fill="#fff" d="M10,0h1.2V11.2H0V10A10,10,0,0,1,10,0Z"/>
    <rect fill="#fff" x="35.2" y="17.6" width="11.2" height="25.6"/>
    <rect fill="#fff" opacity="0.4" x="17.6" y="35.2" width="11.2" height="25.6"/>
    <path fill="#fff" d="M52.8,35.2H64V53.8a7,7,0,0,1-7,7H52.8V35.2Z"/>
    <rect fill="#fff" y="52.8" width="11.2" height="25.6"/>
    <path fill="#fff" d="M52.8,0H57a7,7,0,0,1,7,7h0v4.2H52.8V0Z"/>
    <rect fill="#fff" opacity="0.4" x="52.8" y="17.6" width="11.2" height="11.2"/>
    <rect fill="#fff" y="35.2" width="11.2" height="11.2"/>
    <rect fill="#fff" x="35.2" y="49.6" width="11.2" height="11.2"/>
    <path fill="#fff" d="M17.6,67.2H28.8v1.2a10,10,0,0,1-10,10H17.6V67.2Z"/>
    <rect fill="#fff" opacity="0.4" x="17.6" width="28.8" height="11.2"/>
    <rect fill="#fff" y="17.6" width="28.8" height="11.2"/>
</svg>